solid OpenSCAD_Model
  facet normal 0.770462 0.637486 0
    outer loop
      vertex 34.0451 32.9389 20
      vertex 33.6448 33.4227 0
      vertex 33.6448 33.4227 20
    endloop
  endfacet
  facet normal 0.770462 0.637486 0
    outer loop
      vertex 33.6448 33.4227 0
      vertex 34.0451 32.9389 20
      vertex 34.0451 32.9389 0
    endloop
  endfacet
  facet normal 0.770468 -0.637478 0
    outer loop
      vertex 33.6448 -3.42274 20
      vertex 34.0451 -2.93893 0
      vertex 34.0451 -2.93893 20
    endloop
  endfacet
  facet normal 0.770468 -0.637478 0
    outer loop
      vertex 34.0451 -2.93893 0
      vertex 33.6448 -3.42274 20
      vertex 33.6448 -3.42274 0
    endloop
  endfacet
  facet normal 1 -0 0
    outer loop
      vertex 35 0 20
      vertex 35 30 0
      vertex 35 30 20
    endloop
  endfacet
  facet normal 1 0 0
    outer loop
      vertex 35 30 0
      vertex 35 0 20
      vertex 35 0 0
    endloop
  endfacet
  facet normal 0.248601 0.968606 -0
    outer loop
      vertex 31.5451 34.7553 0
      vertex 30.9369 34.9114 20
      vertex 31.5451 34.7553 20
    endloop
  endfacet
  facet normal 0.248601 0.968606 0
    outer loop
      vertex 30.9369 34.9114 20
      vertex 31.5451 34.7553 0
      vertex 30.9369 34.9114 0
    endloop
  endfacet
  facet normal 0.99803 0.0627451 0
    outer loop
      vertex 35 30 20
      vertex 34.9606 30.6267 0
      vertex 34.9606 30.6267 20
    endloop
  endfacet
  facet normal 0.99803 0.0627451 0
    outer loop
      vertex 34.9606 30.6267 0
      vertex 35 30 20
      vertex 35 30 0
    endloop
  endfacet
  facet normal 0 -1 0
    outer loop
      vertex -0.313952 -4.99013 0
      vertex 30.314 -4.99013 20
      vertex -0.313952 -4.99013 20
    endloop
  endfacet
  facet normal 0 -1 -0
    outer loop
      vertex 30.314 -4.99013 20
      vertex -0.313952 -4.99013 0
      vertex 30.314 -4.99013 0
    endloop
  endfacet
  facet normal 0.982276 0.187441 0
    outer loop
      vertex 34.9606 30.6267 20
      vertex 34.8429 31.2435 0
      vertex 34.8429 31.2435 20
    endloop
  endfacet
  facet normal 0.982276 0.187441 0
    outer loop
      vertex 34.8429 31.2435 0
      vertex 34.9606 30.6267 20
      vertex 34.9606 30.6267 0
    endloop
  endfacet
  facet normal 0 1 -0
    outer loop
      vertex 30.314 34.9901 0
      vertex -0.313952 34.9901 20
      vertex 30.314 34.9901 20
    endloop
  endfacet
  facet normal 0 1 0
    outer loop
      vertex -0.313952 34.9901 20
      vertex 30.314 34.9901 0
      vertex -0.313952 34.9901 0
    endloop
  endfacet
  facet normal 0.951072 -0.30897 0
    outer loop
      vertex 34.6489 -1.84062 20
      vertex 34.8429 -1.24345 0
      vertex 34.8429 -1.24345 20
    endloop
  endfacet
  facet normal 0.951072 -0.30897 0
    outer loop
      vertex 34.8429 -1.24345 0
      vertex 34.6489 -1.84062 20
      vertex 34.6489 -1.84062 0
    endloop
  endfacet
  facet normal 0.844336 0.535814 0
    outer loop
      vertex 34.3815 32.4088 20
      vertex 34.0451 32.9389 0
      vertex 34.0451 32.9389 20
    endloop
  endfacet
  facet normal 0.844336 0.535814 0
    outer loop
      vertex 34.0451 32.9389 0
      vertex 34.3815 32.4088 20
      vertex 34.3815 32.4088 0
    endloop
  endfacet
  facet normal -0.770509 0.63743 0
    outer loop
      vertex -4.04508 32.9389 0
      vertex -3.64484 33.4227 20
      vertex -3.64484 33.4227 0
    endloop
  endfacet
  facet normal -0.770509 0.63743 0
    outer loop
      vertex -3.64484 33.4227 20
      vertex -4.04508 32.9389 0
      vertex -4.04508 32.9389 20
    endloop
  endfacet
  facet normal -0.587779 -0.809022 0
    outer loop
      vertex -3.18712 -3.85257 0
      vertex -2.67913 -4.22164 20
      vertex -3.18712 -3.85257 20
    endloop
  endfacet
  facet normal -0.587779 -0.809022 -0
    outer loop
      vertex -2.67913 -4.22164 20
      vertex -3.18712 -3.85257 0
      vertex -2.67913 -4.22164 0
    endloop
  endfacet
  facet normal -0.904842 0.425747 0
    outer loop
      vertex -4.64888 31.8406 0
      vertex -4.38153 32.4088 20
      vertex -4.38153 32.4088 0
    endloop
  endfacet
  facet normal -0.904842 0.425747 0
    outer loop
      vertex -4.38153 32.4088 20
      vertex -4.64888 31.8406 0
      vertex -4.64888 31.8406 20
    endloop
  endfacet
  facet normal -0.8443 0.53587 0
    outer loop
      vertex -4.38153 32.4088 0
      vertex -4.04508 32.9389 20
      vertex -4.04508 32.9389 0
    endloop
  endfacet
  facet normal -0.8443 0.53587 0
    outer loop
      vertex -4.04508 32.9389 20
      vertex -4.38153 32.4088 0
      vertex -4.38153 32.4088 20
    endloop
  endfacet
  facet normal -1 0 0
    outer loop
      vertex -5 0 0
      vertex -5 30 20
      vertex -5 30 0
    endloop
  endfacet
  facet normal -1 -0 0
    outer loop
      vertex -5 30 20
      vertex -5 0 0
      vertex -5 0 20
    endloop
  endfacet
  facet normal -0.98229 -0.187369 0
    outer loop
      vertex -4.84292 -1.24345 0
      vertex -4.96057 -0.626666 20
      vertex -4.96057 -0.626666 0
    endloop
  endfacet
  facet normal -0.98229 -0.187369 0
    outer loop
      vertex -4.96057 -0.626666 20
      vertex -4.84292 -1.24345 0
      vertex -4.84292 -1.24345 20
    endloop
  endfacet
  facet normal -0.684549 -0.728967 0
    outer loop
      vertex -3.64484 -3.42274 0
      vertex -3.18712 -3.85257 20
      vertex -3.64484 -3.42274 20
    endloop
  endfacet
  facet normal -0.684549 -0.728967 -0
    outer loop
      vertex -3.18712 -3.85257 20
      vertex -3.64484 -3.42274 0
      vertex -3.18712 -3.85257 0
    endloop
  endfacet
  facet normal 0.904811 0.425812 0
    outer loop
      vertex 34.6489 31.8406 20
      vertex 34.3815 32.4088 0
      vertex 34.3815 32.4088 20
    endloop
  endfacet
  facet normal 0.904811 0.425812 0
    outer loop
      vertex 34.3815 32.4088 0
      vertex 34.6489 31.8406 20
      vertex 34.6489 31.8406 0
    endloop
  endfacet
  facet normal 0.587698 0.80908 -0
    outer loop
      vertex 33.1871 33.8526 0
      vertex 32.6791 34.2216 20
      vertex 33.1871 33.8526 20
    endloop
  endfacet
  facet normal 0.587698 0.80908 0
    outer loop
      vertex 32.6791 34.2216 20
      vertex 33.1871 33.8526 0
      vertex 32.6791 34.2216 0
    endloop
  endfacet
  facet normal 0.998029 -0.0627485 0
    outer loop
      vertex 34.9606 -0.626666 20
      vertex 35 0 0
      vertex 35 0 20
    endloop
  endfacet
  facet normal 0.998029 -0.0627485 0
    outer loop
      vertex 35 0 0
      vertex 34.9606 -0.626666 20
      vertex 34.9606 -0.626666 0
    endloop
  endfacet
  facet normal 0.125348 0.992113 -0
    outer loop
      vertex 30.9369 34.9114 0
      vertex 30.314 34.9901 20
      vertex 30.9369 34.9114 20
    endloop
  endfacet
  facet normal 0.125348 0.992113 0
    outer loop
      vertex 30.314 34.9901 20
      vertex 30.9369 34.9114 0
      vertex 30.314 34.9901 0
    endloop
  endfacet
  facet normal 0.684565 -0.728952 0
    outer loop
      vertex 33.1871 -3.85257 0
      vertex 33.6448 -3.42274 20
      vertex 33.1871 -3.85257 20
    endloop
  endfacet
  facet normal 0.684565 -0.728952 0
    outer loop
      vertex 33.6448 -3.42274 20
      vertex 33.1871 -3.85257 0
      vertex 33.6448 -3.42274 0
    endloop
  endfacet
  facet normal 0.125332 -0.992115 0
    outer loop
      vertex 30.314 -4.99013 0
      vertex 30.9369 -4.91144 20
      vertex 30.314 -4.99013 20
    endloop
  endfacet
  facet normal 0.125332 -0.992115 0
    outer loop
      vertex 30.9369 -4.91144 20
      vertex 30.314 -4.99013 0
      vertex 30.9369 -4.91144 0
    endloop
  endfacet
  facet normal 0.982275 -0.187446 0
    outer loop
      vertex 34.8429 -1.24345 20
      vertex 34.9606 -0.626666 0
      vertex 34.9606 -0.626666 20
    endloop
  endfacet
  facet normal 0.982275 -0.187446 0
    outer loop
      vertex 34.9606 -0.626666 0
      vertex 34.8429 -1.24345 20
      vertex 34.8429 -1.24345 0
    endloop
  endfacet
  facet normal 0.951061 0.309003 0
    outer loop
      vertex 34.8429 31.2435 20
      vertex 34.6489 31.8406 0
      vertex 34.6489 31.8406 20
    endloop
  endfacet
  facet normal 0.951061 0.309003 0
    outer loop
      vertex 34.6489 31.8406 0
      vertex 34.8429 31.2435 20
      vertex 34.8429 31.2435 0
    endloop
  endfacet
  facet normal -0.98229 0.187365 0
    outer loop
      vertex -4.96057 30.6267 0
      vertex -4.84292 31.2435 20
      vertex -4.84292 31.2435 0
    endloop
  endfacet
  facet normal -0.98229 0.187365 0
    outer loop
      vertex -4.84292 31.2435 20
      vertex -4.96057 30.6267 0
      vertex -4.96057 30.6267 20
    endloop
  endfacet
  facet normal -0.248701 -0.96858 0
    outer loop
      vertex -1.54508 -4.75528 0
      vertex -0.936906 -4.91144 20
      vertex -1.54508 -4.75528 20
    endloop
  endfacet
  facet normal -0.248701 -0.96858 -0
    outer loop
      vertex -0.936906 -4.91144 20
      vertex -1.54508 -4.75528 0
      vertex -0.936906 -4.91144 0
    endloop
  endfacet
  facet normal 0.248691 -0.968583 0
    outer loop
      vertex 30.9369 -4.91144 0
      vertex 31.5451 -4.75528 20
      vertex 30.9369 -4.91144 20
    endloop
  endfacet
  facet normal 0.248691 -0.968583 0
    outer loop
      vertex 31.5451 -4.75528 20
      vertex 30.9369 -4.91144 0
      vertex 31.5451 -4.75528 0
    endloop
  endfacet
  facet normal 0.904797 -0.425843 0
    outer loop
      vertex 34.3815 -2.40877 20
      vertex 34.6489 -1.84062 0
      vertex 34.6489 -1.84062 20
    endloop
  endfacet
  facet normal 0.904797 -0.425843 0
    outer loop
      vertex 34.6489 -1.84062 0
      vertex 34.3815 -2.40877 20
      vertex 34.3815 -2.40877 0
    endloop
  endfacet
  facet normal -0.368124 -0.929777 0
    outer loop
      vertex -2.1289 -4.52413 0
      vertex -1.54508 -4.75528 20
      vertex -2.1289 -4.52413 20
    endloop
  endfacet
  facet normal -0.368124 -0.929777 -0
    outer loop
      vertex -1.54508 -4.75528 20
      vertex -2.1289 -4.52413 0
      vertex -1.54508 -4.75528 0
    endloop
  endfacet
  facet normal -0.998026 -0.0627961 0
    outer loop
      vertex -4.96057 -0.626666 0
      vertex -5 0 20
      vertex -5 0 0
    endloop
  endfacet
  facet normal -0.998026 -0.0627961 0
    outer loop
      vertex -5 0 20
      vertex -4.96057 -0.626666 0
      vertex -4.96057 -0.626666 20
    endloop
  endfacet
  facet normal 0.368135 -0.929773 0
    outer loop
      vertex 31.5451 -4.75528 0
      vertex 32.1289 -4.52413 20
      vertex 31.5451 -4.75528 20
    endloop
  endfacet
  facet normal 0.368135 -0.929773 0
    outer loop
      vertex 32.1289 -4.52413 20
      vertex 31.5451 -4.75528 0
      vertex 32.1289 -4.52413 0
    endloop
  endfacet
  facet normal -0.998027 0.0627927 0
    outer loop
      vertex -5 30 0
      vertex -4.96057 30.6267 20
      vertex -4.96057 30.6267 0
    endloop
  endfacet
  facet normal -0.998027 0.0627927 0
    outer loop
      vertex -4.96057 30.6267 20
      vertex -5 30 0
      vertex -5 30 20
    endloop
  endfacet
  facet normal 0.684624 0.728896 -0
    outer loop
      vertex 33.6448 33.4227 0
      vertex 33.1871 33.8526 20
      vertex 33.6448 33.4227 20
    endloop
  endfacet
  facet normal 0.684624 0.728896 0
    outer loop
      vertex 33.1871 33.8526 20
      vertex 33.6448 33.4227 0
      vertex 33.1871 33.8526 0
    endloop
  endfacet
  facet normal -0.684608 0.728911 0
    outer loop
      vertex -3.18712 33.8526 0
      vertex -3.64484 33.4227 20
      vertex -3.18712 33.8526 20
    endloop
  endfacet
  facet normal -0.684608 0.728911 0
    outer loop
      vertex -3.64484 33.4227 20
      vertex -3.18712 33.8526 0
      vertex -3.64484 33.4227 0
    endloop
  endfacet
  facet normal -0.770515 -0.637422 0
    outer loop
      vertex -3.64484 -3.42274 0
      vertex -4.04508 -2.93893 20
      vertex -4.04508 -2.93893 0
    endloop
  endfacet
  facet normal -0.770515 -0.637422 0
    outer loop
      vertex -4.04508 -2.93893 20
      vertex -3.64484 -3.42274 0
      vertex -3.64484 -3.42274 20
    endloop
  endfacet
  facet normal 0.481772 -0.876297 0
    outer loop
      vertex 32.1289 -4.52413 0
      vertex 32.6791 -4.22164 20
      vertex 32.1289 -4.52413 20
    endloop
  endfacet
  facet normal 0.481772 -0.876297 0
    outer loop
      vertex 32.6791 -4.22164 20
      vertex 32.1289 -4.52413 0
      vertex 32.6791 -4.22164 0
    endloop
  endfacet
  facet normal -0.951042 0.309061 0
    outer loop
      vertex -4.84292 31.2435 0
      vertex -4.64888 31.8406 20
      vertex -4.64888 31.8406 0
    endloop
  endfacet
  facet normal -0.951042 0.309061 0
    outer loop
      vertex -4.64888 31.8406 20
      vertex -4.84292 31.2435 0
      vertex -4.84292 31.2435 20
    endloop
  endfacet
  facet normal -0.248611 0.968603 0
    outer loop
      vertex -0.936906 34.9114 0
      vertex -1.54508 34.7553 20
      vertex -0.936906 34.9114 20
    endloop
  endfacet
  facet normal -0.248611 0.968603 0
    outer loop
      vertex -1.54508 34.7553 20
      vertex -0.936906 34.9114 0
      vertex -1.54508 34.7553 0
    endloop
  endfacet
  facet normal -0.904828 -0.425778 0
    outer loop
      vertex -4.38153 -2.40877 0
      vertex -4.64888 -1.84062 20
      vertex -4.64888 -1.84062 0
    endloop
  endfacet
  facet normal -0.904828 -0.425778 0
    outer loop
      vertex -4.64888 -1.84062 20
      vertex -4.38153 -2.40877 0
      vertex -4.38153 -2.40877 20
    endloop
  endfacet
  facet normal -0.368192 0.92975 0
    outer loop
      vertex -1.54508 34.7553 0
      vertex -2.1289 34.5241 20
      vertex -1.54508 34.7553 20
    endloop
  endfacet
  facet normal -0.368192 0.92975 0
    outer loop
      vertex -2.1289 34.5241 20
      vertex -1.54508 34.7553 0
      vertex -2.1289 34.5241 0
    endloop
  endfacet
  facet normal -0.481752 -0.876308 0
    outer loop
      vertex -2.67913 -4.22164 0
      vertex -2.1289 -4.52413 20
      vertex -2.67913 -4.22164 20
    endloop
  endfacet
  facet normal -0.481752 -0.876308 -0
    outer loop
      vertex -2.1289 -4.52413 20
      vertex -2.67913 -4.22164 0
      vertex -2.1289 -4.52413 0
    endloop
  endfacet
  facet normal 0.481784 0.87629 -0
    outer loop
      vertex 32.6791 34.2216 0
      vertex 32.1289 34.5241 20
      vertex 32.6791 34.2216 20
    endloop
  endfacet
  facet normal 0.481784 0.87629 0
    outer loop
      vertex 32.1289 34.5241 20
      vertex 32.6791 34.2216 0
      vertex 32.1289 34.5241 0
    endloop
  endfacet
  facet normal 0.368203 0.929745 -0
    outer loop
      vertex 32.1289 34.5241 0
      vertex 31.5451 34.7553 20
      vertex 32.1289 34.5241 20
    endloop
  endfacet
  facet normal 0.368203 0.929745 0
    outer loop
      vertex 31.5451 34.7553 20
      vertex 32.1289 34.5241 0
      vertex 31.5451 34.7553 0
    endloop
  endfacet
  facet normal 0 0 -1
    outer loop
      vertex 30.314 -4.99013 0
      vertex 35 0 0
      vertex 34.9606 -0.626666 0
    endloop
  endfacet
  facet normal 0 0 -1
    outer loop
      vertex -5 0 0
      vertex 35 0 0
      vertex 30.314 -4.99013 0
    endloop
  endfacet
  facet normal 0 0 -1
    outer loop
      vertex 30.314 -4.99013 0
      vertex 34.9606 -0.626666 0
      vertex 34.8429 -1.24345 0
    endloop
  endfacet
  facet normal 0 0 -1
    outer loop
      vertex 35 0 0
      vertex -5 0 0
      vertex 35 30 0
    endloop
  endfacet
  facet normal 0 0 -1
    outer loop
      vertex 30.314 -4.99013 0
      vertex 34.8429 -1.24345 0
      vertex 34.6489 -1.84062 0
    endloop
  endfacet
  facet normal 0 0 -1
    outer loop
      vertex 35 30 0
      vertex 30.314 34.9901 0
      vertex 34.9606 30.6267 0
    endloop
  endfacet
  facet normal 0 0 -1
    outer loop
      vertex 30.314 -4.99013 0
      vertex 34.6489 -1.84062 0
      vertex 34.3815 -2.40877 0
    endloop
  endfacet
  facet normal 0 0 -1
    outer loop
      vertex 34.9606 30.6267 0
      vertex 30.314 34.9901 0
      vertex 34.8429 31.2435 0
    endloop
  endfacet
  facet normal 0 0 -1
    outer loop
      vertex 30.314 -4.99013 0
      vertex 34.3815 -2.40877 0
      vertex 34.0451 -2.93893 0
    endloop
  endfacet
  facet normal 0 0 -1
    outer loop
      vertex 34.8429 31.2435 0
      vertex 30.314 34.9901 0
      vertex 34.6489 31.8406 0
    endloop
  endfacet
  facet normal 0 0 -1
    outer loop
      vertex 30.314 -4.99013 0
      vertex 34.0451 -2.93893 0
      vertex 33.6448 -3.42274 0
    endloop
  endfacet
  facet normal 0 0 -1
    outer loop
      vertex 34.6489 31.8406 0
      vertex 30.314 34.9901 0
      vertex 34.3815 32.4088 0
    endloop
  endfacet
  facet normal 0 0 -1
    outer loop
      vertex 30.314 -4.99013 0
      vertex 33.6448 -3.42274 0
      vertex 33.1871 -3.85257 0
    endloop
  endfacet
  facet normal 0 0 -1
    outer loop
      vertex 34.3815 32.4088 0
      vertex 30.314 34.9901 0
      vertex 34.0451 32.9389 0
    endloop
  endfacet
  facet normal 0 0 -1
    outer loop
      vertex 30.314 -4.99013 0
      vertex 33.1871 -3.85257 0
      vertex 32.6791 -4.22164 0
    endloop
  endfacet
  facet normal 0 0 -1
    outer loop
      vertex 34.0451 32.9389 0
      vertex 30.314 34.9901 0
      vertex 33.6448 33.4227 0
    endloop
  endfacet
  facet normal 0 0 -1
    outer loop
      vertex 30.314 -4.99013 0
      vertex 32.6791 -4.22164 0
      vertex 32.1289 -4.52413 0
    endloop
  endfacet
  facet normal 0 0 -1
    outer loop
      vertex 33.6448 33.4227 0
      vertex 30.314 34.9901 0
      vertex 33.1871 33.8526 0
    endloop
  endfacet
  facet normal 0 0 -1
    outer loop
      vertex 30.314 -4.99013 0
      vertex 32.1289 -4.52413 0
      vertex 31.5451 -4.75528 0
    endloop
  endfacet
  facet normal 0 0 -1
    outer loop
      vertex 33.1871 33.8526 0
      vertex 30.314 34.9901 0
      vertex 32.6791 34.2216 0
    endloop
  endfacet
  facet normal 0 0 -1
    outer loop
      vertex 30.314 -4.99013 0
      vertex 31.5451 -4.75528 0
      vertex 30.9369 -4.91144 0
    endloop
  endfacet
  facet normal 0 0 -1
    outer loop
      vertex 32.6791 34.2216 0
      vertex 30.314 34.9901 0
      vertex 32.1289 34.5241 0
    endloop
  endfacet
  facet normal 0 0 -1
    outer loop
      vertex 32.1289 34.5241 0
      vertex 30.314 34.9901 0
      vertex 31.5451 34.7553 0
    endloop
  endfacet
  facet normal 0 0 -1
    outer loop
      vertex 31.5451 34.7553 0
      vertex 30.314 34.9901 0
      vertex 30.9369 34.9114 0
    endloop
  endfacet
  facet normal 0 0 -1
    outer loop
      vertex -5 0 0
      vertex 30.314 -4.99013 0
      vertex -0.313952 -4.99013 0
    endloop
  endfacet
  facet normal 0 0 -1
    outer loop
      vertex -5 30 0
      vertex 35 30 0
      vertex -5 0 0
    endloop
  endfacet
  facet normal 0 0 -1
    outer loop
      vertex -5 0 0
      vertex -0.313952 -4.99013 0
      vertex -0.936906 -4.91144 0
    endloop
  endfacet
  facet normal 0 0 -1
    outer loop
      vertex 35 30 0
      vertex -5 30 0
      vertex 30.314 34.9901 0
    endloop
  endfacet
  facet normal 0 0 -1
    outer loop
      vertex -5 0 0
      vertex -0.936906 -4.91144 0
      vertex -1.54508 -4.75528 0
    endloop
  endfacet
  facet normal -0 0 -1
    outer loop
      vertex 30.314 34.9901 0
      vertex -5 30 0
      vertex -0.313952 34.9901 0
    endloop
  endfacet
  facet normal 0 0 -1
    outer loop
      vertex -5 0 0
      vertex -1.54508 -4.75528 0
      vertex -2.1289 -4.52413 0
    endloop
  endfacet
  facet normal 0 0 -1
    outer loop
      vertex -0.313952 34.9901 0
      vertex -5 30 0
      vertex -0.936906 34.9114 0
    endloop
  endfacet
  facet normal 0 0 -1
    outer loop
      vertex -5 0 0
      vertex -2.1289 -4.52413 0
      vertex -2.67913 -4.22164 0
    endloop
  endfacet
  facet normal 0 0 -1
    outer loop
      vertex -0.936906 34.9114 0
      vertex -5 30 0
      vertex -1.54508 34.7553 0
    endloop
  endfacet
  facet normal 0 0 -1
    outer loop
      vertex -5 0 0
      vertex -2.67913 -4.22164 0
      vertex -3.18712 -3.85257 0
    endloop
  endfacet
  facet normal 0 0 -1
    outer loop
      vertex -1.54508 34.7553 0
      vertex -5 30 0
      vertex -2.1289 34.5241 0
    endloop
  endfacet
  facet normal 0 0 -1
    outer loop
      vertex -5 0 0
      vertex -3.18712 -3.85257 0
      vertex -3.64484 -3.42274 0
    endloop
  endfacet
  facet normal 0 0 -1
    outer loop
      vertex -2.1289 34.5241 0
      vertex -5 30 0
      vertex -2.67913 34.2216 0
    endloop
  endfacet
  facet normal 0 0 -1
    outer loop
      vertex -5 0 0
      vertex -3.64484 -3.42274 0
      vertex -4.04508 -2.93893 0
    endloop
  endfacet
  facet normal 0 0 -1
    outer loop
      vertex -2.67913 34.2216 0
      vertex -5 30 0
      vertex -3.18712 33.8526 0
    endloop
  endfacet
  facet normal 0 0 -1
    outer loop
      vertex -5 0 0
      vertex -4.04508 -2.93893 0
      vertex -4.38153 -2.40877 0
    endloop
  endfacet
  facet normal 0 0 -1
    outer loop
      vertex -3.18712 33.8526 0
      vertex -5 30 0
      vertex -3.64484 33.4227 0
    endloop
  endfacet
  facet normal 0 0 -1
    outer loop
      vertex -5 0 0
      vertex -4.38153 -2.40877 0
      vertex -4.64888 -1.84062 0
    endloop
  endfacet
  facet normal 0 0 -1
    outer loop
      vertex -3.64484 33.4227 0
      vertex -5 30 0
      vertex -4.04508 32.9389 0
    endloop
  endfacet
  facet normal 0 0 -1
    outer loop
      vertex -5 0 0
      vertex -4.64888 -1.84062 0
      vertex -4.84292 -1.24345 0
    endloop
  endfacet
  facet normal 0 0 -1
    outer loop
      vertex -4.04508 32.9389 0
      vertex -5 30 0
      vertex -4.38153 32.4088 0
    endloop
  endfacet
  facet normal 0 0 -1
    outer loop
      vertex -5 0 0
      vertex -4.84292 -1.24345 0
      vertex -4.96057 -0.626666 0
    endloop
  endfacet
  facet normal 0 0 -1
    outer loop
      vertex -4.38153 32.4088 0
      vertex -5 30 0
      vertex -4.64888 31.8406 0
    endloop
  endfacet
  facet normal 0 0 -1
    outer loop
      vertex -4.64888 31.8406 0
      vertex -5 30 0
      vertex -4.84292 31.2435 0
    endloop
  endfacet
  facet normal 0 0 -1
    outer loop
      vertex -4.84292 31.2435 0
      vertex -5 30 0
      vertex -4.96057 30.6267 0
    endloop
  endfacet
  facet normal -0.844328 -0.535827 0
    outer loop
      vertex -4.04508 -2.93893 0
      vertex -4.38153 -2.40877 20
      vertex -4.38153 -2.40877 0
    endloop
  endfacet
  facet normal -0.844328 -0.535827 0
    outer loop
      vertex -4.38153 -2.40877 20
      vertex -4.04508 -2.93893 0
      vertex -4.04508 -2.93893 20
    endloop
  endfacet
  facet normal -0.125322 -0.992116 0
    outer loop
      vertex -0.936906 -4.91144 0
      vertex -0.313952 -4.99013 20
      vertex -0.936906 -4.91144 20
    endloop
  endfacet
  facet normal -0.125322 -0.992116 -0
    outer loop
      vertex -0.313952 -4.99013 20
      vertex -0.936906 -4.91144 0
      vertex -0.313952 -4.99013 0
    endloop
  endfacet
  facet normal 0.587771 -0.809027 0
    outer loop
      vertex 32.6791 -4.22164 0
      vertex 33.1871 -3.85257 20
      vertex 32.6791 -4.22164 20
    endloop
  endfacet
  facet normal 0.587771 -0.809027 0
    outer loop
      vertex 33.1871 -3.85257 20
      vertex 32.6791 -4.22164 0
      vertex 33.1871 -3.85257 0
    endloop
  endfacet
  facet normal -0.125337 0.992114 0
    outer loop
      vertex -0.313952 34.9901 0
      vertex -0.936906 34.9114 20
      vertex -0.313952 34.9901 20
    endloop
  endfacet
  facet normal -0.125337 0.992114 0
    outer loop
      vertex -0.936906 34.9114 20
      vertex -0.313952 34.9901 0
      vertex -0.936906 34.9114 0
    endloop
  endfacet
  facet normal -0.951053 -0.309028 0
    outer loop
      vertex -4.64888 -1.84062 0
      vertex -4.84292 -1.24345 20
      vertex -4.84292 -1.24345 0
    endloop
  endfacet
  facet normal -0.951053 -0.309028 0
    outer loop
      vertex -4.84292 -1.24345 20
      vertex -4.64888 -1.84062 0
      vertex -4.64888 -1.84062 20
    endloop
  endfacet
  facet normal -0.481764 0.876301 0
    outer loop
      vertex -2.1289 34.5241 0
      vertex -2.67913 34.2216 20
      vertex -2.1289 34.5241 20
    endloop
  endfacet
  facet normal -0.481764 0.876301 0
    outer loop
      vertex -2.67913 34.2216 20
      vertex -2.1289 34.5241 0
      vertex -2.67913 34.2216 0
    endloop
  endfacet
  facet normal -0.587706 0.809075 0
    outer loop
      vertex -2.67913 34.2216 0
      vertex -3.18712 33.8526 20
      vertex -2.67913 34.2216 20
    endloop
  endfacet
  facet normal -0.587706 0.809075 0
    outer loop
      vertex -3.18712 33.8526 20
      vertex -2.67913 34.2216 0
      vertex -3.18712 33.8526 0
    endloop
  endfacet
  facet normal 0 0 1
    outer loop
      vertex 30.314 34.9901 20
      vertex 35 30 20
      vertex 34.9606 30.6267 20
    endloop
  endfacet
  facet normal 0 0 1
    outer loop
      vertex -5 30 20
      vertex 35 30 20
      vertex 30.314 34.9901 20
    endloop
  endfacet
  facet normal 0 0 1
    outer loop
      vertex 30.314 34.9901 20
      vertex 34.9606 30.6267 20
      vertex 34.8429 31.2435 20
    endloop
  endfacet
  facet normal 0 0 1
    outer loop
      vertex 35 30 20
      vertex -5 30 20
      vertex 35 0 20
    endloop
  endfacet
  facet normal 0 0 1
    outer loop
      vertex 30.314 34.9901 20
      vertex 34.8429 31.2435 20
      vertex 34.6489 31.8406 20
    endloop
  endfacet
  facet normal 0 0 1
    outer loop
      vertex 35 0 20
      vertex 30.314 -4.99013 20
      vertex 34.9606 -0.626666 20
    endloop
  endfacet
  facet normal 0 0 1
    outer loop
      vertex 30.314 34.9901 20
      vertex 34.6489 31.8406 20
      vertex 34.3815 32.4088 20
    endloop
  endfacet
  facet normal 0 0 1
    outer loop
      vertex 34.9606 -0.626666 20
      vertex 30.314 -4.99013 20
      vertex 34.8429 -1.24345 20
    endloop
  endfacet
  facet normal 0 0 1
    outer loop
      vertex 30.314 34.9901 20
      vertex 34.3815 32.4088 20
      vertex 34.0451 32.9389 20
    endloop
  endfacet
  facet normal 0 0 1
    outer loop
      vertex 34.8429 -1.24345 20
      vertex 30.314 -4.99013 20
      vertex 34.6489 -1.84062 20
    endloop
  endfacet
  facet normal 0 0 1
    outer loop
      vertex 30.314 34.9901 20
      vertex 34.0451 32.9389 20
      vertex 33.6448 33.4227 20
    endloop
  endfacet
  facet normal 0 0 1
    outer loop
      vertex 34.6489 -1.84062 20
      vertex 30.314 -4.99013 20
      vertex 34.3815 -2.40877 20
    endloop
  endfacet
  facet normal 0 0 1
    outer loop
      vertex 30.314 34.9901 20
      vertex 33.6448 33.4227 20
      vertex 33.1871 33.8526 20
    endloop
  endfacet
  facet normal 0 0 1
    outer loop
      vertex 34.3815 -2.40877 20
      vertex 30.314 -4.99013 20
      vertex 34.0451 -2.93893 20
    endloop
  endfacet
  facet normal 0 0 1
    outer loop
      vertex 30.314 34.9901 20
      vertex 33.1871 33.8526 20
      vertex 32.6791 34.2216 20
    endloop
  endfacet
  facet normal 0 0 1
    outer loop
      vertex 34.0451 -2.93893 20
      vertex 30.314 -4.99013 20
      vertex 33.6448 -3.42274 20
    endloop
  endfacet
  facet normal 0 0 1
    outer loop
      vertex 30.314 34.9901 20
      vertex 32.6791 34.2216 20
      vertex 32.1289 34.5241 20
    endloop
  endfacet
  facet normal 0 0 1
    outer loop
      vertex 33.6448 -3.42274 20
      vertex 30.314 -4.99013 20
      vertex 33.1871 -3.85257 20
    endloop
  endfacet
  facet normal 0 0 1
    outer loop
      vertex 30.314 34.9901 20
      vertex 32.1289 34.5241 20
      vertex 31.5451 34.7553 20
    endloop
  endfacet
  facet normal 0 0 1
    outer loop
      vertex 33.1871 -3.85257 20
      vertex 30.314 -4.99013 20
      vertex 32.6791 -4.22164 20
    endloop
  endfacet
  facet normal 0 0 1
    outer loop
      vertex 30.314 34.9901 20
      vertex 31.5451 34.7553 20
      vertex 30.9369 34.9114 20
    endloop
  endfacet
  facet normal 0 0 1
    outer loop
      vertex 32.6791 -4.22164 20
      vertex 30.314 -4.99013 20
      vertex 32.1289 -4.52413 20
    endloop
  endfacet
  facet normal 0 0 1
    outer loop
      vertex 32.1289 -4.52413 20
      vertex 30.314 -4.99013 20
      vertex 31.5451 -4.75528 20
    endloop
  endfacet
  facet normal 0 0 1
    outer loop
      vertex 31.5451 -4.75528 20
      vertex 30.314 -4.99013 20
      vertex 30.9369 -4.91144 20
    endloop
  endfacet
  facet normal 0 0 1
    outer loop
      vertex -5 30 20
      vertex 30.314 34.9901 20
      vertex -0.313952 34.9901 20
    endloop
  endfacet
  facet normal 0 0 1
    outer loop
      vertex -5 0 20
      vertex 35 0 20
      vertex -5 30 20
    endloop
  endfacet
  facet normal 0 0 1
    outer loop
      vertex -5 30 20
      vertex -0.313952 34.9901 20
      vertex -0.936906 34.9114 20
    endloop
  endfacet
  facet normal 0 0 1
    outer loop
      vertex 35 0 20
      vertex -5 0 20
      vertex 30.314 -4.99013 20
    endloop
  endfacet
  facet normal 0 0 1
    outer loop
      vertex -5 30 20
      vertex -0.936906 34.9114 20
      vertex -1.54508 34.7553 20
    endloop
  endfacet
  facet normal 0 0 1
    outer loop
      vertex 30.314 -4.99013 20
      vertex -5 0 20
      vertex -0.313952 -4.99013 20
    endloop
  endfacet
  facet normal 0 0 1
    outer loop
      vertex -5 30 20
      vertex -1.54508 34.7553 20
      vertex -2.1289 34.5241 20
    endloop
  endfacet
  facet normal 0 0 1
    outer loop
      vertex -0.313952 -4.99013 20
      vertex -5 0 20
      vertex -0.936906 -4.91144 20
    endloop
  endfacet
  facet normal 0 0 1
    outer loop
      vertex -5 30 20
      vertex -2.1289 34.5241 20
      vertex -2.67913 34.2216 20
    endloop
  endfacet
  facet normal 0 0 1
    outer loop
      vertex -0.936906 -4.91144 20
      vertex -5 0 20
      vertex -1.54508 -4.75528 20
    endloop
  endfacet
  facet normal 0 0 1
    outer loop
      vertex -5 30 20
      vertex -2.67913 34.2216 20
      vertex -3.18712 33.8526 20
    endloop
  endfacet
  facet normal 0 0 1
    outer loop
      vertex -1.54508 -4.75528 20
      vertex -5 0 20
      vertex -2.1289 -4.52413 20
    endloop
  endfacet
  facet normal 0 0 1
    outer loop
      vertex -5 30 20
      vertex -3.18712 33.8526 20
      vertex -3.64484 33.4227 20
    endloop
  endfacet
  facet normal 0 0 1
    outer loop
      vertex -2.1289 -4.52413 20
      vertex -5 0 20
      vertex -2.67913 -4.22164 20
    endloop
  endfacet
  facet normal 0 0 1
    outer loop
      vertex -5 30 20
      vertex -3.64484 33.4227 20
      vertex -4.04508 32.9389 20
    endloop
  endfacet
  facet normal 0 0 1
    outer loop
      vertex -2.67913 -4.22164 20
      vertex -5 0 20
      vertex -3.18712 -3.85257 20
    endloop
  endfacet
  facet normal 0 0 1
    outer loop
      vertex -5 30 20
      vertex -4.04508 32.9389 20
      vertex -4.38153 32.4088 20
    endloop
  endfacet
  facet normal 0 0 1
    outer loop
      vertex -3.18712 -3.85257 20
      vertex -5 0 20
      vertex -3.64484 -3.42274 20
    endloop
  endfacet
  facet normal 0 0 1
    outer loop
      vertex -5 30 20
      vertex -4.38153 32.4088 20
      vertex -4.64888 31.8406 20
    endloop
  endfacet
  facet normal 0 0 1
    outer loop
      vertex -3.64484 -3.42274 20
      vertex -5 0 20
      vertex -4.04508 -2.93893 20
    endloop
  endfacet
  facet normal 0 0 1
    outer loop
      vertex -5 30 20
      vertex -4.64888 31.8406 20
      vertex -4.84292 31.2435 20
    endloop
  endfacet
  facet normal 0 0 1
    outer loop
      vertex -4.04508 -2.93893 20
      vertex -5 0 20
      vertex -4.38153 -2.40877 20
    endloop
  endfacet
  facet normal 0 0 1
    outer loop
      vertex -5 30 20
      vertex -4.84292 31.2435 20
      vertex -4.96057 30.6267 20
    endloop
  endfacet
  facet normal 0 0 1
    outer loop
      vertex -4.38153 -2.40877 20
      vertex -5 0 20
      vertex -4.64888 -1.84062 20
    endloop
  endfacet
  facet normal 0 0 1
    outer loop
      vertex -4.64888 -1.84062 20
      vertex -5 0 20
      vertex -4.84292 -1.24345 20
    endloop
  endfacet
  facet normal 0 0 1
    outer loop
      vertex -4.84292 -1.24345 20
      vertex -5 0 20
      vertex -4.96057 -0.626666 20
    endloop
  endfacet
  facet normal 0.844364 -0.53577 0
    outer loop
      vertex 34.0451 -2.93893 20
      vertex 34.3815 -2.40877 0
      vertex 34.3815 -2.40877 20
    endloop
  endfacet
  facet normal 0.844364 -0.53577 0
    outer loop
      vertex 34.3815 -2.40877 0
      vertex 34.0451 -2.93893 20
      vertex 34.0451 -2.93893 0
    endloop
  endfacet
endsolid OpenSCAD_Model
