solid OpenSCAD_Model
  facet normal -0.982333 0 -0.187139
    outer loop
      vertex -17.0237 -12 -0.624
      vertex -17.0942 0 -0.25393
      vertex -17.0237 0 -0.624
    endloop
  endfacet
  facet normal -0.982333 -0 -0.187139
    outer loop
      vertex -17.0942 0 -0.25393
      vertex -17.0237 -12 -0.624
      vertex -17.0942 -12 -0.25393
    endloop
  endfacet
  facet normal -0.998019 0 -0.0629071
    outer loop
      vertex -17 -12 -1
      vertex -17.0237 0 -0.624
      vertex -17 0 -1
    endloop
  endfacet
  facet normal -0.998019 -0 -0.0629071
    outer loop
      vertex -17.0237 0 -0.624
      vertex -17 -12 -1
      vertex -17.0237 -12 -0.624
    endloop
  endfacet
  facet normal -0.368207 0 0.929744
    outer loop
      vertex -19.0729 0 -3.85317
      vertex -18.7227 -12 -3.71448
      vertex -18.7227 0 -3.71448
    endloop
  endfacet
  facet normal -0.368207 0 0.929744
    outer loop
      vertex -18.7227 -12 -3.71448
      vertex -19.0729 0 -3.85317
      vertex -19.0729 -12 -3.85317
    endloop
  endfacet
  facet normal -0.684594 0 -0.728924
    outer loop
      vertex -18.0877 -12 1.31154
      vertex -17.8131 0 1.05364
      vertex -17.8131 -12 1.05364
    endloop
  endfacet
  facet normal -0.684594 0 -0.728924
    outer loop
      vertex -17.8131 0 1.05364
      vertex -18.0877 -12 1.31154
      vertex -18.0877 0 1.31154
    endloop
  endfacet
  facet normal -0 0 1
    outer loop
      vertex -20.1884 0 -3.99408
      vertex -19.8116 -12 -3.99408
      vertex -19.8116 0 -3.99408
    endloop
  endfacet
  facet normal 0 0 1
    outer loop
      vertex -19.8116 -12 -3.99408
      vertex -20.1884 0 -3.99408
      vertex -20.1884 -12 -3.99408
    endloop
  endfacet
  facet normal 0 0 -1
    outer loop
      vertex -20.1884 -12 1.99408
      vertex -19.8116 0 1.99408
      vertex -19.8116 -12 1.99408
    endloop
  endfacet
  facet normal -0 0 -1
    outer loop
      vertex -19.8116 0 1.99408
      vertex -20.1884 -12 1.99408
      vertex -20.1884 0 1.99408
    endloop
  endfacet
  facet normal -0.587768 0 -0.80903
    outer loop
      vertex -18.3925 -12 1.53298
      vertex -18.0877 0 1.31154
      vertex -18.0877 -12 1.31154
    endloop
  endfacet
  facet normal -0.587768 0 -0.80903
    outer loop
      vertex -18.0877 0 1.31154
      vertex -18.3925 -12 1.53298
      vertex -18.3925 0 1.53298
    endloop
  endfacet
  facet normal 0.844415 -0 0.53569
    outer loop
      vertex -22.6289 -12 -2.44526
      vertex -22.4271 0 -2.76336
      vertex -22.6289 0 -2.44526
    endloop
  endfacet
  facet normal 0.844415 0 0.53569
    outer loop
      vertex -22.4271 0 -2.76336
      vertex -22.6289 -12 -2.44526
      vertex -22.4271 -12 -2.76336
    endloop
  endfacet
  facet normal -0.248625 0 0.9686
    outer loop
      vertex -19.4379 0 -3.94686
      vertex -19.0729 -12 -3.85317
      vertex -19.0729 0 -3.85317
    endloop
  endfacet
  facet normal -0.248625 0 0.9686
    outer loop
      vertex -19.0729 -12 -3.85317
      vertex -19.4379 0 -3.94686
      vertex -19.4379 -12 -3.94686
    endloop
  endfacet
  facet normal -0.481695 0 0.876339
    outer loop
      vertex -18.7227 0 -3.71448
      vertex -18.3925 -12 -3.53298
      vertex -18.3925 0 -3.53298
    endloop
  endfacet
  facet normal -0.481695 0 0.876339
    outer loop
      vertex -18.3925 -12 -3.53298
      vertex -18.7227 0 -3.71448
      vertex -18.7227 -12 -3.71448
    endloop
  endfacet
  facet normal 0.950994 0 -0.30921
    outer loop
      vertex -22.7893 -12 0.104373
      vertex -22.9058 0 -0.25393
      vertex -22.7893 0 0.104373
    endloop
  endfacet
  facet normal 0.950994 0 -0.30921
    outer loop
      vertex -22.9058 0 -0.25393
      vertex -22.7893 -12 0.104373
      vertex -22.9058 -12 -0.25393
    endloop
  endfacet
  facet normal -0.904838 0 0.425756
    outer loop
      vertex -17.3711 -12 -2.44526
      vertex -17.2107 0 -2.10437
      vertex -17.3711 0 -2.44526
    endloop
  endfacet
  facet normal -0.904838 0 0.425756
    outer loop
      vertex -17.2107 0 -2.10437
      vertex -17.3711 -12 -2.44526
      vertex -17.2107 -12 -2.10437
    endloop
  endfacet
  facet normal 0.125361 0 0.992111
    outer loop
      vertex -20.5621 0 -3.94686
      vertex -20.1884 -12 -3.99408
      vertex -20.1884 0 -3.99408
    endloop
  endfacet
  facet normal 0.125361 0 0.992111
    outer loop
      vertex -20.1884 -12 -3.99408
      vertex -20.5621 0 -3.94686
      vertex -20.5621 -12 -3.94686
    endloop
  endfacet
  facet normal 0.368207 0 0.929744
    outer loop
      vertex -21.2773 0 -3.71448
      vertex -20.9271 -12 -3.85317
      vertex -20.9271 0 -3.85317
    endloop
  endfacet
  facet normal 0.368207 0 0.929744
    outer loop
      vertex -20.9271 -12 -3.85317
      vertex -21.2773 0 -3.71448
      vertex -21.2773 -12 -3.71448
    endloop
  endfacet
  facet normal 0.587768 0 0.80903
    outer loop
      vertex -21.9123 0 -3.31154
      vertex -21.6075 -12 -3.53298
      vertex -21.6075 0 -3.53298
    endloop
  endfacet
  facet normal 0.587768 0 0.80903
    outer loop
      vertex -21.6075 -12 -3.53298
      vertex -21.9123 0 -3.31154
      vertex -21.9123 -12 -3.31154
    endloop
  endfacet
  facet normal -0.950993 0 0.309212
    outer loop
      vertex -17.2107 -12 -2.10437
      vertex -17.0942 0 -1.74607
      vertex -17.2107 0 -2.10437
    endloop
  endfacet
  facet normal -0.950993 0 0.309212
    outer loop
      vertex -17.0942 0 -1.74607
      vertex -17.2107 -12 -2.10437
      vertex -17.0942 -12 -1.74607
    endloop
  endfacet
  facet normal 0.998019 0 -0.0629071
    outer loop
      vertex -22.9763 -12 -0.624
      vertex -23 0 -1
      vertex -22.9763 0 -0.624
    endloop
  endfacet
  facet normal 0.998019 0 -0.0629071
    outer loop
      vertex -23 0 -1
      vertex -22.9763 -12 -0.624
      vertex -23 -12 -1
    endloop
  endfacet
  facet normal 0.684594 0 -0.728924
    outer loop
      vertex -22.1869 -12 1.05364
      vertex -21.9123 0 1.31154
      vertex -21.9123 -12 1.31154
    endloop
  endfacet
  facet normal 0.684594 0 -0.728924
    outer loop
      vertex -21.9123 0 1.31154
      vertex -22.1869 -12 1.05364
      vertex -22.1869 0 1.05364
    endloop
  endfacet
  facet normal -0.84441 0 -0.535697
    outer loop
      vertex -17.3711 -12 0.445261
      vertex -17.5729 0 0.763355
      vertex -17.3711 0 0.445261
    endloop
  endfacet
  facet normal -0.84441 -0 -0.535697
    outer loop
      vertex -17.5729 0 0.763355
      vertex -17.3711 -12 0.445261
      vertex -17.5729 -12 0.763355
    endloop
  endfacet
  facet normal -0.684594 0 0.728924
    outer loop
      vertex -18.0877 0 -3.31154
      vertex -17.8131 -12 -3.05364
      vertex -17.8131 0 -3.05364
    endloop
  endfacet
  facet normal -0.684594 0 0.728924
    outer loop
      vertex -17.8131 -12 -3.05364
      vertex -18.0877 0 -3.31154
      vertex -18.0877 -12 -3.31154
    endloop
  endfacet
  facet normal -0.982333 0 0.187139
    outer loop
      vertex -17.0942 -12 -1.74607
      vertex -17.0237 0 -1.376
      vertex -17.0942 0 -1.74607
    endloop
  endfacet
  facet normal -0.982333 0 0.187139
    outer loop
      vertex -17.0237 0 -1.376
      vertex -17.0942 -12 -1.74607
      vertex -17.0237 -12 -1.376
    endloop
  endfacet
  facet normal -0.368207 0 -0.929744
    outer loop
      vertex -19.0729 -12 1.85317
      vertex -18.7227 0 1.71448
      vertex -18.7227 -12 1.71448
    endloop
  endfacet
  facet normal -0.368207 0 -0.929744
    outer loop
      vertex -18.7227 0 1.71448
      vertex -19.0729 -12 1.85317
      vertex -19.0729 0 1.85317
    endloop
  endfacet
  facet normal -0.481695 0 -0.876339
    outer loop
      vertex -18.7227 -12 1.71448
      vertex -18.3925 0 1.53298
      vertex -18.3925 -12 1.53298
    endloop
  endfacet
  facet normal -0.481695 0 -0.876339
    outer loop
      vertex -18.3925 0 1.53298
      vertex -18.7227 -12 1.71448
      vertex -18.7227 0 1.71448
    endloop
  endfacet
  facet normal -0.587768 0 0.80903
    outer loop
      vertex -18.3925 0 -3.53298
      vertex -18.0877 -12 -3.31154
      vertex -18.0877 0 -3.31154
    endloop
  endfacet
  facet normal -0.587768 0 0.80903
    outer loop
      vertex -18.0877 -12 -3.31154
      vertex -18.3925 0 -3.53298
      vertex -18.3925 -12 -3.53298
    endloop
  endfacet
  facet normal 0.368207 0 -0.929744
    outer loop
      vertex -21.2773 -12 1.71448
      vertex -20.9271 0 1.85317
      vertex -20.9271 -12 1.85317
    endloop
  endfacet
  facet normal 0.368207 0 -0.929744
    outer loop
      vertex -20.9271 0 1.85317
      vertex -21.2773 -12 1.71448
      vertex -21.2773 0 1.71448
    endloop
  endfacet
  facet normal -0.904837 0 -0.425758
    outer loop
      vertex -17.2107 -12 0.104373
      vertex -17.3711 0 0.445261
      vertex -17.2107 0 0.104373
    endloop
  endfacet
  facet normal -0.904837 -0 -0.425758
    outer loop
      vertex -17.3711 0 0.445261
      vertex -17.2107 -12 0.104373
      vertex -17.3711 -12 0.445261
    endloop
  endfacet
  facet normal -0.248625 0 -0.9686
    outer loop
      vertex -19.4379 -12 1.94686
      vertex -19.0729 0 1.85317
      vertex -19.0729 -12 1.85317
    endloop
  endfacet
  facet normal -0.248625 0 -0.9686
    outer loop
      vertex -19.0729 0 1.85317
      vertex -19.4379 -12 1.94686
      vertex -19.4379 0 1.94686
    endloop
  endfacet
  facet normal -0.844415 0 0.53569
    outer loop
      vertex -17.5729 -12 -2.76336
      vertex -17.3711 0 -2.44526
      vertex -17.5729 0 -2.76336
    endloop
  endfacet
  facet normal -0.844415 0 0.53569
    outer loop
      vertex -17.3711 0 -2.44526
      vertex -17.5729 -12 -2.76336
      vertex -17.3711 -12 -2.44526
    endloop
  endfacet
  facet normal 0.684594 0 0.728924
    outer loop
      vertex -22.1869 0 -3.05364
      vertex -21.9123 -12 -3.31154
      vertex -21.9123 0 -3.31154
    endloop
  endfacet
  facet normal 0.684594 0 0.728924
    outer loop
      vertex -21.9123 -12 -3.31154
      vertex -22.1869 0 -3.05364
      vertex -22.1869 -12 -3.05364
    endloop
  endfacet
  facet normal -0.950994 0 -0.30921
    outer loop
      vertex -17.0942 -12 -0.25393
      vertex -17.2107 0 0.104373
      vertex -17.0942 0 -0.25393
    endloop
  endfacet
  facet normal -0.950994 -0 -0.30921
    outer loop
      vertex -17.2107 0 0.104373
      vertex -17.0942 -12 -0.25393
      vertex -17.2107 -12 0.104373
    endloop
  endfacet
  facet normal 0.481695 0 -0.876339
    outer loop
      vertex -21.6075 -12 1.53298
      vertex -21.2773 0 1.71448
      vertex -21.2773 -12 1.71448
    endloop
  endfacet
  facet normal 0.481695 0 -0.876339
    outer loop
      vertex -21.2773 0 1.71448
      vertex -21.6075 -12 1.53298
      vertex -21.6075 0 1.53298
    endloop
  endfacet
  facet normal 0.904838 -0 0.425756
    outer loop
      vertex -22.7893 -12 -2.10437
      vertex -22.6289 0 -2.44526
      vertex -22.7893 0 -2.10437
    endloop
  endfacet
  facet normal 0.904838 0 0.425756
    outer loop
      vertex -22.6289 0 -2.44526
      vertex -22.7893 -12 -2.10437
      vertex -22.6289 -12 -2.44526
    endloop
  endfacet
  facet normal 0.904837 0 -0.425758
    outer loop
      vertex -22.6289 -12 0.445261
      vertex -22.7893 0 0.104373
      vertex -22.6289 0 0.445261
    endloop
  endfacet
  facet normal 0.904837 0 -0.425758
    outer loop
      vertex -22.7893 0 0.104373
      vertex -22.6289 -12 0.445261
      vertex -22.7893 -12 0.104373
    endloop
  endfacet
  facet normal -0.125361 0 0.992111
    outer loop
      vertex -19.8116 0 -3.99408
      vertex -19.4379 -12 -3.94686
      vertex -19.4379 0 -3.94686
    endloop
  endfacet
  facet normal -0.125361 0 0.992111
    outer loop
      vertex -19.4379 -12 -3.94686
      vertex -19.8116 0 -3.99408
      vertex -19.8116 -12 -3.99408
    endloop
  endfacet
  facet normal 0.950993 -0 0.309212
    outer loop
      vertex -22.9058 -12 -1.74607
      vertex -22.7893 0 -2.10437
      vertex -22.9058 0 -1.74607
    endloop
  endfacet
  facet normal 0.950993 0 0.309212
    outer loop
      vertex -22.7893 0 -2.10437
      vertex -22.9058 -12 -1.74607
      vertex -22.7893 -12 -2.10437
    endloop
  endfacet
  facet normal 0.248625 0 0.9686
    outer loop
      vertex -20.9271 0 -3.85317
      vertex -20.5621 -12 -3.94686
      vertex -20.5621 0 -3.94686
    endloop
  endfacet
  facet normal 0.248625 0 0.9686
    outer loop
      vertex -20.5621 -12 -3.94686
      vertex -20.9271 0 -3.85317
      vertex -20.9271 -12 -3.85317
    endloop
  endfacet
  facet normal -0.998019 0 0.0629071
    outer loop
      vertex -17.0237 -12 -1.376
      vertex -17 0 -1
      vertex -17.0237 0 -1.376
    endloop
  endfacet
  facet normal -0.998019 0 0.0629071
    outer loop
      vertex -17 0 -1
      vertex -17.0237 -12 -1.376
      vertex -17 -12 -1
    endloop
  endfacet
  facet normal 0.248625 0 -0.9686
    outer loop
      vertex -20.9271 -12 1.85317
      vertex -20.5621 0 1.94686
      vertex -20.5621 -12 1.94686
    endloop
  endfacet
  facet normal 0.248625 0 -0.9686
    outer loop
      vertex -20.5621 0 1.94686
      vertex -20.9271 -12 1.85317
      vertex -20.9271 0 1.85317
    endloop
  endfacet
  facet normal 0.982333 0 -0.187139
    outer loop
      vertex -22.9058 -12 -0.25393
      vertex -22.9763 0 -0.624
      vertex -22.9058 0 -0.25393
    endloop
  endfacet
  facet normal 0.982333 0 -0.187139
    outer loop
      vertex -22.9763 0 -0.624
      vertex -22.9058 -12 -0.25393
      vertex -22.9763 -12 -0.624
    endloop
  endfacet
  facet normal 0.587768 0 -0.80903
    outer loop
      vertex -21.9123 -12 1.31154
      vertex -21.6075 0 1.53298
      vertex -21.6075 -12 1.53298
    endloop
  endfacet
  facet normal 0.587768 0 -0.80903
    outer loop
      vertex -21.6075 0 1.53298
      vertex -21.9123 -12 1.31154
      vertex -21.9123 0 1.31154
    endloop
  endfacet
  facet normal -0.770441 0 -0.637511
    outer loop
      vertex -17.5729 -12 0.763355
      vertex -17.8131 0 1.05364
      vertex -17.5729 0 0.763355
    endloop
  endfacet
  facet normal -0.770441 -0 -0.637511
    outer loop
      vertex -17.8131 0 1.05364
      vertex -17.5729 -12 0.763355
      vertex -17.8131 -12 1.05364
    endloop
  endfacet
  facet normal 0.998019 -0 0.0629071
    outer loop
      vertex -23 -12 -1
      vertex -22.9763 0 -1.376
      vertex -23 0 -1
    endloop
  endfacet
  facet normal 0.998019 0 0.0629071
    outer loop
      vertex -22.9763 0 -1.376
      vertex -23 -12 -1
      vertex -22.9763 -12 -1.376
    endloop
  endfacet
  facet normal -0.770436 0 0.637518
    outer loop
      vertex -17.8131 -12 -3.05364
      vertex -17.5729 0 -2.76336
      vertex -17.8131 0 -3.05364
    endloop
  endfacet
  facet normal -0.770436 0 0.637518
    outer loop
      vertex -17.5729 0 -2.76336
      vertex -17.8131 -12 -3.05364
      vertex -17.5729 -12 -2.76336
    endloop
  endfacet
  facet normal 0.125361 0 -0.992111
    outer loop
      vertex -20.5621 -12 1.94686
      vertex -20.1884 0 1.99408
      vertex -20.1884 -12 1.99408
    endloop
  endfacet
  facet normal 0.125361 0 -0.992111
    outer loop
      vertex -20.1884 0 1.99408
      vertex -20.5621 -12 1.94686
      vertex -20.5621 0 1.94686
    endloop
  endfacet
  facet normal -0.125361 0 -0.992111
    outer loop
      vertex -19.8116 -12 1.99408
      vertex -19.4379 0 1.94686
      vertex -19.4379 -12 1.94686
    endloop
  endfacet
  facet normal -0.125361 0 -0.992111
    outer loop
      vertex -19.4379 0 1.94686
      vertex -19.8116 -12 1.99408
      vertex -19.8116 0 1.99408
    endloop
  endfacet
  facet normal 0 -1 0
    outer loop
      vertex -20.5621 0 1.94686
      vertex -19.8116 0 1.99408
      vertex -20.1884 0 1.99408
    endloop
  endfacet
  facet normal 0 -1 0
    outer loop
      vertex -20.5621 0 1.94686
      vertex -19.4379 0 1.94686
      vertex -19.8116 0 1.99408
    endloop
  endfacet
  facet normal 0 -1 0
    outer loop
      vertex -20.9271 0 1.85317
      vertex -19.4379 0 1.94686
      vertex -20.5621 0 1.94686
    endloop
  endfacet
  facet normal 0 -1 0
    outer loop
      vertex -20.9271 0 1.85317
      vertex -19.0729 0 1.85317
      vertex -19.4379 0 1.94686
    endloop
  endfacet
  facet normal 0 -1 0
    outer loop
      vertex -21.2773 0 1.71448
      vertex -19.0729 0 1.85317
      vertex -20.9271 0 1.85317
    endloop
  endfacet
  facet normal 0 -1 0
    outer loop
      vertex -21.2773 0 1.71448
      vertex -18.7227 0 1.71448
      vertex -19.0729 0 1.85317
    endloop
  endfacet
  facet normal 0 -1 0
    outer loop
      vertex -21.6075 0 1.53298
      vertex -18.7227 0 1.71448
      vertex -21.2773 0 1.71448
    endloop
  endfacet
  facet normal 0 -1 0
    outer loop
      vertex -21.6075 0 1.53298
      vertex -18.3925 0 1.53298
      vertex -18.7227 0 1.71448
    endloop
  endfacet
  facet normal 0 -1 0
    outer loop
      vertex -21.9123 0 1.31154
      vertex -18.3925 0 1.53298
      vertex -21.6075 0 1.53298
    endloop
  endfacet
  facet normal 0 -1 0
    outer loop
      vertex -21.9123 0 1.31154
      vertex -18.0877 0 1.31154
      vertex -18.3925 0 1.53298
    endloop
  endfacet
  facet normal 0 -1 0
    outer loop
      vertex -22.1869 0 1.05364
      vertex -18.0877 0 1.31154
      vertex -21.9123 0 1.31154
    endloop
  endfacet
  facet normal 0 -1 0
    outer loop
      vertex -22.1869 0 1.05364
      vertex -17.8131 0 1.05364
      vertex -18.0877 0 1.31154
    endloop
  endfacet
  facet normal 0 -1 0
    outer loop
      vertex -22.4271 0 0.763355
      vertex -17.8131 0 1.05364
      vertex -22.1869 0 1.05364
    endloop
  endfacet
  facet normal 0 -1 0
    outer loop
      vertex -22.4271 0 0.763355
      vertex -17.5729 0 0.763355
      vertex -17.8131 0 1.05364
    endloop
  endfacet
  facet normal 0 -1 0
    outer loop
      vertex -22.6289 0 0.445261
      vertex -17.5729 0 0.763355
      vertex -22.4271 0 0.763355
    endloop
  endfacet
  facet normal 0 -1 0
    outer loop
      vertex -22.6289 0 0.445261
      vertex -17.3711 0 0.445261
      vertex -17.5729 0 0.763355
    endloop
  endfacet
  facet normal 0 -1 0
    outer loop
      vertex -22.7893 0 0.104373
      vertex -17.3711 0 0.445261
      vertex -22.6289 0 0.445261
    endloop
  endfacet
  facet normal 0 -1 0
    outer loop
      vertex -22.7893 0 0.104373
      vertex -17.2107 0 0.104373
      vertex -17.3711 0 0.445261
    endloop
  endfacet
  facet normal 0 -1 0
    outer loop
      vertex -22.9058 0 -0.25393
      vertex -17.2107 0 0.104373
      vertex -22.7893 0 0.104373
    endloop
  endfacet
  facet normal 0 -1 0
    outer loop
      vertex -22.9058 0 -0.25393
      vertex -17.0942 0 -0.25393
      vertex -17.2107 0 0.104373
    endloop
  endfacet
  facet normal 0 -1 0
    outer loop
      vertex -22.9763 0 -0.624
      vertex -17.0942 0 -0.25393
      vertex -22.9058 0 -0.25393
    endloop
  endfacet
  facet normal 0 -1 0
    outer loop
      vertex -22.9763 0 -0.624
      vertex -17.0237 0 -0.624
      vertex -17.0942 0 -0.25393
    endloop
  endfacet
  facet normal 0 -1 0
    outer loop
      vertex -23 0 -1
      vertex -17.0237 0 -0.624
      vertex -22.9763 0 -0.624
    endloop
  endfacet
  facet normal 0 -1 0
    outer loop
      vertex -23 0 -1
      vertex -17 0 -1
      vertex -17.0237 0 -0.624
    endloop
  endfacet
  facet normal 0 -1 0
    outer loop
      vertex -22.9763 0 -1.376
      vertex -17 0 -1
      vertex -23 0 -1
    endloop
  endfacet
  facet normal 0 -1 0
    outer loop
      vertex -22.9763 0 -1.376
      vertex -17.0237 0 -1.376
      vertex -17 0 -1
    endloop
  endfacet
  facet normal 0 -1 0
    outer loop
      vertex -22.9058 0 -1.74607
      vertex -17.0237 0 -1.376
      vertex -22.9763 0 -1.376
    endloop
  endfacet
  facet normal 0 -1 0
    outer loop
      vertex -22.9058 0 -1.74607
      vertex -17.0942 0 -1.74607
      vertex -17.0237 0 -1.376
    endloop
  endfacet
  facet normal 0 -1 0
    outer loop
      vertex -22.7893 0 -2.10437
      vertex -17.0942 0 -1.74607
      vertex -22.9058 0 -1.74607
    endloop
  endfacet
  facet normal 0 -1 0
    outer loop
      vertex -22.7893 0 -2.10437
      vertex -17.2107 0 -2.10437
      vertex -17.0942 0 -1.74607
    endloop
  endfacet
  facet normal 0 -1 0
    outer loop
      vertex -22.6289 0 -2.44526
      vertex -17.2107 0 -2.10437
      vertex -22.7893 0 -2.10437
    endloop
  endfacet
  facet normal 0 -1 0
    outer loop
      vertex -22.6289 0 -2.44526
      vertex -17.3711 0 -2.44526
      vertex -17.2107 0 -2.10437
    endloop
  endfacet
  facet normal 0 -1 0
    outer loop
      vertex -22.4271 0 -2.76336
      vertex -17.3711 0 -2.44526
      vertex -22.6289 0 -2.44526
    endloop
  endfacet
  facet normal 0 -1 0
    outer loop
      vertex -22.4271 0 -2.76336
      vertex -17.5729 0 -2.76336
      vertex -17.3711 0 -2.44526
    endloop
  endfacet
  facet normal 0 -1 0
    outer loop
      vertex -22.1869 0 -3.05364
      vertex -17.5729 0 -2.76336
      vertex -22.4271 0 -2.76336
    endloop
  endfacet
  facet normal 0 -1 0
    outer loop
      vertex -22.1869 0 -3.05364
      vertex -17.8131 0 -3.05364
      vertex -17.5729 0 -2.76336
    endloop
  endfacet
  facet normal 0 -1 0
    outer loop
      vertex -21.9123 0 -3.31154
      vertex -17.8131 0 -3.05364
      vertex -22.1869 0 -3.05364
    endloop
  endfacet
  facet normal 0 -1 0
    outer loop
      vertex -21.9123 0 -3.31154
      vertex -18.0877 0 -3.31154
      vertex -17.8131 0 -3.05364
    endloop
  endfacet
  facet normal 0 -1 0
    outer loop
      vertex -21.6075 0 -3.53298
      vertex -18.0877 0 -3.31154
      vertex -21.9123 0 -3.31154
    endloop
  endfacet
  facet normal 0 -1 0
    outer loop
      vertex -21.6075 0 -3.53298
      vertex -18.3925 0 -3.53298
      vertex -18.0877 0 -3.31154
    endloop
  endfacet
  facet normal 0 -1 0
    outer loop
      vertex -21.2773 0 -3.71448
      vertex -18.3925 0 -3.53298
      vertex -21.6075 0 -3.53298
    endloop
  endfacet
  facet normal 0 -1 0
    outer loop
      vertex -21.2773 0 -3.71448
      vertex -18.7227 0 -3.71448
      vertex -18.3925 0 -3.53298
    endloop
  endfacet
  facet normal 0 -1 0
    outer loop
      vertex -20.9271 0 -3.85317
      vertex -18.7227 0 -3.71448
      vertex -21.2773 0 -3.71448
    endloop
  endfacet
  facet normal 0 -1 0
    outer loop
      vertex -20.9271 0 -3.85317
      vertex -19.0729 0 -3.85317
      vertex -18.7227 0 -3.71448
    endloop
  endfacet
  facet normal 0 -1 0
    outer loop
      vertex -20.5621 0 -3.94686
      vertex -19.0729 0 -3.85317
      vertex -20.9271 0 -3.85317
    endloop
  endfacet
  facet normal 0 -1 0
    outer loop
      vertex -20.5621 0 -3.94686
      vertex -19.4379 0 -3.94686
      vertex -19.0729 0 -3.85317
    endloop
  endfacet
  facet normal 0 -1 0
    outer loop
      vertex -20.1884 0 -3.99408
      vertex -19.4379 0 -3.94686
      vertex -20.5621 0 -3.94686
    endloop
  endfacet
  facet normal 0 -1 0
    outer loop
      vertex -19.4379 0 -3.94686
      vertex -20.1884 0 -3.99408
      vertex -19.8116 0 -3.99408
    endloop
  endfacet
  facet normal 0.982333 -0 0.187139
    outer loop
      vertex -22.9763 -12 -1.376
      vertex -22.9058 0 -1.74607
      vertex -22.9763 0 -1.376
    endloop
  endfacet
  facet normal 0.982333 0 0.187139
    outer loop
      vertex -22.9058 0 -1.74607
      vertex -22.9763 -12 -1.376
      vertex -22.9058 -12 -1.74607
    endloop
  endfacet
  facet normal 0.84441 0 -0.535697
    outer loop
      vertex -22.4271 -12 0.763355
      vertex -22.6289 0 0.445261
      vertex -22.4271 0 0.763355
    endloop
  endfacet
  facet normal 0.84441 0 -0.535697
    outer loop
      vertex -22.6289 0 0.445261
      vertex -22.4271 -12 0.763355
      vertex -22.6289 -12 0.445261
    endloop
  endfacet
  facet normal 0 1 0
    outer loop
      vertex -19.4379 -12 1.94686
      vertex -20.1884 -12 1.99408
      vertex -19.8116 -12 1.99408
    endloop
  endfacet
  facet normal 0 1 0
    outer loop
      vertex -19.4379 -12 1.94686
      vertex -20.5621 -12 1.94686
      vertex -20.1884 -12 1.99408
    endloop
  endfacet
  facet normal 0 1 0
    outer loop
      vertex -19.0729 -12 1.85317
      vertex -20.5621 -12 1.94686
      vertex -19.4379 -12 1.94686
    endloop
  endfacet
  facet normal 0 1 0
    outer loop
      vertex -19.0729 -12 1.85317
      vertex -20.9271 -12 1.85317
      vertex -20.5621 -12 1.94686
    endloop
  endfacet
  facet normal 0 1 0
    outer loop
      vertex -18.7227 -12 1.71448
      vertex -20.9271 -12 1.85317
      vertex -19.0729 -12 1.85317
    endloop
  endfacet
  facet normal 0 1 0
    outer loop
      vertex -18.7227 -12 1.71448
      vertex -21.2773 -12 1.71448
      vertex -20.9271 -12 1.85317
    endloop
  endfacet
  facet normal 0 1 0
    outer loop
      vertex -18.3925 -12 1.53298
      vertex -21.2773 -12 1.71448
      vertex -18.7227 -12 1.71448
    endloop
  endfacet
  facet normal 0 1 0
    outer loop
      vertex -18.3925 -12 1.53298
      vertex -21.6075 -12 1.53298
      vertex -21.2773 -12 1.71448
    endloop
  endfacet
  facet normal 0 1 0
    outer loop
      vertex -18.0877 -12 1.31154
      vertex -21.6075 -12 1.53298
      vertex -18.3925 -12 1.53298
    endloop
  endfacet
  facet normal 0 1 0
    outer loop
      vertex -18.0877 -12 1.31154
      vertex -21.9123 -12 1.31154
      vertex -21.6075 -12 1.53298
    endloop
  endfacet
  facet normal 0 1 0
    outer loop
      vertex -17.8131 -12 1.05364
      vertex -21.9123 -12 1.31154
      vertex -18.0877 -12 1.31154
    endloop
  endfacet
  facet normal 0 1 0
    outer loop
      vertex -17.8131 -12 1.05364
      vertex -22.1869 -12 1.05364
      vertex -21.9123 -12 1.31154
    endloop
  endfacet
  facet normal 0 1 0
    outer loop
      vertex -17.5729 -12 0.763355
      vertex -22.1869 -12 1.05364
      vertex -17.8131 -12 1.05364
    endloop
  endfacet
  facet normal 0 1 0
    outer loop
      vertex -17.5729 -12 0.763355
      vertex -22.4271 -12 0.763355
      vertex -22.1869 -12 1.05364
    endloop
  endfacet
  facet normal 0 1 0
    outer loop
      vertex -17.3711 -12 0.445261
      vertex -22.4271 -12 0.763355
      vertex -17.5729 -12 0.763355
    endloop
  endfacet
  facet normal 0 1 0
    outer loop
      vertex -17.3711 -12 0.445261
      vertex -22.6289 -12 0.445261
      vertex -22.4271 -12 0.763355
    endloop
  endfacet
  facet normal 0 1 0
    outer loop
      vertex -17.2107 -12 0.104373
      vertex -22.6289 -12 0.445261
      vertex -17.3711 -12 0.445261
    endloop
  endfacet
  facet normal 0 1 0
    outer loop
      vertex -17.2107 -12 0.104373
      vertex -22.7893 -12 0.104373
      vertex -22.6289 -12 0.445261
    endloop
  endfacet
  facet normal 0 1 0
    outer loop
      vertex -17.0942 -12 -0.25393
      vertex -22.7893 -12 0.104373
      vertex -17.2107 -12 0.104373
    endloop
  endfacet
  facet normal 0 1 0
    outer loop
      vertex -17.0942 -12 -0.25393
      vertex -22.9058 -12 -0.25393
      vertex -22.7893 -12 0.104373
    endloop
  endfacet
  facet normal 0 1 0
    outer loop
      vertex -17.0237 -12 -0.624
      vertex -22.9058 -12 -0.25393
      vertex -17.0942 -12 -0.25393
    endloop
  endfacet
  facet normal 0 1 0
    outer loop
      vertex -17.0237 -12 -0.624
      vertex -22.9763 -12 -0.624
      vertex -22.9058 -12 -0.25393
    endloop
  endfacet
  facet normal 0 1 0
    outer loop
      vertex -17 -12 -1
      vertex -22.9763 -12 -0.624
      vertex -17.0237 -12 -0.624
    endloop
  endfacet
  facet normal 0 1 0
    outer loop
      vertex -17 -12 -1
      vertex -23 -12 -1
      vertex -22.9763 -12 -0.624
    endloop
  endfacet
  facet normal 0 1 -0
    outer loop
      vertex -17.0237 -12 -1.376
      vertex -23 -12 -1
      vertex -17 -12 -1
    endloop
  endfacet
  facet normal 0 1 0
    outer loop
      vertex -17.0237 -12 -1.376
      vertex -22.9763 -12 -1.376
      vertex -23 -12 -1
    endloop
  endfacet
  facet normal 0 1 -0
    outer loop
      vertex -17.0942 -12 -1.74607
      vertex -22.9763 -12 -1.376
      vertex -17.0237 -12 -1.376
    endloop
  endfacet
  facet normal 0 1 0
    outer loop
      vertex -17.0942 -12 -1.74607
      vertex -22.9058 -12 -1.74607
      vertex -22.9763 -12 -1.376
    endloop
  endfacet
  facet normal 0 1 -0
    outer loop
      vertex -17.2107 -12 -2.10437
      vertex -22.9058 -12 -1.74607
      vertex -17.0942 -12 -1.74607
    endloop
  endfacet
  facet normal 0 1 0
    outer loop
      vertex -17.2107 -12 -2.10437
      vertex -22.7893 -12 -2.10437
      vertex -22.9058 -12 -1.74607
    endloop
  endfacet
  facet normal 0 1 -0
    outer loop
      vertex -17.3711 -12 -2.44526
      vertex -22.7893 -12 -2.10437
      vertex -17.2107 -12 -2.10437
    endloop
  endfacet
  facet normal 0 1 0
    outer loop
      vertex -17.3711 -12 -2.44526
      vertex -22.6289 -12 -2.44526
      vertex -22.7893 -12 -2.10437
    endloop
  endfacet
  facet normal 0 1 -0
    outer loop
      vertex -17.5729 -12 -2.76336
      vertex -22.6289 -12 -2.44526
      vertex -17.3711 -12 -2.44526
    endloop
  endfacet
  facet normal 0 1 0
    outer loop
      vertex -17.5729 -12 -2.76336
      vertex -22.4271 -12 -2.76336
      vertex -22.6289 -12 -2.44526
    endloop
  endfacet
  facet normal 0 1 -0
    outer loop
      vertex -17.8131 -12 -3.05364
      vertex -22.4271 -12 -2.76336
      vertex -17.5729 -12 -2.76336
    endloop
  endfacet
  facet normal 0 1 0
    outer loop
      vertex -17.8131 -12 -3.05364
      vertex -22.1869 -12 -3.05364
      vertex -22.4271 -12 -2.76336
    endloop
  endfacet
  facet normal 0 1 -0
    outer loop
      vertex -18.0877 -12 -3.31154
      vertex -22.1869 -12 -3.05364
      vertex -17.8131 -12 -3.05364
    endloop
  endfacet
  facet normal 0 1 0
    outer loop
      vertex -18.0877 -12 -3.31154
      vertex -21.9123 -12 -3.31154
      vertex -22.1869 -12 -3.05364
    endloop
  endfacet
  facet normal 0 1 -0
    outer loop
      vertex -18.3925 -12 -3.53298
      vertex -21.9123 -12 -3.31154
      vertex -18.0877 -12 -3.31154
    endloop
  endfacet
  facet normal 0 1 0
    outer loop
      vertex -18.3925 -12 -3.53298
      vertex -21.6075 -12 -3.53298
      vertex -21.9123 -12 -3.31154
    endloop
  endfacet
  facet normal 0 1 -0
    outer loop
      vertex -18.7227 -12 -3.71448
      vertex -21.6075 -12 -3.53298
      vertex -18.3925 -12 -3.53298
    endloop
  endfacet
  facet normal 0 1 0
    outer loop
      vertex -18.7227 -12 -3.71448
      vertex -21.2773 -12 -3.71448
      vertex -21.6075 -12 -3.53298
    endloop
  endfacet
  facet normal 0 1 -0
    outer loop
      vertex -19.0729 -12 -3.85317
      vertex -21.2773 -12 -3.71448
      vertex -18.7227 -12 -3.71448
    endloop
  endfacet
  facet normal 0 1 0
    outer loop
      vertex -19.0729 -12 -3.85317
      vertex -20.9271 -12 -3.85317
      vertex -21.2773 -12 -3.71448
    endloop
  endfacet
  facet normal 0 1 -0
    outer loop
      vertex -19.4379 -12 -3.94686
      vertex -20.9271 -12 -3.85317
      vertex -19.0729 -12 -3.85317
    endloop
  endfacet
  facet normal 0 1 0
    outer loop
      vertex -19.4379 -12 -3.94686
      vertex -20.5621 -12 -3.94686
      vertex -20.9271 -12 -3.85317
    endloop
  endfacet
  facet normal 0 1 -0
    outer loop
      vertex -19.8116 -12 -3.99408
      vertex -20.5621 -12 -3.94686
      vertex -19.4379 -12 -3.94686
    endloop
  endfacet
  facet normal 0 1 0
    outer loop
      vertex -20.5621 -12 -3.94686
      vertex -19.8116 -12 -3.99408
      vertex -20.1884 -12 -3.99408
    endloop
  endfacet
  facet normal 0.770436 -0 0.637518
    outer loop
      vertex -22.4271 -12 -2.76336
      vertex -22.1869 0 -3.05364
      vertex -22.4271 0 -2.76336
    endloop
  endfacet
  facet normal 0.770436 0 0.637518
    outer loop
      vertex -22.1869 0 -3.05364
      vertex -22.4271 -12 -2.76336
      vertex -22.1869 -12 -3.05364
    endloop
  endfacet
  facet normal 0.770441 0 -0.637511
    outer loop
      vertex -22.1869 -12 1.05364
      vertex -22.4271 0 0.763355
      vertex -22.1869 0 1.05364
    endloop
  endfacet
  facet normal 0.770441 0 -0.637511
    outer loop
      vertex -22.4271 0 0.763355
      vertex -22.1869 -12 1.05364
      vertex -22.4271 -12 0.763355
    endloop
  endfacet
  facet normal 0.481695 0 0.876339
    outer loop
      vertex -21.6075 0 -3.53298
      vertex -21.2773 -12 -3.71448
      vertex -21.2773 0 -3.71448
    endloop
  endfacet
  facet normal 0.481695 0 0.876339
    outer loop
      vertex -21.2773 -12 -3.71448
      vertex -21.6075 0 -3.53298
      vertex -21.6075 -12 -3.53298
    endloop
  endfacet
  facet normal 0.248625 0 -0.9686
    outer loop
      vertex 19.0729 -12 1.85317
      vertex 19.4379 0 1.94686
      vertex 19.4379 -12 1.94686
    endloop
  endfacet
  facet normal 0.248625 0 -0.9686
    outer loop
      vertex 19.4379 0 1.94686
      vertex 19.0729 -12 1.85317
      vertex 19.0729 0 1.85317
    endloop
  endfacet
  facet normal -0.982333 0 -0.187139
    outer loop
      vertex 22.9763 -12 -0.624
      vertex 22.9058 0 -0.25393
      vertex 22.9763 0 -0.624
    endloop
  endfacet
  facet normal -0.982333 -0 -0.187139
    outer loop
      vertex 22.9058 0 -0.25393
      vertex 22.9763 -12 -0.624
      vertex 22.9058 -12 -0.25393
    endloop
  endfacet
  facet normal -0.998019 0 -0.0629071
    outer loop
      vertex 23 -12 -1
      vertex 22.9763 0 -0.624
      vertex 23 0 -1
    endloop
  endfacet
  facet normal -0.998019 -0 -0.0629071
    outer loop
      vertex 22.9763 0 -0.624
      vertex 23 -12 -1
      vertex 22.9763 -12 -0.624
    endloop
  endfacet
  facet normal -0.368207 0 -0.929744
    outer loop
      vertex 20.9271 -12 1.85317
      vertex 21.2773 0 1.71448
      vertex 21.2773 -12 1.71448
    endloop
  endfacet
  facet normal -0.368207 0 -0.929744
    outer loop
      vertex 21.2773 0 1.71448
      vertex 20.9271 -12 1.85317
      vertex 20.9271 0 1.85317
    endloop
  endfacet
  facet normal -0.684594 0 -0.728924
    outer loop
      vertex 21.9123 -12 1.31154
      vertex 22.1869 0 1.05364
      vertex 22.1869 -12 1.05364
    endloop
  endfacet
  facet normal -0.684594 0 -0.728924
    outer loop
      vertex 22.1869 0 1.05364
      vertex 21.9123 -12 1.31154
      vertex 21.9123 0 1.31154
    endloop
  endfacet
  facet normal -0.770436 0 0.637518
    outer loop
      vertex 22.1869 -12 -3.05364
      vertex 22.4271 0 -2.76336
      vertex 22.1869 0 -3.05364
    endloop
  endfacet
  facet normal -0.770436 0 0.637518
    outer loop
      vertex 22.4271 0 -2.76336
      vertex 22.1869 -12 -3.05364
      vertex 22.4271 -12 -2.76336
    endloop
  endfacet
  facet normal 0.248625 0 0.9686
    outer loop
      vertex 19.0729 0 -3.85317
      vertex 19.4379 -12 -3.94686
      vertex 19.4379 0 -3.94686
    endloop
  endfacet
  facet normal 0.248625 0 0.9686
    outer loop
      vertex 19.4379 -12 -3.94686
      vertex 19.0729 0 -3.85317
      vertex 19.0729 -12 -3.85317
    endloop
  endfacet
  facet normal -0.587768 0 -0.80903
    outer loop
      vertex 21.6075 -12 1.53298
      vertex 21.9123 0 1.31154
      vertex 21.9123 -12 1.31154
    endloop
  endfacet
  facet normal -0.587768 0 -0.80903
    outer loop
      vertex 21.9123 0 1.31154
      vertex 21.6075 -12 1.53298
      vertex 21.6075 0 1.53298
    endloop
  endfacet
  facet normal 0.368207 0 -0.929744
    outer loop
      vertex 18.7227 -12 1.71448
      vertex 19.0729 0 1.85317
      vertex 19.0729 -12 1.85317
    endloop
  endfacet
  facet normal 0.368207 0 -0.929744
    outer loop
      vertex 19.0729 0 1.85317
      vertex 18.7227 -12 1.71448
      vertex 18.7227 0 1.71448
    endloop
  endfacet
  facet normal -0.84441 0 -0.535697
    outer loop
      vertex 22.6289 -12 0.445261
      vertex 22.4271 0 0.763355
      vertex 22.6289 0 0.445261
    endloop
  endfacet
  facet normal -0.84441 -0 -0.535697
    outer loop
      vertex 22.4271 0 0.763355
      vertex 22.6289 -12 0.445261
      vertex 22.4271 -12 0.763355
    endloop
  endfacet
  facet normal 0.982333 -0 0.187139
    outer loop
      vertex 17.0237 -12 -1.376
      vertex 17.0942 0 -1.74607
      vertex 17.0237 0 -1.376
    endloop
  endfacet
  facet normal 0.982333 0 0.187139
    outer loop
      vertex 17.0942 0 -1.74607
      vertex 17.0237 -12 -1.376
      vertex 17.0942 -12 -1.74607
    endloop
  endfacet
  facet normal -0.998019 0 0.0629071
    outer loop
      vertex 22.9763 -12 -1.376
      vertex 23 0 -1
      vertex 22.9763 0 -1.376
    endloop
  endfacet
  facet normal -0.998019 0 0.0629071
    outer loop
      vertex 23 0 -1
      vertex 22.9763 -12 -1.376
      vertex 23 -12 -1
    endloop
  endfacet
  facet normal 0 1 0
    outer loop
      vertex 20.5621 -12 1.94686
      vertex 19.8116 -12 1.99408
      vertex 20.1884 -12 1.99408
    endloop
  endfacet
  facet normal 0 1 0
    outer loop
      vertex 20.5621 -12 1.94686
      vertex 19.4379 -12 1.94686
      vertex 19.8116 -12 1.99408
    endloop
  endfacet
  facet normal 0 1 0
    outer loop
      vertex 20.9271 -12 1.85317
      vertex 19.4379 -12 1.94686
      vertex 20.5621 -12 1.94686
    endloop
  endfacet
  facet normal 0 1 0
    outer loop
      vertex 20.9271 -12 1.85317
      vertex 19.0729 -12 1.85317
      vertex 19.4379 -12 1.94686
    endloop
  endfacet
  facet normal 0 1 0
    outer loop
      vertex 21.2773 -12 1.71448
      vertex 19.0729 -12 1.85317
      vertex 20.9271 -12 1.85317
    endloop
  endfacet
  facet normal 0 1 0
    outer loop
      vertex 21.2773 -12 1.71448
      vertex 18.7227 -12 1.71448
      vertex 19.0729 -12 1.85317
    endloop
  endfacet
  facet normal 0 1 0
    outer loop
      vertex 21.6075 -12 1.53298
      vertex 18.7227 -12 1.71448
      vertex 21.2773 -12 1.71448
    endloop
  endfacet
  facet normal 0 1 0
    outer loop
      vertex 21.6075 -12 1.53298
      vertex 18.3925 -12 1.53298
      vertex 18.7227 -12 1.71448
    endloop
  endfacet
  facet normal 0 1 0
    outer loop
      vertex 21.9123 -12 1.31154
      vertex 18.3925 -12 1.53298
      vertex 21.6075 -12 1.53298
    endloop
  endfacet
  facet normal 0 1 0
    outer loop
      vertex 21.9123 -12 1.31154
      vertex 18.0877 -12 1.31154
      vertex 18.3925 -12 1.53298
    endloop
  endfacet
  facet normal 0 1 0
    outer loop
      vertex 22.1869 -12 1.05364
      vertex 18.0877 -12 1.31154
      vertex 21.9123 -12 1.31154
    endloop
  endfacet
  facet normal 0 1 0
    outer loop
      vertex 22.1869 -12 1.05364
      vertex 17.8131 -12 1.05364
      vertex 18.0877 -12 1.31154
    endloop
  endfacet
  facet normal 0 1 0
    outer loop
      vertex 22.4271 -12 0.763355
      vertex 17.8131 -12 1.05364
      vertex 22.1869 -12 1.05364
    endloop
  endfacet
  facet normal 0 1 0
    outer loop
      vertex 22.4271 -12 0.763355
      vertex 17.5729 -12 0.763355
      vertex 17.8131 -12 1.05364
    endloop
  endfacet
  facet normal 0 1 0
    outer loop
      vertex 22.6289 -12 0.445261
      vertex 17.5729 -12 0.763355
      vertex 22.4271 -12 0.763355
    endloop
  endfacet
  facet normal 0 1 0
    outer loop
      vertex 22.6289 -12 0.445261
      vertex 17.3711 -12 0.445261
      vertex 17.5729 -12 0.763355
    endloop
  endfacet
  facet normal 0 1 0
    outer loop
      vertex 22.7893 -12 0.104373
      vertex 17.3711 -12 0.445261
      vertex 22.6289 -12 0.445261
    endloop
  endfacet
  facet normal 0 1 0
    outer loop
      vertex 22.7893 -12 0.104373
      vertex 17.2107 -12 0.104373
      vertex 17.3711 -12 0.445261
    endloop
  endfacet
  facet normal 0 1 0
    outer loop
      vertex 22.9058 -12 -0.25393
      vertex 17.2107 -12 0.104373
      vertex 22.7893 -12 0.104373
    endloop
  endfacet
  facet normal 0 1 0
    outer loop
      vertex 22.9058 -12 -0.25393
      vertex 17.0942 -12 -0.25393
      vertex 17.2107 -12 0.104373
    endloop
  endfacet
  facet normal 0 1 0
    outer loop
      vertex 22.9763 -12 -0.624
      vertex 17.0942 -12 -0.25393
      vertex 22.9058 -12 -0.25393
    endloop
  endfacet
  facet normal 0 1 0
    outer loop
      vertex 22.9763 -12 -0.624
      vertex 17.0237 -12 -0.624
      vertex 17.0942 -12 -0.25393
    endloop
  endfacet
  facet normal 0 1 0
    outer loop
      vertex 23 -12 -1
      vertex 17.0237 -12 -0.624
      vertex 22.9763 -12 -0.624
    endloop
  endfacet
  facet normal 0 1 0
    outer loop
      vertex 23 -12 -1
      vertex 17 -12 -1
      vertex 17.0237 -12 -0.624
    endloop
  endfacet
  facet normal 0 1 -0
    outer loop
      vertex 22.9763 -12 -1.376
      vertex 17 -12 -1
      vertex 23 -12 -1
    endloop
  endfacet
  facet normal 0 1 0
    outer loop
      vertex 22.9763 -12 -1.376
      vertex 17.0237 -12 -1.376
      vertex 17 -12 -1
    endloop
  endfacet
  facet normal 0 1 -0
    outer loop
      vertex 22.9058 -12 -1.74607
      vertex 17.0237 -12 -1.376
      vertex 22.9763 -12 -1.376
    endloop
  endfacet
  facet normal 0 1 0
    outer loop
      vertex 22.9058 -12 -1.74607
      vertex 17.0942 -12 -1.74607
      vertex 17.0237 -12 -1.376
    endloop
  endfacet
  facet normal 0 1 -0
    outer loop
      vertex 22.7893 -12 -2.10437
      vertex 17.0942 -12 -1.74607
      vertex 22.9058 -12 -1.74607
    endloop
  endfacet
  facet normal 0 1 0
    outer loop
      vertex 22.7893 -12 -2.10437
      vertex 17.2107 -12 -2.10437
      vertex 17.0942 -12 -1.74607
    endloop
  endfacet
  facet normal 0 1 -0
    outer loop
      vertex 22.6289 -12 -2.44526
      vertex 17.2107 -12 -2.10437
      vertex 22.7893 -12 -2.10437
    endloop
  endfacet
  facet normal 0 1 0
    outer loop
      vertex 22.6289 -12 -2.44526
      vertex 17.3711 -12 -2.44526
      vertex 17.2107 -12 -2.10437
    endloop
  endfacet
  facet normal 0 1 -0
    outer loop
      vertex 22.4271 -12 -2.76336
      vertex 17.3711 -12 -2.44526
      vertex 22.6289 -12 -2.44526
    endloop
  endfacet
  facet normal 0 1 0
    outer loop
      vertex 22.4271 -12 -2.76336
      vertex 17.5729 -12 -2.76336
      vertex 17.3711 -12 -2.44526
    endloop
  endfacet
  facet normal 0 1 -0
    outer loop
      vertex 22.1869 -12 -3.05364
      vertex 17.5729 -12 -2.76336
      vertex 22.4271 -12 -2.76336
    endloop
  endfacet
  facet normal 0 1 0
    outer loop
      vertex 22.1869 -12 -3.05364
      vertex 17.8131 -12 -3.05364
      vertex 17.5729 -12 -2.76336
    endloop
  endfacet
  facet normal 0 1 -0
    outer loop
      vertex 21.9123 -12 -3.31154
      vertex 17.8131 -12 -3.05364
      vertex 22.1869 -12 -3.05364
    endloop
  endfacet
  facet normal 0 1 0
    outer loop
      vertex 21.9123 -12 -3.31154
      vertex 18.0877 -12 -3.31154
      vertex 17.8131 -12 -3.05364
    endloop
  endfacet
  facet normal 0 1 -0
    outer loop
      vertex 21.6075 -12 -3.53298
      vertex 18.0877 -12 -3.31154
      vertex 21.9123 -12 -3.31154
    endloop
  endfacet
  facet normal 0 1 0
    outer loop
      vertex 21.6075 -12 -3.53298
      vertex 18.3925 -12 -3.53298
      vertex 18.0877 -12 -3.31154
    endloop
  endfacet
  facet normal 0 1 -0
    outer loop
      vertex 21.2773 -12 -3.71448
      vertex 18.3925 -12 -3.53298
      vertex 21.6075 -12 -3.53298
    endloop
  endfacet
  facet normal 0 1 0
    outer loop
      vertex 21.2773 -12 -3.71448
      vertex 18.7227 -12 -3.71448
      vertex 18.3925 -12 -3.53298
    endloop
  endfacet
  facet normal 0 1 -0
    outer loop
      vertex 20.9271 -12 -3.85317
      vertex 18.7227 -12 -3.71448
      vertex 21.2773 -12 -3.71448
    endloop
  endfacet
  facet normal 0 1 0
    outer loop
      vertex 20.9271 -12 -3.85317
      vertex 19.0729 -12 -3.85317
      vertex 18.7227 -12 -3.71448
    endloop
  endfacet
  facet normal 0 1 -0
    outer loop
      vertex 20.5621 -12 -3.94686
      vertex 19.0729 -12 -3.85317
      vertex 20.9271 -12 -3.85317
    endloop
  endfacet
  facet normal 0 1 0
    outer loop
      vertex 20.5621 -12 -3.94686
      vertex 19.4379 -12 -3.94686
      vertex 19.0729 -12 -3.85317
    endloop
  endfacet
  facet normal 0 1 -0
    outer loop
      vertex 20.1884 -12 -3.99408
      vertex 19.4379 -12 -3.94686
      vertex 20.5621 -12 -3.94686
    endloop
  endfacet
  facet normal 0 1 0
    outer loop
      vertex 19.4379 -12 -3.94686
      vertex 20.1884 -12 -3.99408
      vertex 19.8116 -12 -3.99408
    endloop
  endfacet
  facet normal 0.481695 0 0.876339
    outer loop
      vertex 18.3925 0 -3.53298
      vertex 18.7227 -12 -3.71448
      vertex 18.7227 0 -3.71448
    endloop
  endfacet
  facet normal 0.481695 0 0.876339
    outer loop
      vertex 18.7227 -12 -3.71448
      vertex 18.3925 0 -3.53298
      vertex 18.3925 -12 -3.53298
    endloop
  endfacet
  facet normal -0.844415 0 0.53569
    outer loop
      vertex 22.4271 -12 -2.76336
      vertex 22.6289 0 -2.44526
      vertex 22.4271 0 -2.76336
    endloop
  endfacet
  facet normal -0.844415 0 0.53569
    outer loop
      vertex 22.6289 0 -2.44526
      vertex 22.4271 -12 -2.76336
      vertex 22.6289 -12 -2.44526
    endloop
  endfacet
  facet normal 0.125361 0 -0.992111
    outer loop
      vertex 19.4379 -12 1.94686
      vertex 19.8116 0 1.99408
      vertex 19.8116 -12 1.99408
    endloop
  endfacet
  facet normal 0.125361 0 -0.992111
    outer loop
      vertex 19.8116 0 1.99408
      vertex 19.4379 -12 1.94686
      vertex 19.4379 0 1.94686
    endloop
  endfacet
  facet normal 0.684594 0 0.728924
    outer loop
      vertex 17.8131 0 -3.05364
      vertex 18.0877 -12 -3.31154
      vertex 18.0877 0 -3.31154
    endloop
  endfacet
  facet normal 0.684594 0 0.728924
    outer loop
      vertex 18.0877 -12 -3.31154
      vertex 17.8131 0 -3.05364
      vertex 17.8131 -12 -3.05364
    endloop
  endfacet
  facet normal 0.684594 0 -0.728924
    outer loop
      vertex 17.8131 -12 1.05364
      vertex 18.0877 0 1.31154
      vertex 18.0877 -12 1.31154
    endloop
  endfacet
  facet normal 0.684594 0 -0.728924
    outer loop
      vertex 18.0877 0 1.31154
      vertex 17.8131 -12 1.05364
      vertex 17.8131 0 1.05364
    endloop
  endfacet
  facet normal -0.950994 0 -0.30921
    outer loop
      vertex 22.9058 -12 -0.25393
      vertex 22.7893 0 0.104373
      vertex 22.9058 0 -0.25393
    endloop
  endfacet
  facet normal -0.950994 -0 -0.30921
    outer loop
      vertex 22.7893 0 0.104373
      vertex 22.9058 -12 -0.25393
      vertex 22.7893 -12 0.104373
    endloop
  endfacet
  facet normal 0.481695 0 -0.876339
    outer loop
      vertex 18.3925 -12 1.53298
      vertex 18.7227 0 1.71448
      vertex 18.7227 -12 1.71448
    endloop
  endfacet
  facet normal 0.481695 0 -0.876339
    outer loop
      vertex 18.7227 0 1.71448
      vertex 18.3925 -12 1.53298
      vertex 18.3925 0 1.53298
    endloop
  endfacet
  facet normal -0.368207 0 0.929744
    outer loop
      vertex 20.9271 0 -3.85317
      vertex 21.2773 -12 -3.71448
      vertex 21.2773 0 -3.71448
    endloop
  endfacet
  facet normal -0.368207 0 0.929744
    outer loop
      vertex 21.2773 -12 -3.71448
      vertex 20.9271 0 -3.85317
      vertex 20.9271 -12 -3.85317
    endloop
  endfacet
  facet normal 0.998019 0 -0.0629071
    outer loop
      vertex 17.0237 -12 -0.624
      vertex 17 0 -1
      vertex 17.0237 0 -0.624
    endloop
  endfacet
  facet normal 0.998019 0 -0.0629071
    outer loop
      vertex 17 0 -1
      vertex 17.0237 -12 -0.624
      vertex 17 -12 -1
    endloop
  endfacet
  facet normal -0.481695 0 0.876339
    outer loop
      vertex 21.2773 0 -3.71448
      vertex 21.6075 -12 -3.53298
      vertex 21.6075 0 -3.53298
    endloop
  endfacet
  facet normal -0.481695 0 0.876339
    outer loop
      vertex 21.6075 -12 -3.53298
      vertex 21.2773 0 -3.71448
      vertex 21.2773 -12 -3.71448
    endloop
  endfacet
  facet normal -0.587768 0 0.80903
    outer loop
      vertex 21.6075 0 -3.53298
      vertex 21.9123 -12 -3.31154
      vertex 21.9123 0 -3.31154
    endloop
  endfacet
  facet normal -0.587768 0 0.80903
    outer loop
      vertex 21.9123 -12 -3.31154
      vertex 21.6075 0 -3.53298
      vertex 21.6075 -12 -3.53298
    endloop
  endfacet
  facet normal 0.368207 0 0.929744
    outer loop
      vertex 18.7227 0 -3.71448
      vertex 19.0729 -12 -3.85317
      vertex 19.0729 0 -3.85317
    endloop
  endfacet
  facet normal 0.368207 0 0.929744
    outer loop
      vertex 19.0729 -12 -3.85317
      vertex 18.7227 0 -3.71448
      vertex 18.7227 -12 -3.71448
    endloop
  endfacet
  facet normal 0.587768 0 0.80903
    outer loop
      vertex 18.0877 0 -3.31154
      vertex 18.3925 -12 -3.53298
      vertex 18.3925 0 -3.53298
    endloop
  endfacet
  facet normal 0.587768 0 0.80903
    outer loop
      vertex 18.3925 -12 -3.53298
      vertex 18.0877 0 -3.31154
      vertex 18.0877 -12 -3.31154
    endloop
  endfacet
  facet normal 0.950993 -0 0.309212
    outer loop
      vertex 17.0942 -12 -1.74607
      vertex 17.2107 0 -2.10437
      vertex 17.0942 0 -1.74607
    endloop
  endfacet
  facet normal 0.950993 0 0.309212
    outer loop
      vertex 17.2107 0 -2.10437
      vertex 17.0942 -12 -1.74607
      vertex 17.2107 -12 -2.10437
    endloop
  endfacet
  facet normal 0 0 -1
    outer loop
      vertex 19.8116 -12 1.99408
      vertex 20.1884 0 1.99408
      vertex 20.1884 -12 1.99408
    endloop
  endfacet
  facet normal -0 0 -1
    outer loop
      vertex 20.1884 0 1.99408
      vertex 19.8116 -12 1.99408
      vertex 19.8116 0 1.99408
    endloop
  endfacet
  facet normal 0.587768 0 -0.80903
    outer loop
      vertex 18.0877 -12 1.31154
      vertex 18.3925 0 1.53298
      vertex 18.3925 -12 1.53298
    endloop
  endfacet
  facet normal 0.587768 0 -0.80903
    outer loop
      vertex 18.3925 0 1.53298
      vertex 18.0877 -12 1.31154
      vertex 18.0877 0 1.31154
    endloop
  endfacet
  facet normal -0.950993 0 0.309212
    outer loop
      vertex 22.7893 -12 -2.10437
      vertex 22.9058 0 -1.74607
      vertex 22.7893 0 -2.10437
    endloop
  endfacet
  facet normal -0.950993 0 0.309212
    outer loop
      vertex 22.9058 0 -1.74607
      vertex 22.7893 -12 -2.10437
      vertex 22.9058 -12 -1.74607
    endloop
  endfacet
  facet normal 0.904838 -0 0.425756
    outer loop
      vertex 17.2107 -12 -2.10437
      vertex 17.3711 0 -2.44526
      vertex 17.2107 0 -2.10437
    endloop
  endfacet
  facet normal 0.904838 0 0.425756
    outer loop
      vertex 17.3711 0 -2.44526
      vertex 17.2107 -12 -2.10437
      vertex 17.3711 -12 -2.44526
    endloop
  endfacet
  facet normal 0.950994 0 -0.30921
    outer loop
      vertex 17.2107 -12 0.104373
      vertex 17.0942 0 -0.25393
      vertex 17.2107 0 0.104373
    endloop
  endfacet
  facet normal 0.950994 0 -0.30921
    outer loop
      vertex 17.0942 0 -0.25393
      vertex 17.2107 -12 0.104373
      vertex 17.0942 -12 -0.25393
    endloop
  endfacet
  facet normal 0.84441 0 -0.535697
    outer loop
      vertex 17.5729 -12 0.763355
      vertex 17.3711 0 0.445261
      vertex 17.5729 0 0.763355
    endloop
  endfacet
  facet normal 0.84441 0 -0.535697
    outer loop
      vertex 17.3711 0 0.445261
      vertex 17.5729 -12 0.763355
      vertex 17.3711 -12 0.445261
    endloop
  endfacet
  facet normal -0.982333 0 0.187139
    outer loop
      vertex 22.9058 -12 -1.74607
      vertex 22.9763 0 -1.376
      vertex 22.9058 0 -1.74607
    endloop
  endfacet
  facet normal -0.982333 0 0.187139
    outer loop
      vertex 22.9763 0 -1.376
      vertex 22.9058 -12 -1.74607
      vertex 22.9763 -12 -1.376
    endloop
  endfacet
  facet normal -0.125361 0 -0.992111
    outer loop
      vertex 20.1884 -12 1.99408
      vertex 20.5621 0 1.94686
      vertex 20.5621 -12 1.94686
    endloop
  endfacet
  facet normal -0.125361 0 -0.992111
    outer loop
      vertex 20.5621 0 1.94686
      vertex 20.1884 -12 1.99408
      vertex 20.1884 0 1.99408
    endloop
  endfacet
  facet normal -0.904838 0 0.425756
    outer loop
      vertex 22.6289 -12 -2.44526
      vertex 22.7893 0 -2.10437
      vertex 22.6289 0 -2.44526
    endloop
  endfacet
  facet normal -0.904838 0 0.425756
    outer loop
      vertex 22.7893 0 -2.10437
      vertex 22.6289 -12 -2.44526
      vertex 22.7893 -12 -2.10437
    endloop
  endfacet
  facet normal -0.904837 0 -0.425758
    outer loop
      vertex 22.7893 -12 0.104373
      vertex 22.6289 0 0.445261
      vertex 22.7893 0 0.104373
    endloop
  endfacet
  facet normal -0.904837 -0 -0.425758
    outer loop
      vertex 22.6289 0 0.445261
      vertex 22.7893 -12 0.104373
      vertex 22.6289 -12 0.445261
    endloop
  endfacet
  facet normal -0.248625 0 0.9686
    outer loop
      vertex 20.5621 0 -3.94686
      vertex 20.9271 -12 -3.85317
      vertex 20.9271 0 -3.85317
    endloop
  endfacet
  facet normal -0.248625 0 0.9686
    outer loop
      vertex 20.9271 -12 -3.85317
      vertex 20.5621 0 -3.94686
      vertex 20.5621 -12 -3.94686
    endloop
  endfacet
  facet normal -0.481695 0 -0.876339
    outer loop
      vertex 21.2773 -12 1.71448
      vertex 21.6075 0 1.53298
      vertex 21.6075 -12 1.53298
    endloop
  endfacet
  facet normal -0.481695 0 -0.876339
    outer loop
      vertex 21.6075 0 1.53298
      vertex 21.2773 -12 1.71448
      vertex 21.2773 0 1.71448
    endloop
  endfacet
  facet normal -0.684594 0 0.728924
    outer loop
      vertex 21.9123 0 -3.31154
      vertex 22.1869 -12 -3.05364
      vertex 22.1869 0 -3.05364
    endloop
  endfacet
  facet normal -0.684594 0 0.728924
    outer loop
      vertex 22.1869 -12 -3.05364
      vertex 21.9123 0 -3.31154
      vertex 21.9123 -12 -3.31154
    endloop
  endfacet
  facet normal 0.770441 0 -0.637511
    outer loop
      vertex 17.8131 -12 1.05364
      vertex 17.5729 0 0.763355
      vertex 17.8131 0 1.05364
    endloop
  endfacet
  facet normal 0.770441 0 -0.637511
    outer loop
      vertex 17.5729 0 0.763355
      vertex 17.8131 -12 1.05364
      vertex 17.5729 -12 0.763355
    endloop
  endfacet
  facet normal -0.770441 0 -0.637511
    outer loop
      vertex 22.4271 -12 0.763355
      vertex 22.1869 0 1.05364
      vertex 22.4271 0 0.763355
    endloop
  endfacet
  facet normal -0.770441 -0 -0.637511
    outer loop
      vertex 22.1869 0 1.05364
      vertex 22.4271 -12 0.763355
      vertex 22.1869 -12 1.05364
    endloop
  endfacet
  facet normal 0.125361 0 0.992111
    outer loop
      vertex 19.4379 0 -3.94686
      vertex 19.8116 -12 -3.99408
      vertex 19.8116 0 -3.99408
    endloop
  endfacet
  facet normal 0.125361 0 0.992111
    outer loop
      vertex 19.8116 -12 -3.99408
      vertex 19.4379 0 -3.94686
      vertex 19.4379 -12 -3.94686
    endloop
  endfacet
  facet normal -0.125361 0 0.992111
    outer loop
      vertex 20.1884 0 -3.99408
      vertex 20.5621 -12 -3.94686
      vertex 20.5621 0 -3.94686
    endloop
  endfacet
  facet normal -0.125361 0 0.992111
    outer loop
      vertex 20.5621 -12 -3.94686
      vertex 20.1884 0 -3.99408
      vertex 20.1884 -12 -3.99408
    endloop
  endfacet
  facet normal 0.770436 -0 0.637518
    outer loop
      vertex 17.5729 -12 -2.76336
      vertex 17.8131 0 -3.05364
      vertex 17.5729 0 -2.76336
    endloop
  endfacet
  facet normal 0.770436 0 0.637518
    outer loop
      vertex 17.8131 0 -3.05364
      vertex 17.5729 -12 -2.76336
      vertex 17.8131 -12 -3.05364
    endloop
  endfacet
  facet normal 0.998019 -0 0.0629071
    outer loop
      vertex 17 -12 -1
      vertex 17.0237 0 -1.376
      vertex 17 0 -1
    endloop
  endfacet
  facet normal 0.998019 0 0.0629071
    outer loop
      vertex 17.0237 0 -1.376
      vertex 17 -12 -1
      vertex 17.0237 -12 -1.376
    endloop
  endfacet
  facet normal -0 0 1
    outer loop
      vertex 19.8116 0 -3.99408
      vertex 20.1884 -12 -3.99408
      vertex 20.1884 0 -3.99408
    endloop
  endfacet
  facet normal 0 0 1
    outer loop
      vertex 20.1884 -12 -3.99408
      vertex 19.8116 0 -3.99408
      vertex 19.8116 -12 -3.99408
    endloop
  endfacet
  facet normal 0.904837 0 -0.425758
    outer loop
      vertex 17.3711 -12 0.445261
      vertex 17.2107 0 0.104373
      vertex 17.3711 0 0.445261
    endloop
  endfacet
  facet normal 0.904837 0 -0.425758
    outer loop
      vertex 17.2107 0 0.104373
      vertex 17.3711 -12 0.445261
      vertex 17.2107 -12 0.104373
    endloop
  endfacet
  facet normal -0.248625 0 -0.9686
    outer loop
      vertex 20.5621 -12 1.94686
      vertex 20.9271 0 1.85317
      vertex 20.9271 -12 1.85317
    endloop
  endfacet
  facet normal -0.248625 0 -0.9686
    outer loop
      vertex 20.9271 0 1.85317
      vertex 20.5621 -12 1.94686
      vertex 20.5621 0 1.94686
    endloop
  endfacet
  facet normal 0.982333 0 -0.187139
    outer loop
      vertex 17.0942 -12 -0.25393
      vertex 17.0237 0 -0.624
      vertex 17.0942 0 -0.25393
    endloop
  endfacet
  facet normal 0.982333 0 -0.187139
    outer loop
      vertex 17.0237 0 -0.624
      vertex 17.0942 -12 -0.25393
      vertex 17.0237 -12 -0.624
    endloop
  endfacet
  facet normal 0.844415 -0 0.53569
    outer loop
      vertex 17.3711 -12 -2.44526
      vertex 17.5729 0 -2.76336
      vertex 17.3711 0 -2.44526
    endloop
  endfacet
  facet normal 0.844415 0 0.53569
    outer loop
      vertex 17.5729 0 -2.76336
      vertex 17.3711 -12 -2.44526
      vertex 17.5729 -12 -2.76336
    endloop
  endfacet
  facet normal 0 -1 0
    outer loop
      vertex 19.4379 0 1.94686
      vertex 20.1884 0 1.99408
      vertex 19.8116 0 1.99408
    endloop
  endfacet
  facet normal 0 -1 0
    outer loop
      vertex 19.4379 0 1.94686
      vertex 20.5621 0 1.94686
      vertex 20.1884 0 1.99408
    endloop
  endfacet
  facet normal 0 -1 0
    outer loop
      vertex 19.0729 0 1.85317
      vertex 20.5621 0 1.94686
      vertex 19.4379 0 1.94686
    endloop
  endfacet
  facet normal 0 -1 0
    outer loop
      vertex 19.0729 0 1.85317
      vertex 20.9271 0 1.85317
      vertex 20.5621 0 1.94686
    endloop
  endfacet
  facet normal 0 -1 0
    outer loop
      vertex 18.7227 0 1.71448
      vertex 20.9271 0 1.85317
      vertex 19.0729 0 1.85317
    endloop
  endfacet
  facet normal 0 -1 0
    outer loop
      vertex 18.7227 0 1.71448
      vertex 21.2773 0 1.71448
      vertex 20.9271 0 1.85317
    endloop
  endfacet
  facet normal 0 -1 0
    outer loop
      vertex 18.3925 0 1.53298
      vertex 21.2773 0 1.71448
      vertex 18.7227 0 1.71448
    endloop
  endfacet
  facet normal 0 -1 0
    outer loop
      vertex 18.3925 0 1.53298
      vertex 21.6075 0 1.53298
      vertex 21.2773 0 1.71448
    endloop
  endfacet
  facet normal 0 -1 0
    outer loop
      vertex 18.0877 0 1.31154
      vertex 21.6075 0 1.53298
      vertex 18.3925 0 1.53298
    endloop
  endfacet
  facet normal 0 -1 0
    outer loop
      vertex 18.0877 0 1.31154
      vertex 21.9123 0 1.31154
      vertex 21.6075 0 1.53298
    endloop
  endfacet
  facet normal 0 -1 0
    outer loop
      vertex 17.8131 0 1.05364
      vertex 21.9123 0 1.31154
      vertex 18.0877 0 1.31154
    endloop
  endfacet
  facet normal 0 -1 0
    outer loop
      vertex 17.8131 0 1.05364
      vertex 22.1869 0 1.05364
      vertex 21.9123 0 1.31154
    endloop
  endfacet
  facet normal 0 -1 0
    outer loop
      vertex 17.5729 0 0.763355
      vertex 22.1869 0 1.05364
      vertex 17.8131 0 1.05364
    endloop
  endfacet
  facet normal 0 -1 0
    outer loop
      vertex 17.5729 0 0.763355
      vertex 22.4271 0 0.763355
      vertex 22.1869 0 1.05364
    endloop
  endfacet
  facet normal 0 -1 0
    outer loop
      vertex 17.3711 0 0.445261
      vertex 22.4271 0 0.763355
      vertex 17.5729 0 0.763355
    endloop
  endfacet
  facet normal 0 -1 0
    outer loop
      vertex 17.3711 0 0.445261
      vertex 22.6289 0 0.445261
      vertex 22.4271 0 0.763355
    endloop
  endfacet
  facet normal 0 -1 0
    outer loop
      vertex 17.2107 0 0.104373
      vertex 22.6289 0 0.445261
      vertex 17.3711 0 0.445261
    endloop
  endfacet
  facet normal 0 -1 0
    outer loop
      vertex 17.2107 0 0.104373
      vertex 22.7893 0 0.104373
      vertex 22.6289 0 0.445261
    endloop
  endfacet
  facet normal 0 -1 0
    outer loop
      vertex 17.0942 0 -0.25393
      vertex 22.7893 0 0.104373
      vertex 17.2107 0 0.104373
    endloop
  endfacet
  facet normal 0 -1 0
    outer loop
      vertex 17.0942 0 -0.25393
      vertex 22.9058 0 -0.25393
      vertex 22.7893 0 0.104373
    endloop
  endfacet
  facet normal 0 -1 0
    outer loop
      vertex 17.0237 0 -0.624
      vertex 22.9058 0 -0.25393
      vertex 17.0942 0 -0.25393
    endloop
  endfacet
  facet normal 0 -1 0
    outer loop
      vertex 17.0237 0 -0.624
      vertex 22.9763 0 -0.624
      vertex 22.9058 0 -0.25393
    endloop
  endfacet
  facet normal 0 -1 0
    outer loop
      vertex 17 0 -1
      vertex 22.9763 0 -0.624
      vertex 17.0237 0 -0.624
    endloop
  endfacet
  facet normal 0 -1 0
    outer loop
      vertex 17 0 -1
      vertex 23 0 -1
      vertex 22.9763 0 -0.624
    endloop
  endfacet
  facet normal 0 -1 0
    outer loop
      vertex 17.0237 0 -1.376
      vertex 23 0 -1
      vertex 17 0 -1
    endloop
  endfacet
  facet normal 0 -1 0
    outer loop
      vertex 17.0237 0 -1.376
      vertex 22.9763 0 -1.376
      vertex 23 0 -1
    endloop
  endfacet
  facet normal 0 -1 0
    outer loop
      vertex 17.0942 0 -1.74607
      vertex 22.9763 0 -1.376
      vertex 17.0237 0 -1.376
    endloop
  endfacet
  facet normal 0 -1 0
    outer loop
      vertex 17.0942 0 -1.74607
      vertex 22.9058 0 -1.74607
      vertex 22.9763 0 -1.376
    endloop
  endfacet
  facet normal 0 -1 0
    outer loop
      vertex 17.2107 0 -2.10437
      vertex 22.9058 0 -1.74607
      vertex 17.0942 0 -1.74607
    endloop
  endfacet
  facet normal 0 -1 0
    outer loop
      vertex 17.2107 0 -2.10437
      vertex 22.7893 0 -2.10437
      vertex 22.9058 0 -1.74607
    endloop
  endfacet
  facet normal 0 -1 0
    outer loop
      vertex 17.3711 0 -2.44526
      vertex 22.7893 0 -2.10437
      vertex 17.2107 0 -2.10437
    endloop
  endfacet
  facet normal 0 -1 0
    outer loop
      vertex 17.3711 0 -2.44526
      vertex 22.6289 0 -2.44526
      vertex 22.7893 0 -2.10437
    endloop
  endfacet
  facet normal 0 -1 0
    outer loop
      vertex 17.5729 0 -2.76336
      vertex 22.6289 0 -2.44526
      vertex 17.3711 0 -2.44526
    endloop
  endfacet
  facet normal 0 -1 0
    outer loop
      vertex 17.5729 0 -2.76336
      vertex 22.4271 0 -2.76336
      vertex 22.6289 0 -2.44526
    endloop
  endfacet
  facet normal 0 -1 0
    outer loop
      vertex 17.8131 0 -3.05364
      vertex 22.4271 0 -2.76336
      vertex 17.5729 0 -2.76336
    endloop
  endfacet
  facet normal 0 -1 0
    outer loop
      vertex 17.8131 0 -3.05364
      vertex 22.1869 0 -3.05364
      vertex 22.4271 0 -2.76336
    endloop
  endfacet
  facet normal 0 -1 0
    outer loop
      vertex 18.0877 0 -3.31154
      vertex 22.1869 0 -3.05364
      vertex 17.8131 0 -3.05364
    endloop
  endfacet
  facet normal 0 -1 0
    outer loop
      vertex 18.0877 0 -3.31154
      vertex 21.9123 0 -3.31154
      vertex 22.1869 0 -3.05364
    endloop
  endfacet
  facet normal 0 -1 0
    outer loop
      vertex 18.3925 0 -3.53298
      vertex 21.9123 0 -3.31154
      vertex 18.0877 0 -3.31154
    endloop
  endfacet
  facet normal 0 -1 0
    outer loop
      vertex 18.3925 0 -3.53298
      vertex 21.6075 0 -3.53298
      vertex 21.9123 0 -3.31154
    endloop
  endfacet
  facet normal 0 -1 0
    outer loop
      vertex 18.7227 0 -3.71448
      vertex 21.6075 0 -3.53298
      vertex 18.3925 0 -3.53298
    endloop
  endfacet
  facet normal 0 -1 0
    outer loop
      vertex 18.7227 0 -3.71448
      vertex 21.2773 0 -3.71448
      vertex 21.6075 0 -3.53298
    endloop
  endfacet
  facet normal 0 -1 0
    outer loop
      vertex 19.0729 0 -3.85317
      vertex 21.2773 0 -3.71448
      vertex 18.7227 0 -3.71448
    endloop
  endfacet
  facet normal 0 -1 0
    outer loop
      vertex 19.0729 0 -3.85317
      vertex 20.9271 0 -3.85317
      vertex 21.2773 0 -3.71448
    endloop
  endfacet
  facet normal 0 -1 0
    outer loop
      vertex 19.4379 0 -3.94686
      vertex 20.9271 0 -3.85317
      vertex 19.0729 0 -3.85317
    endloop
  endfacet
  facet normal 0 -1 0
    outer loop
      vertex 19.4379 0 -3.94686
      vertex 20.5621 0 -3.94686
      vertex 20.9271 0 -3.85317
    endloop
  endfacet
  facet normal 0 -1 0
    outer loop
      vertex 19.8116 0 -3.99408
      vertex 20.5621 0 -3.94686
      vertex 19.4379 0 -3.94686
    endloop
  endfacet
  facet normal 0 -1 0
    outer loop
      vertex 20.5621 0 -3.94686
      vertex 19.8116 0 -3.99408
      vertex 20.1884 0 -3.99408
    endloop
  endfacet
  facet normal 0.165316 0.724324 0.669347
    outer loop
      vertex 29.1521 14.4446 5.76537
      vertex 27.5888 14.8014 5.76537
      vertex 28.4772 13.5984 6.84776
    endloop
  endfacet
  facet normal 0 0.716043 -0.698056
    outer loop
      vertex -28.1703 13.7462 -6.84776
      vertex 27.5888 14.8014 -5.76537
      vertex 27.8297 13.7462 -6.84776
    endloop
  endfacet
  facet normal 0 0.716043 -0.698056
    outer loop
      vertex 27.5888 14.8014 -5.76537
      vertex -28.1703 13.7462 -6.84776
      vertex -28.4112 14.8014 -5.76537
    endloop
  endfacet
  facet normal -0.463193 -0.580865 0.669363
    outer loop
      vertex -28.1703 -13.7462 6.84776
      vertex -28.6896 -13.3321 6.84776
      vertex -28.4112 -14.8014 5.76537
    endloop
  endfacet
  facet normal 0.165316 -0.724324 0.669347
    outer loop
      vertex 28.4772 -13.5984 6.84776
      vertex 27.5888 -14.8014 5.76537
      vertex 29.1521 -14.4446 5.76537
    endloop
  endfacet
  facet normal 0 -1 0
    outer loop
      vertex -28.4112 -14.8014 -5.76537
      vertex 27.5888 -14.8014 5.76537
      vertex -28.4112 -14.8014 5.76537
    endloop
  endfacet
  facet normal 0 -1 -0
    outer loop
      vertex 27.5888 -14.8014 5.76537
      vertex -28.4112 -14.8014 -5.76537
      vertex 27.5888 -14.8014 -5.76537
    endloop
  endfacet
  facet normal 0.669358 0.322354 0.669364
    outer loop
      vertex 29.1521 14.4446 5.76537
      vertex 28.7654 13 6.84776
      vertex 29.8478 13 5.76537
    endloop
  endfacet
  facet normal 0.165337 0.724329 -0.669336
    outer loop
      vertex 27.8297 13.7462 -6.84776
      vertex 27.5888 14.8014 -5.76537
      vertex 28.4772 13.5984 -6.84776
    endloop
  endfacet
  facet normal -0.463193 0.580865 -0.669363
    outer loop
      vertex -28.1703 13.7462 -6.84776
      vertex -28.6896 13.3321 -6.84776
      vertex -28.4112 14.8014 -5.76537
    endloop
  endfacet
  facet normal 1 -0 0
    outer loop
      vertex 29.8478 -13 5.76537
      vertex 29.8478 13 -5.76537
      vertex 29.8478 13 5.76537
    endloop
  endfacet
  facet normal 1 0 0
    outer loop
      vertex 29.8478 13 -5.76537
      vertex 29.8478 -13 5.76537
      vertex 29.8478 -13 -5.76537
    endloop
  endfacet
  facet normal -1 0 0
    outer loop
      vertex -29.6648 -13.8017 -5.76537
      vertex -29.6648 13.8017 5.76537
      vertex -29.6648 13.8017 -5.76537
    endloop
  endfacet
  facet normal -1 -0 0
    outer loop
      vertex -29.6648 13.8017 5.76537
      vertex -29.6648 -13.8017 -5.76537
      vertex -29.6648 -13.8017 5.76537
    endloop
  endfacet
  facet normal 0.165337 0.724329 0.669336
    outer loop
      vertex 28.4772 13.5984 6.84776
      vertex 27.5888 14.8014 5.76537
      vertex 27.8297 13.7462 6.84776
    endloop
  endfacet
  facet normal -0.463215 -0.580861 0.669352
    outer loop
      vertex -28.6896 -13.3321 6.84776
      vertex -29.6648 -13.8017 5.76537
      vertex -28.4112 -14.8014 5.76537
    endloop
  endfacet
  facet normal 0.165316 -0.724324 -0.669347
    outer loop
      vertex 29.1521 -14.4446 -5.76537
      vertex 27.5888 -14.8014 -5.76537
      vertex 28.4772 -13.5984 -6.84776
    endloop
  endfacet
  facet normal 0 -0.716043 0.698056
    outer loop
      vertex 27.5888 -14.8014 5.76537
      vertex -28.1703 -13.7462 6.84776
      vertex -28.4112 -14.8014 5.76537
    endloop
  endfacet
  facet normal 0 -0.716043 0.698056
    outer loop
      vertex -28.1703 -13.7462 6.84776
      vertex 27.5888 -14.8014 5.76537
      vertex 27.8297 -13.7462 6.84776
    endloop
  endfacet
  facet normal -0.742936 0 0.669362
    outer loop
      vertex -29.6648 13.8017 5.76537
      vertex -28.6896 -13.3321 6.84776
      vertex -28.6896 13.3321 6.84776
    endloop
  endfacet
  facet normal -0.742936 0 0.669362
    outer loop
      vertex -28.6896 -13.3321 6.84776
      vertex -29.6648 13.8017 5.76537
      vertex -29.6648 -13.8017 5.76537
    endloop
  endfacet
  facet normal 0.222513 0.97493 -0
    outer loop
      vertex 29.1521 14.4446 -5.76537
      vertex 27.5888 14.8014 5.76537
      vertex 29.1521 14.4446 5.76537
    endloop
  endfacet
  facet normal 0.222513 0.97493 0
    outer loop
      vertex 27.5888 14.8014 5.76537
      vertex 29.1521 14.4446 -5.76537
      vertex 27.5888 14.8014 -5.76537
    endloop
  endfacet
  facet normal 0.165316 0.724324 -0.669347
    outer loop
      vertex 28.4772 13.5984 -6.84776
      vertex 27.5888 14.8014 -5.76537
      vertex 29.1521 14.4446 -5.76537
    endloop
  endfacet
  facet normal -0.463215 0.580861 -0.669352
    outer loop
      vertex -28.6896 13.3321 -6.84776
      vertex -29.6648 13.8017 -5.76537
      vertex -28.4112 14.8014 -5.76537
    endloop
  endfacet
  facet normal 0.165337 -0.724329 0.669336
    outer loop
      vertex 27.8297 -13.7462 6.84776
      vertex 27.5888 -14.8014 5.76537
      vertex 28.4772 -13.5984 6.84776
    endloop
  endfacet
  facet normal -0.463193 0.580865 0.669363
    outer loop
      vertex -28.4112 14.8014 5.76537
      vertex -28.6896 13.3321 6.84776
      vertex -28.1703 13.7462 6.84776
    endloop
  endfacet
  facet normal 0.669341 0.322366 0.669375
    outer loop
      vertex 29.1521 14.4446 5.76537
      vertex 28.4772 13.5984 6.84776
      vertex 28.7654 13 6.84776
    endloop
  endfacet
  facet normal 0.669358 0.322354 -0.669364
    outer loop
      vertex 29.8478 13 -5.76537
      vertex 28.7654 13 -6.84776
      vertex 29.1521 14.4446 -5.76537
    endloop
  endfacet
  facet normal 0.707104 0 0.70711
    outer loop
      vertex 28.7654 13 6.84776
      vertex 29.8478 -13 5.76537
      vertex 29.8478 13 5.76537
    endloop
  endfacet
  facet normal 0.707104 0 0.70711
    outer loop
      vertex 29.8478 -13 5.76537
      vertex 28.7654 13 6.84776
      vertex 28.7654 -13 6.84776
    endloop
  endfacet
  facet normal -0.463215 0.580861 0.669352
    outer loop
      vertex -28.4112 14.8014 5.76537
      vertex -29.6648 13.8017 5.76537
      vertex -28.6896 13.3321 6.84776
    endloop
  endfacet
  facet normal -0.742936 0 -0.669362
    outer loop
      vertex -28.6896 -13.3321 -6.84776
      vertex -29.6648 13.8017 -5.76537
      vertex -28.6896 13.3321 -6.84776
    endloop
  endfacet
  facet normal -0.742936 -0 -0.669362
    outer loop
      vertex -29.6648 13.8017 -5.76537
      vertex -28.6896 -13.3321 -6.84776
      vertex -29.6648 -13.8017 -5.76537
    endloop
  endfacet
  facet normal -0.463215 -0.580861 -0.669352
    outer loop
      vertex -28.4112 -14.8014 -5.76537
      vertex -29.6648 -13.8017 -5.76537
      vertex -28.6896 -13.3321 -6.84776
    endloop
  endfacet
  facet normal 0 0 -1
    outer loop
      vertex 27.8297 -13.7462 -6.84776
      vertex 28.7654 -13 -6.84776
      vertex 28.4772 -13.5984 -6.84776
    endloop
  endfacet
  facet normal -0 0 -1
    outer loop
      vertex 28.7654 -13 -6.84776
      vertex 27.8297 -13.7462 -6.84776
      vertex 28.7654 13 -6.84776
    endloop
  endfacet
  facet normal 0 0 -1
    outer loop
      vertex 27.8297 13.7462 -6.84776
      vertex 28.7654 13 -6.84776
      vertex 27.8297 -13.7462 -6.84776
    endloop
  endfacet
  facet normal 0 0 -1
    outer loop
      vertex 28.7654 13 -6.84776
      vertex 27.8297 13.7462 -6.84776
      vertex 28.4772 13.5984 -6.84776
    endloop
  endfacet
  facet normal 0 0 -1
    outer loop
      vertex -28.1703 -13.7462 -6.84776
      vertex 27.8297 13.7462 -6.84776
      vertex 27.8297 -13.7462 -6.84776
    endloop
  endfacet
  facet normal 0 0 -1
    outer loop
      vertex -28.1703 -13.7462 -6.84776
      vertex -28.1703 13.7462 -6.84776
      vertex 27.8297 13.7462 -6.84776
    endloop
  endfacet
  facet normal 0 0 -1
    outer loop
      vertex -28.6896 -13.3321 -6.84776
      vertex -28.1703 13.7462 -6.84776
      vertex -28.1703 -13.7462 -6.84776
    endloop
  endfacet
  facet normal 0 0 -1
    outer loop
      vertex -28.1703 13.7462 -6.84776
      vertex -28.6896 -13.3321 -6.84776
      vertex -28.6896 13.3321 -6.84776
    endloop
  endfacet
  facet normal 0.707104 0 -0.70711
    outer loop
      vertex 28.7654 -13 -6.84776
      vertex 29.8478 13 -5.76537
      vertex 29.8478 -13 -5.76537
    endloop
  endfacet
  facet normal 0.707104 0 -0.70711
    outer loop
      vertex 29.8478 13 -5.76537
      vertex 28.7654 -13 -6.84776
      vertex 28.7654 13 -6.84776
    endloop
  endfacet
  facet normal -0.623485 -0.781835 0
    outer loop
      vertex -29.6648 -13.8017 -5.76537
      vertex -28.4112 -14.8014 5.76537
      vertex -29.6648 -13.8017 5.76537
    endloop
  endfacet
  facet normal -0.623485 -0.781835 -0
    outer loop
      vertex -28.4112 -14.8014 5.76537
      vertex -29.6648 -13.8017 -5.76537
      vertex -28.4112 -14.8014 -5.76537
    endloop
  endfacet
  facet normal 0.669341 -0.322366 0.669375
    outer loop
      vertex 28.7654 -13 6.84776
      vertex 28.4772 -13.5984 6.84776
      vertex 29.1521 -14.4446 5.76537
    endloop
  endfacet
  facet normal 0.669358 -0.322354 0.669364
    outer loop
      vertex 29.8478 -13 5.76537
      vertex 28.7654 -13 6.84776
      vertex 29.1521 -14.4446 5.76537
    endloop
  endfacet
  facet normal -0.623485 0.781835 0
    outer loop
      vertex -28.4112 14.8014 -5.76537
      vertex -29.6648 13.8017 5.76537
      vertex -28.4112 14.8014 5.76537
    endloop
  endfacet
  facet normal -0.623485 0.781835 0
    outer loop
      vertex -29.6648 13.8017 5.76537
      vertex -28.4112 14.8014 -5.76537
      vertex -29.6648 13.8017 -5.76537
    endloop
  endfacet
  facet normal 0.222513 -0.97493 0
    outer loop
      vertex 27.5888 -14.8014 -5.76537
      vertex 29.1521 -14.4446 5.76537
      vertex 27.5888 -14.8014 5.76537
    endloop
  endfacet
  facet normal 0.222513 -0.97493 0
    outer loop
      vertex 29.1521 -14.4446 5.76537
      vertex 27.5888 -14.8014 -5.76537
      vertex 29.1521 -14.4446 -5.76537
    endloop
  endfacet
  facet normal 0 0 1
    outer loop
      vertex 27.8297 13.7462 6.84776
      vertex 28.7654 13 6.84776
      vertex 28.4772 13.5984 6.84776
    endloop
  endfacet
  facet normal 0 0 1
    outer loop
      vertex 28.7654 13 6.84776
      vertex 27.8297 13.7462 6.84776
      vertex 28.7654 -13 6.84776
    endloop
  endfacet
  facet normal 0 0 1
    outer loop
      vertex 27.8297 -13.7462 6.84776
      vertex 28.7654 -13 6.84776
      vertex 27.8297 13.7462 6.84776
    endloop
  endfacet
  facet normal 0 0 1
    outer loop
      vertex 28.7654 -13 6.84776
      vertex 27.8297 -13.7462 6.84776
      vertex 28.4772 -13.5984 6.84776
    endloop
  endfacet
  facet normal -0 0 1
    outer loop
      vertex -28.1703 13.7462 6.84776
      vertex 27.8297 -13.7462 6.84776
      vertex 27.8297 13.7462 6.84776
    endloop
  endfacet
  facet normal 0 0 1
    outer loop
      vertex -28.1703 13.7462 6.84776
      vertex -28.1703 -13.7462 6.84776
      vertex 27.8297 -13.7462 6.84776
    endloop
  endfacet
  facet normal -0 0 1
    outer loop
      vertex -28.6896 13.3321 6.84776
      vertex -28.1703 -13.7462 6.84776
      vertex -28.1703 13.7462 6.84776
    endloop
  endfacet
  facet normal 0 0 1
    outer loop
      vertex -28.1703 -13.7462 6.84776
      vertex -28.6896 13.3321 6.84776
      vertex -28.6896 -13.3321 6.84776
    endloop
  endfacet
  facet normal 0.900965 0.433893 0
    outer loop
      vertex 29.8478 13 5.76537
      vertex 29.1521 14.4446 -5.76537
      vertex 29.1521 14.4446 5.76537
    endloop
  endfacet
  facet normal 0.900965 0.433893 0
    outer loop
      vertex 29.1521 14.4446 -5.76537
      vertex 29.8478 13 5.76537
      vertex 29.8478 13 -5.76537
    endloop
  endfacet
  facet normal 0.900965 -0.433893 0
    outer loop
      vertex 29.1521 -14.4446 5.76537
      vertex 29.8478 -13 -5.76537
      vertex 29.8478 -13 5.76537
    endloop
  endfacet
  facet normal 0.900965 -0.433893 0
    outer loop
      vertex 29.8478 -13 -5.76537
      vertex 29.1521 -14.4446 5.76537
      vertex 29.1521 -14.4446 -5.76537
    endloop
  endfacet
  facet normal 0.165337 -0.724329 -0.669336
    outer loop
      vertex 28.4772 -13.5984 -6.84776
      vertex 27.5888 -14.8014 -5.76537
      vertex 27.8297 -13.7462 -6.84776
    endloop
  endfacet
  facet normal 0 1 -0
    outer loop
      vertex 27.5888 14.8014 -5.76537
      vertex -28.4112 14.8014 5.76537
      vertex 27.5888 14.8014 5.76537
    endloop
  endfacet
  facet normal 0 1 0
    outer loop
      vertex -28.4112 14.8014 5.76537
      vertex 27.5888 14.8014 -5.76537
      vertex -28.4112 14.8014 -5.76537
    endloop
  endfacet
  facet normal -0.463193 -0.580865 -0.669363
    outer loop
      vertex -28.4112 -14.8014 -5.76537
      vertex -28.6896 -13.3321 -6.84776
      vertex -28.1703 -13.7462 -6.84776
    endloop
  endfacet
  facet normal 0.669358 -0.322354 -0.669364
    outer loop
      vertex 29.1521 -14.4446 -5.76537
      vertex 28.7654 -13 -6.84776
      vertex 29.8478 -13 -5.76537
    endloop
  endfacet
  facet normal 0 0.716043 0.698056
    outer loop
      vertex 27.5888 14.8014 5.76537
      vertex -28.1703 13.7462 6.84776
      vertex 27.8297 13.7462 6.84776
    endloop
  endfacet
  facet normal 0 0.716043 0.698056
    outer loop
      vertex -28.1703 13.7462 6.84776
      vertex 27.5888 14.8014 5.76537
      vertex -28.4112 14.8014 5.76537
    endloop
  endfacet
  facet normal 0 -0.716043 -0.698056
    outer loop
      vertex -28.1703 -13.7462 -6.84776
      vertex 27.5888 -14.8014 -5.76537
      vertex -28.4112 -14.8014 -5.76537
    endloop
  endfacet
  facet normal 0 -0.716043 -0.698056
    outer loop
      vertex 27.5888 -14.8014 -5.76537
      vertex -28.1703 -13.7462 -6.84776
      vertex 27.8297 -13.7462 -6.84776
    endloop
  endfacet
  facet normal 0.669341 0.322366 -0.669375
    outer loop
      vertex 28.7654 13 -6.84776
      vertex 28.4772 13.5984 -6.84776
      vertex 29.1521 14.4446 -5.76537
    endloop
  endfacet
  facet normal 0.669341 -0.322366 -0.669375
    outer loop
      vertex 29.1521 -14.4446 -5.76537
      vertex 28.4772 -13.5984 -6.84776
      vertex 28.7654 -13 -6.84776
    endloop
  endfacet
endsolid OpenSCAD_Model
