solid OpenSCAD_Model
  facet normal -0.894428 0.447212 0
    outer loop
      vertex 0.767126 2.03425 0
      vertex 1 2.5 1.2
      vertex 1 2.5 0
    endloop
  endfacet
  facet normal -0.894428 0.447212 0
    outer loop
      vertex 1 2.5 1.2
      vertex 0.767126 2.03425 0
      vertex 0.767126 2.03425 1.2
    endloop
  endfacet
  facet normal 0.83205 -0.5547 0
    outer loop
      vertex 6 0 1.2
      vertex 7 1.5 0
      vertex 7 1.5 1.2
    endloop
  endfacet
  facet normal 0.83205 -0.5547 0
    outer loop
      vertex 7 1.5 0
      vertex 6 0 1.2
      vertex 6 0 0
    endloop
  endfacet
  facet normal -0.316228 0.948683 0
    outer loop
      vertex 3.5 4 0
      vertex 2 3.5 1.2
      vertex 3.5 4 1.2
    endloop
  endfacet
  facet normal -0.316228 0.948683 0
    outer loop
      vertex 2 3.5 1.2
      vertex 3.5 4 0
      vertex 2 3.5 0
    endloop
  endfacet
  facet normal -0.707107 0.707107 0
    outer loop
      vertex 1 2.5 0
      vertex 2 3.5 1.2
      vertex 2 3.5 0
    endloop
  endfacet
  facet normal -0.707107 0.707107 0
    outer loop
      vertex 2 3.5 1.2
      vertex 1 2.5 0
      vertex 1 2.5 1.2
    endloop
  endfacet
  facet normal -0.948683 0.316228 0
    outer loop
      vertex 0 0 0
      vertex 0.310409 0.931226 1.2
      vertex 0.310409 0.931226 0
    endloop
  endfacet
  facet normal -0.948683 0.316228 0
    outer loop
      vertex 0.310409 0.931226 1.2
      vertex 0 0 0
      vertex 0 0 1.2
    endloop
  endfacet
  facet normal 0 -1 0
    outer loop
      vertex 0 0 0
      vertex 6 0 1.2
      vertex 0 0 1.2
    endloop
  endfacet
  facet normal 0 -1 -0
    outer loop
      vertex 6 0 1.2
      vertex 0 0 0
      vertex 6 0 0
    endloop
  endfacet
  facet normal 0.83205 0.5547 0
    outer loop
      vertex 7 1.5 1.2
      vertex 6 3 0
      vertex 6 3 1.2
    endloop
  endfacet
  facet normal 0.83205 0.5547 0
    outer loop
      vertex 6 3 0
      vertex 7 1.5 1.2
      vertex 7 1.5 0
    endloop
  endfacet
  facet normal 0 0 -1
    outer loop
      vertex 6 0 0
      vertex 6 3 0
      vertex 7 1.5 0
    endloop
  endfacet
  facet normal 0 0 -1
    outer loop
      vertex 6 0 0
      vertex 3.5 4 0
      vertex 6 3 0
    endloop
  endfacet
  facet normal 0 0 -1
    outer loop
      vertex 1.1 1.5 0
      vertex 3.5 4 0
      vertex 6 0 0
    endloop
  endfacet
  facet normal 0 0 -1
    outer loop
      vertex 3.5 4 0
      vertex 1.1 1.5 0
      vertex 2 3.5 0
    endloop
  endfacet
  facet normal 0 0 -1
    outer loop
      vertex 6 0 0
      vertex 1.08689 1.37525 0
      vertex 1.1 1.5 0
    endloop
  endfacet
  facet normal 0 0 -1
    outer loop
      vertex 6 0 0
      vertex 1.04813 1.25596 0
      vertex 1.08689 1.37525 0
    endloop
  endfacet
  facet normal 0 0 -1
    outer loop
      vertex 6 0 0
      vertex 0.98541 1.14733 0
      vertex 1.04813 1.25596 0
    endloop
  endfacet
  facet normal 0 0 -1
    outer loop
      vertex 6 0 0
      vertex 0.901478 1.05411 0
      vertex 0.98541 1.14733 0
    endloop
  endfacet
  facet normal 0 0 -1
    outer loop
      vertex 0 0 0
      vertex 0.901478 1.05411 0
      vertex 6 0 0
    endloop
  endfacet
  facet normal 0 0 -1
    outer loop
      vertex 0.901478 1.05411 0
      vertex 0 0 0
      vertex 0.799999 0.980384 0
    endloop
  endfacet
  facet normal 0 0 -1
    outer loop
      vertex 0.799999 0.980384 0
      vertex 0 0 0
      vertex 0.68541 0.929365 0
    endloop
  endfacet
  facet normal 0 0 -1
    outer loop
      vertex 0.68541 0.929365 0
      vertex 0 0 0
      vertex 0.562716 0.903286 0
    endloop
  endfacet
  facet normal -0 0 -1
    outer loop
      vertex 0.31459 0.929365 0
      vertex 0 0 0
      vertex 0.310409 0.931226 0
    endloop
  endfacet
  facet normal -0 0 -1
    outer loop
      vertex 0.437283 0.903286 0
      vertex 0 0 0
      vertex 0.31459 0.929365 0
    endloop
  endfacet
  facet normal -0 0 -1
    outer loop
      vertex 0.562716 0.903286 0
      vertex 0 0 0
      vertex 0.437283 0.903286 0
    endloop
  endfacet
  facet normal 0 0 -1
    outer loop
      vertex 1.08689 1.62475 0
      vertex 2 3.5 0
      vertex 1.1 1.5 0
    endloop
  endfacet
  facet normal 0 0 -1
    outer loop
      vertex 1.04813 1.74404 0
      vertex 2 3.5 0
      vertex 1.08689 1.62475 0
    endloop
  endfacet
  facet normal 0 0 -1
    outer loop
      vertex 1.04813 1.74404 0
      vertex 1 2.5 0
      vertex 2 3.5 0
    endloop
  endfacet
  facet normal 0 0 -1
    outer loop
      vertex 0.98541 1.85267 0
      vertex 1 2.5 0
      vertex 1.04813 1.74404 0
    endloop
  endfacet
  facet normal 0 0 -1
    outer loop
      vertex 0.901478 1.94589 0
      vertex 1 2.5 0
      vertex 0.98541 1.85267 0
    endloop
  endfacet
  facet normal 0 0 -1
    outer loop
      vertex 0.799999 2.01962 0
      vertex 1 2.5 0
      vertex 0.901478 1.94589 0
    endloop
  endfacet
  facet normal 0 0 -1
    outer loop
      vertex 1 2.5 0
      vertex 0.799999 2.01962 0
      vertex 0.767126 2.03425 0
    endloop
  endfacet
  facet normal 0.371391 0.928477 -0
    outer loop
      vertex 6 3 0
      vertex 3.5 4 1.2
      vertex 6 3 1.2
    endloop
  endfacet
  facet normal 0.371391 0.928477 0
    outer loop
      vertex 3.5 4 1.2
      vertex 6 3 0
      vertex 3.5 4 0
    endloop
  endfacet
  facet normal 0 0 1
    outer loop
      vertex 2 3.5 1.2
      vertex 1.08689 1.62475 1.2
      vertex 1.1 1.5 1.2
    endloop
  endfacet
  facet normal 0 0 1
    outer loop
      vertex 2 3.5 1.2
      vertex 1.04813 1.74404 1.2
      vertex 1.08689 1.62475 1.2
    endloop
  endfacet
  facet normal -0 0 1
    outer loop
      vertex 1 2.5 1.2
      vertex 1.04813 1.74404 1.2
      vertex 2 3.5 1.2
    endloop
  endfacet
  facet normal 0 0 1
    outer loop
      vertex 1 2.5 1.2
      vertex 0.98541 1.85267 1.2
      vertex 1.04813 1.74404 1.2
    endloop
  endfacet
  facet normal 0 0 1
    outer loop
      vertex 1 2.5 1.2
      vertex 0.901478 1.94589 1.2
      vertex 0.98541 1.85267 1.2
    endloop
  endfacet
  facet normal 0 0 1
    outer loop
      vertex 1 2.5 1.2
      vertex 0.799999 2.01962 1.2
      vertex 0.901478 1.94589 1.2
    endloop
  endfacet
  facet normal 0 -0 1
    outer loop
      vertex 0.799999 2.01962 1.2
      vertex 1 2.5 1.2
      vertex 0.767126 2.03425 1.2
    endloop
  endfacet
  facet normal 0 0 1
    outer loop
      vertex 6 3 1.2
      vertex 6 0 1.2
      vertex 7 1.5 1.2
    endloop
  endfacet
  facet normal 0 0 1
    outer loop
      vertex 3.5 4 1.2
      vertex 6 0 1.2
      vertex 6 3 1.2
    endloop
  endfacet
  facet normal 0 0 1
    outer loop
      vertex 1.1 1.5 1.2
      vertex 3.5 4 1.2
      vertex 2 3.5 1.2
    endloop
  endfacet
  facet normal 0 0 1
    outer loop
      vertex 3.5 4 1.2
      vertex 1.1 1.5 1.2
      vertex 6 0 1.2
    endloop
  endfacet
  facet normal -0 0 1
    outer loop
      vertex 1.08689 1.37525 1.2
      vertex 6 0 1.2
      vertex 1.1 1.5 1.2
    endloop
  endfacet
  facet normal -0 0 1
    outer loop
      vertex 1.04813 1.25596 1.2
      vertex 6 0 1.2
      vertex 1.08689 1.37525 1.2
    endloop
  endfacet
  facet normal -0 0 1
    outer loop
      vertex 0.98541 1.14733 1.2
      vertex 6 0 1.2
      vertex 1.04813 1.25596 1.2
    endloop
  endfacet
  facet normal -0 0 1
    outer loop
      vertex 0.901478 1.05411 1.2
      vertex 6 0 1.2
      vertex 0.98541 1.14733 1.2
    endloop
  endfacet
  facet normal 0 0 1
    outer loop
      vertex 0 0 1.2
      vertex 0.901478 1.05411 1.2
      vertex 0.799999 0.980384 1.2
    endloop
  endfacet
  facet normal 0 0 1
    outer loop
      vertex 0 0 1.2
      vertex 0.799999 0.980384 1.2
      vertex 0.68541 0.929365 1.2
    endloop
  endfacet
  facet normal 0 0 1
    outer loop
      vertex 0 0 1.2
      vertex 0.68541 0.929365 1.2
      vertex 0.562716 0.903286 1.2
    endloop
  endfacet
  facet normal 0 0 1
    outer loop
      vertex 0 0 1.2
      vertex 0.562716 0.903286 1.2
      vertex 0.437283 0.903286 1.2
    endloop
  endfacet
  facet normal 0 0 1
    outer loop
      vertex 0.901478 1.05411 1.2
      vertex 0 0 1.2
      vertex 6 0 1.2
    endloop
  endfacet
  facet normal 0 0 1
    outer loop
      vertex 0.31459 0.929365 1.2
      vertex 0 0 1.2
      vertex 0.437283 0.903286 1.2
    endloop
  endfacet
  facet normal 0 0 1
    outer loop
      vertex 0 0 1.2
      vertex 0.31459 0.929365 1.2
      vertex 0.310409 0.931226 1.2
    endloop
  endfacet
  facet normal -0.951056 0.309019 0
    outer loop
      vertex 1.04813 1.25596 0
      vertex 1.08689 1.37525 1.2
      vertex 1.08689 1.37525 0
    endloop
  endfacet
  facet normal -0.951056 0.309019 0
    outer loop
      vertex 1.08689 1.37525 1.2
      vertex 1.04813 1.25596 0
      vertex 1.04813 1.25596 1.2
    endloop
  endfacet
  facet normal -0.951056 -0.309019 0
    outer loop
      vertex 1.08689 1.62475 0
      vertex 1.04813 1.74404 1.2
      vertex 1.04813 1.74404 0
    endloop
  endfacet
  facet normal -0.951056 -0.309019 0
    outer loop
      vertex 1.04813 1.74404 1.2
      vertex 1.08689 1.62475 0
      vertex 1.08689 1.62475 1.2
    endloop
  endfacet
  facet normal -0.994523 -0.104515 0
    outer loop
      vertex 1.1 1.5 0
      vertex 1.08689 1.62475 1.2
      vertex 1.08689 1.62475 0
    endloop
  endfacet
  facet normal -0.994523 -0.104515 0
    outer loop
      vertex 1.08689 1.62475 1.2
      vertex 1.1 1.5 0
      vertex 1.1 1.5 1.2
    endloop
  endfacet
  facet normal -0.866017 -0.500015 0
    outer loop
      vertex 1.04813 1.74404 0
      vertex 0.98541 1.85267 1.2
      vertex 0.98541 1.85267 0
    endloop
  endfacet
  facet normal -0.866017 -0.500015 0
    outer loop
      vertex 0.98541 1.85267 1.2
      vertex 1.04813 1.74404 0
      vertex 1.04813 1.74404 1.2
    endloop
  endfacet
  facet normal 0.20791 0.978148 -0
    outer loop
      vertex 0.437283 0.903286 0
      vertex 0.31459 0.929365 1.2
      vertex 0.437283 0.903286 1.2
    endloop
  endfacet
  facet normal 0.20791 0.978148 0
    outer loop
      vertex 0.31459 0.929365 1.2
      vertex 0.437283 0.903286 0
      vertex 0.31459 0.929365 0
    endloop
  endfacet
  facet normal 0.406645 0.913586 -0
    outer loop
      vertex 0.31459 0.929365 0
      vertex 0.310409 0.931226 1.2
      vertex 0.31459 0.929365 1.2
    endloop
  endfacet
  facet normal 0.406645 0.913586 0
    outer loop
      vertex 0.310409 0.931226 1.2
      vertex 0.31459 0.929365 0
      vertex 0.310409 0.931226 0
    endloop
  endfacet
  facet normal -0.994523 0.104515 0
    outer loop
      vertex 1.08689 1.37525 0
      vertex 1.1 1.5 1.2
      vertex 1.1 1.5 0
    endloop
  endfacet
  facet normal -0.994523 0.104515 0
    outer loop
      vertex 1.1 1.5 1.2
      vertex 1.08689 1.37525 0
      vertex 1.08689 1.37525 1.2
    endloop
  endfacet
  facet normal -0.587771 0.809028 0
    outer loop
      vertex 0.901478 1.05411 0
      vertex 0.799999 0.980384 1.2
      vertex 0.901478 1.05411 1.2
    endloop
  endfacet
  facet normal -0.587771 0.809028 0
    outer loop
      vertex 0.799999 0.980384 1.2
      vertex 0.901478 1.05411 0
      vertex 0.799999 0.980384 0
    endloop
  endfacet
  facet normal -0.743159 -0.669114 0
    outer loop
      vertex 0.98541 1.85267 0
      vertex 0.901478 1.94589 1.2
      vertex 0.901478 1.94589 0
    endloop
  endfacet
  facet normal -0.743159 -0.669114 0
    outer loop
      vertex 0.901478 1.94589 1.2
      vertex 0.98541 1.85267 0
      vertex 0.98541 1.85267 1.2
    endloop
  endfacet
  facet normal -0.406741 0.913543 0
    outer loop
      vertex 0.799999 0.980384 0
      vertex 0.68541 0.929365 1.2
      vertex 0.799999 0.980384 1.2
    endloop
  endfacet
  facet normal -0.406741 0.913543 0
    outer loop
      vertex 0.68541 0.929365 1.2
      vertex 0.799999 0.980384 0
      vertex 0.68541 0.929365 0
    endloop
  endfacet
  facet normal -0.866017 0.500015 0
    outer loop
      vertex 0.98541 1.14733 0
      vertex 1.04813 1.25596 1.2
      vertex 1.04813 1.25596 0
    endloop
  endfacet
  facet normal -0.866017 0.500015 0
    outer loop
      vertex 1.04813 1.25596 1.2
      vertex 0.98541 1.14733 0
      vertex 0.98541 1.14733 1.2
    endloop
  endfacet
  facet normal 0 1 -0
    outer loop
      vertex 0.562716 0.903286 0
      vertex 0.437283 0.903286 1.2
      vertex 0.562716 0.903286 1.2
    endloop
  endfacet
  facet normal 0 1 0
    outer loop
      vertex 0.437283 0.903286 1.2
      vertex 0.562716 0.903286 0
      vertex 0.437283 0.903286 0
    endloop
  endfacet
  facet normal -0.587791 -0.809012 0
    outer loop
      vertex 0.799999 2.01962 0
      vertex 0.901478 1.94589 1.2
      vertex 0.799999 2.01962 1.2
    endloop
  endfacet
  facet normal -0.587791 -0.809012 -0
    outer loop
      vertex 0.901478 1.94589 1.2
      vertex 0.799999 2.01962 0
      vertex 0.901478 1.94589 0
    endloop
  endfacet
  facet normal -0.406597 -0.913607 0
    outer loop
      vertex 0.767126 2.03425 0
      vertex 0.799999 2.01962 1.2
      vertex 0.767126 2.03425 1.2
    endloop
  endfacet
  facet normal -0.406597 -0.913607 -0
    outer loop
      vertex 0.799999 2.01962 1.2
      vertex 0.767126 2.03425 0
      vertex 0.799999 2.01962 0
    endloop
  endfacet
  facet normal -0.207909 0.978148 0
    outer loop
      vertex 0.68541 0.929365 0
      vertex 0.562716 0.903286 1.2
      vertex 0.68541 0.929365 1.2
    endloop
  endfacet
  facet normal -0.207909 0.978148 0
    outer loop
      vertex 0.562716 0.903286 1.2
      vertex 0.68541 0.929365 0
      vertex 0.562716 0.903286 0
    endloop
  endfacet
  facet normal -0.743159 0.669114 0
    outer loop
      vertex 0.901478 1.05411 0
      vertex 0.98541 1.14733 1.2
      vertex 0.98541 1.14733 0
    endloop
  endfacet
  facet normal -0.743159 0.669114 0
    outer loop
      vertex 0.98541 1.14733 1.2
      vertex 0.901478 1.05411 0
      vertex 0.901478 1.05411 1.2
    endloop
  endfacet
endsolid OpenSCAD_Model
