solid OpenSCAD_Model
  facet normal 0 0 1
    outer loop
      vertex 0 0 20
      vertex 19.4986 4.45042 20
      vertex 18.0194 8.67767 20
    endloop
  endfacet
  facet normal 0 0 1
    outer loop
      vertex 0 0 20
      vertex 18.0194 8.67767 20
      vertex 15.6366 12.4698 20
    endloop
  endfacet
  facet normal 0 0 1
    outer loop
      vertex 0 0 20
      vertex 15.6366 12.4698 20
      vertex 12.4698 15.6366 20
    endloop
  endfacet
  facet normal 0 0 1
    outer loop
      vertex 0 0 20
      vertex 12.4698 15.6366 20
      vertex 8.67767 18.0194 20
    endloop
  endfacet
  facet normal 0 0 1
    outer loop
      vertex 0 0 20
      vertex 8.67767 18.0194 20
      vertex 4.45042 19.4986 20
    endloop
  endfacet
  facet normal 0 0 1
    outer loop
      vertex 0 0 20
      vertex 4.45042 19.4986 20
      vertex 0 20 20
    endloop
  endfacet
  facet normal 0 0 1
    outer loop
      vertex 19.4986 4.45042 20
      vertex 0 0 20
      vertex 20 0 20
    endloop
  endfacet
  facet normal -0 0 1
    outer loop
      vertex -4.45042 19.4986 20
      vertex 0 0 20
      vertex 0 20 20
    endloop
  endfacet
  facet normal -0 0 1
    outer loop
      vertex -8.67767 18.0194 20
      vertex 0 0 20
      vertex -4.45042 19.4986 20
    endloop
  endfacet
  facet normal 0 0 1
    outer loop
      vertex 0 0 20
      vertex -4.45042 -19.4986 20
      vertex 0 -20 20
    endloop
  endfacet
  facet normal -0 0 1
    outer loop
      vertex -12.4698 15.6366 20
      vertex 0 0 20
      vertex -8.67767 18.0194 20
    endloop
  endfacet
  facet normal 0 0 1
    outer loop
      vertex 0 0 20
      vertex -8.67767 -18.0194 20
      vertex -4.45042 -19.4986 20
    endloop
  endfacet
  facet normal -0 0 1
    outer loop
      vertex -15.6366 12.4698 20
      vertex 0 0 20
      vertex -12.4698 15.6366 20
    endloop
  endfacet
  facet normal 0 0 1
    outer loop
      vertex 0 0 20
      vertex -12.4698 -15.6366 20
      vertex -8.67767 -18.0194 20
    endloop
  endfacet
  facet normal -0 0 1
    outer loop
      vertex -18.0194 8.67767 20
      vertex 0 0 20
      vertex -15.6366 12.4698 20
    endloop
  endfacet
  facet normal 0 0 1
    outer loop
      vertex 0 0 20
      vertex -15.6366 -12.4698 20
      vertex -12.4698 -15.6366 20
    endloop
  endfacet
  facet normal -0 0 1
    outer loop
      vertex -19.4986 4.45042 20
      vertex 0 0 20
      vertex -18.0194 8.67767 20
    endloop
  endfacet
  facet normal 0 0 1
    outer loop
      vertex 0 0 20
      vertex -18.0194 -8.67767 20
      vertex -15.6366 -12.4698 20
    endloop
  endfacet
  facet normal 0 0 1
    outer loop
      vertex -20 0 20
      vertex 0 0 20
      vertex -19.4986 4.45042 20
    endloop
  endfacet
  facet normal 0 0 1
    outer loop
      vertex 0 0 20
      vertex -19.4986 -4.45042 20
      vertex -18.0194 -8.67767 20
    endloop
  endfacet
  facet normal 0 0 1
    outer loop
      vertex 0 0 20
      vertex -20 0 20
      vertex -19.4986 -4.45042 20
    endloop
  endfacet
  facet normal 0 0 -1
    outer loop
      vertex -4.45042 -19.4986 0
      vertex 0 0 0
      vertex 0 -20 0
    endloop
  endfacet
  facet normal 0 0 -1
    outer loop
      vertex -8.67767 -18.0194 0
      vertex 0 0 0
      vertex -4.45042 -19.4986 0
    endloop
  endfacet
  facet normal 0 0 -1
    outer loop
      vertex 0 0 0
      vertex -4.45042 19.4986 0
      vertex 0 20 0
    endloop
  endfacet
  facet normal 0 0 -1
    outer loop
      vertex -12.4698 -15.6366 0
      vertex 0 0 0
      vertex -8.67767 -18.0194 0
    endloop
  endfacet
  facet normal 0 0 -1
    outer loop
      vertex 0 0 0
      vertex -8.67767 18.0194 0
      vertex -4.45042 19.4986 0
    endloop
  endfacet
  facet normal 0 0 -1
    outer loop
      vertex -15.6366 -12.4698 0
      vertex 0 0 0
      vertex -12.4698 -15.6366 0
    endloop
  endfacet
  facet normal 0 0 -1
    outer loop
      vertex 0 0 0
      vertex -12.4698 15.6366 0
      vertex -8.67767 18.0194 0
    endloop
  endfacet
  facet normal 0 0 -1
    outer loop
      vertex -18.0194 -8.67767 0
      vertex 0 0 0
      vertex -15.6366 -12.4698 0
    endloop
  endfacet
  facet normal 0 0 -1
    outer loop
      vertex 0 0 0
      vertex -15.6366 12.4698 0
      vertex -12.4698 15.6366 0
    endloop
  endfacet
  facet normal 0 0 -1
    outer loop
      vertex -19.4986 -4.45042 0
      vertex 0 0 0
      vertex -18.0194 -8.67767 0
    endloop
  endfacet
  facet normal 0 0 -1
    outer loop
      vertex 0 0 0
      vertex -18.0194 8.67767 0
      vertex -15.6366 12.4698 0
    endloop
  endfacet
  facet normal 0 0 -1
    outer loop
      vertex -20 0 0
      vertex 0 0 0
      vertex -19.4986 -4.45042 0
    endloop
  endfacet
  facet normal 0 0 -1
    outer loop
      vertex 0 0 0
      vertex -19.4986 4.45042 0
      vertex -18.0194 8.67767 0
    endloop
  endfacet
  facet normal 0 0 -1
    outer loop
      vertex 0 0 0
      vertex -20 0 0
      vertex -19.4986 4.45042 0
    endloop
  endfacet
  facet normal 0 0 -1
    outer loop
      vertex 0 0 0
      vertex 19.4986 4.45042 0
      vertex 20 0 0
    endloop
  endfacet
  facet normal -0 0 -1
    outer loop
      vertex 19.4986 4.45042 0
      vertex 0 0 0
      vertex 18.0194 8.67767 0
    endloop
  endfacet
  facet normal -0 0 -1
    outer loop
      vertex 18.0194 8.67767 0
      vertex 0 0 0
      vertex 15.6366 12.4698 0
    endloop
  endfacet
  facet normal -0 0 -1
    outer loop
      vertex 15.6366 12.4698 0
      vertex 0 0 0
      vertex 12.4698 15.6366 0
    endloop
  endfacet
  facet normal -0 0 -1
    outer loop
      vertex 12.4698 15.6366 0
      vertex 0 0 0
      vertex 8.67767 18.0194 0
    endloop
  endfacet
  facet normal -0 0 -1
    outer loop
      vertex 8.67767 18.0194 0
      vertex 0 0 0
      vertex 4.45042 19.4986 0
    endloop
  endfacet
  facet normal -0 0 -1
    outer loop
      vertex 4.45042 19.4986 0
      vertex 0 0 0
      vertex 0 20 0
    endloop
  endfacet
  facet normal 0 -1 0
    outer loop
      vertex 0 0 0
      vertex 20 0 20
      vertex 0 0 20
    endloop
  endfacet
  facet normal 0 -1 -0
    outer loop
      vertex 20 0 20
      vertex 0 0 0
      vertex 20 0 0
    endloop
  endfacet
  facet normal 0.993713 0.111955 0
    outer loop
      vertex 20 0 20
      vertex 19.4986 4.45042 0
      vertex 19.4986 4.45042 20
    endloop
  endfacet
  facet normal 0.993713 0.111955 0
    outer loop
      vertex 19.4986 4.45042 0
      vertex 20 0 20
      vertex 20 0 0
    endloop
  endfacet
  facet normal 0.943882 0.330283 0
    outer loop
      vertex 19.4986 4.45042 20
      vertex 18.0194 8.67767 0
      vertex 18.0194 8.67767 20
    endloop
  endfacet
  facet normal 0.943882 0.330283 0
    outer loop
      vertex 18.0194 8.67767 0
      vertex 19.4986 4.45042 20
      vertex 19.4986 4.45042 0
    endloop
  endfacet
  facet normal 0.846719 0.53204 0
    outer loop
      vertex 18.0194 8.67767 20
      vertex 15.6366 12.4698 0
      vertex 15.6366 12.4698 20
    endloop
  endfacet
  facet normal 0.846719 0.53204 0
    outer loop
      vertex 15.6366 12.4698 0
      vertex 18.0194 8.67767 20
      vertex 18.0194 8.67767 0
    endloop
  endfacet
  facet normal 0.707107 0.707107 0
    outer loop
      vertex 15.6366 12.4698 20
      vertex 12.4698 15.6366 0
      vertex 12.4698 15.6366 20
    endloop
  endfacet
  facet normal 0.707107 0.707107 0
    outer loop
      vertex 12.4698 15.6366 0
      vertex 15.6366 12.4698 20
      vertex 15.6366 12.4698 0
    endloop
  endfacet
  facet normal 0.53204 0.846719 -0
    outer loop
      vertex 12.4698 15.6366 0
      vertex 8.67767 18.0194 20
      vertex 12.4698 15.6366 20
    endloop
  endfacet
  facet normal 0.53204 0.846719 0
    outer loop
      vertex 8.67767 18.0194 20
      vertex 12.4698 15.6366 0
      vertex 8.67767 18.0194 0
    endloop
  endfacet
  facet normal 0.330283 0.943882 -0
    outer loop
      vertex 8.67767 18.0194 0
      vertex 4.45042 19.4986 20
      vertex 8.67767 18.0194 20
    endloop
  endfacet
  facet normal 0.330283 0.943882 0
    outer loop
      vertex 4.45042 19.4986 20
      vertex 8.67767 18.0194 0
      vertex 4.45042 19.4986 0
    endloop
  endfacet
  facet normal 0.111955 0.993713 -0
    outer loop
      vertex 4.45042 19.4986 0
      vertex 0 20 20
      vertex 4.45042 19.4986 20
    endloop
  endfacet
  facet normal 0.111955 0.993713 0
    outer loop
      vertex 0 20 20
      vertex 4.45042 19.4986 0
      vertex 0 20 0
    endloop
  endfacet
  facet normal -0.111955 0.993713 0
    outer loop
      vertex 0 20 0
      vertex -4.45042 19.4986 20
      vertex 0 20 20
    endloop
  endfacet
  facet normal -0.111955 0.993713 0
    outer loop
      vertex -4.45042 19.4986 20
      vertex 0 20 0
      vertex -4.45042 19.4986 0
    endloop
  endfacet
  facet normal -0.330283 0.943882 0
    outer loop
      vertex -4.45042 19.4986 0
      vertex -8.67767 18.0194 20
      vertex -4.45042 19.4986 20
    endloop
  endfacet
  facet normal -0.330283 0.943882 0
    outer loop
      vertex -8.67767 18.0194 20
      vertex -4.45042 19.4986 0
      vertex -8.67767 18.0194 0
    endloop
  endfacet
  facet normal -0.53204 0.846719 0
    outer loop
      vertex -8.67767 18.0194 0
      vertex -12.4698 15.6366 20
      vertex -8.67767 18.0194 20
    endloop
  endfacet
  facet normal -0.53204 0.846719 0
    outer loop
      vertex -12.4698 15.6366 20
      vertex -8.67767 18.0194 0
      vertex -12.4698 15.6366 0
    endloop
  endfacet
  facet normal -0.707107 0.707107 0
    outer loop
      vertex -15.6366 12.4698 0
      vertex -12.4698 15.6366 20
      vertex -12.4698 15.6366 0
    endloop
  endfacet
  facet normal -0.707107 0.707107 0
    outer loop
      vertex -12.4698 15.6366 20
      vertex -15.6366 12.4698 0
      vertex -15.6366 12.4698 20
    endloop
  endfacet
  facet normal -0.846719 0.53204 0
    outer loop
      vertex -18.0194 8.67767 0
      vertex -15.6366 12.4698 20
      vertex -15.6366 12.4698 0
    endloop
  endfacet
  facet normal -0.846719 0.53204 0
    outer loop
      vertex -15.6366 12.4698 20
      vertex -18.0194 8.67767 0
      vertex -18.0194 8.67767 20
    endloop
  endfacet
  facet normal -0.943882 0.330283 0
    outer loop
      vertex -19.4986 4.45042 0
      vertex -18.0194 8.67767 20
      vertex -18.0194 8.67767 0
    endloop
  endfacet
  facet normal -0.943882 0.330283 0
    outer loop
      vertex -18.0194 8.67767 20
      vertex -19.4986 4.45042 0
      vertex -19.4986 4.45042 20
    endloop
  endfacet
  facet normal -0.993713 0.111955 0
    outer loop
      vertex -20 0 0
      vertex -19.4986 4.45042 20
      vertex -19.4986 4.45042 0
    endloop
  endfacet
  facet normal -0.993713 0.111955 0
    outer loop
      vertex -19.4986 4.45042 20
      vertex -20 0 0
      vertex -20 0 20
    endloop
  endfacet
  facet normal 1 -0 0
    outer loop
      vertex 0 -20 20
      vertex 0 0 0
      vertex 0 0 20
    endloop
  endfacet
  facet normal 1 0 0
    outer loop
      vertex 0 0 0
      vertex 0 -20 20
      vertex 0 -20 0
    endloop
  endfacet
  facet normal -0.993713 -0.111955 0
    outer loop
      vertex -19.4986 -4.45042 0
      vertex -20 0 20
      vertex -20 0 0
    endloop
  endfacet
  facet normal -0.993713 -0.111955 0
    outer loop
      vertex -20 0 20
      vertex -19.4986 -4.45042 0
      vertex -19.4986 -4.45042 20
    endloop
  endfacet
  facet normal -0.943882 -0.330283 0
    outer loop
      vertex -18.0194 -8.67767 0
      vertex -19.4986 -4.45042 20
      vertex -19.4986 -4.45042 0
    endloop
  endfacet
  facet normal -0.943882 -0.330283 0
    outer loop
      vertex -19.4986 -4.45042 20
      vertex -18.0194 -8.67767 0
      vertex -18.0194 -8.67767 20
    endloop
  endfacet
  facet normal -0.846719 -0.53204 0
    outer loop
      vertex -15.6366 -12.4698 0
      vertex -18.0194 -8.67767 20
      vertex -18.0194 -8.67767 0
    endloop
  endfacet
  facet normal -0.846719 -0.53204 0
    outer loop
      vertex -18.0194 -8.67767 20
      vertex -15.6366 -12.4698 0
      vertex -15.6366 -12.4698 20
    endloop
  endfacet
  facet normal -0.707107 -0.707107 0
    outer loop
      vertex -12.4698 -15.6366 0
      vertex -15.6366 -12.4698 20
      vertex -15.6366 -12.4698 0
    endloop
  endfacet
  facet normal -0.707107 -0.707107 0
    outer loop
      vertex -15.6366 -12.4698 20
      vertex -12.4698 -15.6366 0
      vertex -12.4698 -15.6366 20
    endloop
  endfacet
  facet normal -0.53204 -0.846719 0
    outer loop
      vertex -12.4698 -15.6366 0
      vertex -8.67767 -18.0194 20
      vertex -12.4698 -15.6366 20
    endloop
  endfacet
  facet normal -0.53204 -0.846719 -0
    outer loop
      vertex -8.67767 -18.0194 20
      vertex -12.4698 -15.6366 0
      vertex -8.67767 -18.0194 0
    endloop
  endfacet
  facet normal -0.330283 -0.943882 0
    outer loop
      vertex -8.67767 -18.0194 0
      vertex -4.45042 -19.4986 20
      vertex -8.67767 -18.0194 20
    endloop
  endfacet
  facet normal -0.330283 -0.943882 -0
    outer loop
      vertex -4.45042 -19.4986 20
      vertex -8.67767 -18.0194 0
      vertex -4.45042 -19.4986 0
    endloop
  endfacet
  facet normal -0.111955 -0.993713 0
    outer loop
      vertex -4.45042 -19.4986 0
      vertex 0 -20 20
      vertex -4.45042 -19.4986 20
    endloop
  endfacet
  facet normal -0.111955 -0.993713 -0
    outer loop
      vertex 0 -20 20
      vertex -4.45042 -19.4986 0
      vertex 0 -20 0
    endloop
  endfacet
endsolid OpenSCAD_Model
