solid OpenSCAD_Model
  facet normal 0 0 -1
    outer loop
      vertex -15 -5 -15
      vertex -5 5 -15
      vertex -5 -5 -15
    endloop
  endfacet
  facet normal -0 0 -1
    outer loop
      vertex -5 5 -15
      vertex -15 -5 -15
      vertex -15 5 -15
    endloop
  endfacet
  facet normal 0 0 -1
    outer loop
      vertex 5 -5 -15
      vertex 15 5 -15
      vertex 15 -5 -15
    endloop
  endfacet
  facet normal -0 0 -1
    outer loop
      vertex 15 5 -15
      vertex 5 -5 -15
      vertex 5 5 -15
    endloop
  endfacet
  facet normal 0 0 -1
    outer loop
      vertex 15 -5 -15
      vertex 20 -20 -15
      vertex 15 -15 -15
    endloop
  endfacet
  facet normal 0 0 -1
    outer loop
      vertex 20 -20 -15
      vertex 5 -15 -15
      vertex 15 -15 -15
    endloop
  endfacet
  facet normal 0 0 -1
    outer loop
      vertex -5 -5 -15
      vertex 5 -5 -15
      vertex 5 -15 -15
    endloop
  endfacet
  facet normal 0 0 -1
    outer loop
      vertex 5 -5 -15
      vertex -5 -5 -15
      vertex 5 5 -15
    endloop
  endfacet
  facet normal 0 0 -1
    outer loop
      vertex -5 -5 -15
      vertex 5 -15 -15
      vertex -5 -15 -15
    endloop
  endfacet
  facet normal 0 0 -1
    outer loop
      vertex 20 -20 -15
      vertex -5 -15 -15
      vertex 5 -15 -15
    endloop
  endfacet
  facet normal 0 0 -1
    outer loop
      vertex -20 -20 -15
      vertex -5 -15 -15
      vertex 20 -20 -15
    endloop
  endfacet
  facet normal 0 0 -1
    outer loop
      vertex -20 -20 -15
      vertex -15 -5 -15
      vertex -15 -15 -15
    endloop
  endfacet
  facet normal -0 0 -1
    outer loop
      vertex -15 -5 -15
      vertex -20 -20 -15
      vertex -15 5 -15
    endloop
  endfacet
  facet normal 0 0 -1
    outer loop
      vertex -20 20 -15
      vertex -15 5 -15
      vertex -20 -20 -15
    endloop
  endfacet
  facet normal -0 0 -1
    outer loop
      vertex -5 -15 -15
      vertex -20 -20 -15
      vertex -15 -15 -15
    endloop
  endfacet
  facet normal 0 0 -1
    outer loop
      vertex 20 -20 -15
      vertex 15 -5 -15
      vertex 20 20 -15
    endloop
  endfacet
  facet normal 0 0 -1
    outer loop
      vertex 15 5 -15
      vertex 20 20 -15
      vertex 15 -5 -15
    endloop
  endfacet
  facet normal 0 0 -1
    outer loop
      vertex 15 15 -15
      vertex 20 20 -15
      vertex 15 5 -15
    endloop
  endfacet
  facet normal 0 0 -1
    outer loop
      vertex 5 15 -15
      vertex 20 20 -15
      vertex 15 15 -15
    endloop
  endfacet
  facet normal 0 0 -1
    outer loop
      vertex -5 5 -15
      vertex 5 5 -15
      vertex -5 -5 -15
    endloop
  endfacet
  facet normal 0 0 -1
    outer loop
      vertex 5 5 -15
      vertex -5 5 -15
      vertex 5 15 -15
    endloop
  endfacet
  facet normal 0 0 -1
    outer loop
      vertex -5 15 -15
      vertex 5 15 -15
      vertex -5 5 -15
    endloop
  endfacet
  facet normal 0 0 -1
    outer loop
      vertex -5 15 -15
      vertex 20 20 -15
      vertex 5 15 -15
    endloop
  endfacet
  facet normal 0 0 -1
    outer loop
      vertex -20 20 -15
      vertex -5 15 -15
      vertex -15 15 -15
    endloop
  endfacet
  facet normal 0 0 -1
    outer loop
      vertex -5 15 -15
      vertex -20 20 -15
      vertex 20 20 -15
    endloop
  endfacet
  facet normal 0 0 -1
    outer loop
      vertex -15 5 -15
      vertex -20 20 -15
      vertex -15 15 -15
    endloop
  endfacet
  facet normal -1 0 0
    outer loop
      vertex -5 -15 -15
      vertex -5 -5 15
      vertex -5 -5 -15
    endloop
  endfacet
  facet normal -1 -0 0
    outer loop
      vertex -5 -5 15
      vertex -5 -15 -15
      vertex -5 -15 15
    endloop
  endfacet
  facet normal 0 1 -0
    outer loop
      vertex -5 -15 -15
      vertex -15 -15 15
      vertex -5 -15 15
    endloop
  endfacet
  facet normal 0 1 0
    outer loop
      vertex -15 -15 15
      vertex -5 -15 -15
      vertex -15 -15 -15
    endloop
  endfacet
  facet normal -0 0 1
    outer loop
      vertex -15 5 15
      vertex -5 -5 15
      vertex -5 5 15
    endloop
  endfacet
  facet normal 0 0 1
    outer loop
      vertex -5 -5 15
      vertex -15 5 15
      vertex -15 -5 15
    endloop
  endfacet
  facet normal -0 0 1
    outer loop
      vertex 5 5 15
      vertex 15 -5 15
      vertex 15 5 15
    endloop
  endfacet
  facet normal 0 0 1
    outer loop
      vertex 15 -5 15
      vertex 5 5 15
      vertex 5 -5 15
    endloop
  endfacet
  facet normal 0 0 1
    outer loop
      vertex 15 5 15
      vertex 20 20 15
      vertex 15 15 15
    endloop
  endfacet
  facet normal 0 0 1
    outer loop
      vertex 20 20 15
      vertex 5 15 15
      vertex 15 15 15
    endloop
  endfacet
  facet normal 0 0 1
    outer loop
      vertex -5 5 15
      vertex 5 5 15
      vertex 5 15 15
    endloop
  endfacet
  facet normal 0 0 1
    outer loop
      vertex 5 5 15
      vertex -5 5 15
      vertex 5 -5 15
    endloop
  endfacet
  facet normal 0 0 1
    outer loop
      vertex -5 5 15
      vertex 5 15 15
      vertex -5 15 15
    endloop
  endfacet
  facet normal 0 0 1
    outer loop
      vertex 20 20 15
      vertex -5 15 15
      vertex 5 15 15
    endloop
  endfacet
  facet normal -0 0 1
    outer loop
      vertex -20 20 15
      vertex -5 15 15
      vertex 20 20 15
    endloop
  endfacet
  facet normal 0 0 1
    outer loop
      vertex -20 20 15
      vertex -15 5 15
      vertex -15 15 15
    endloop
  endfacet
  facet normal 0 0 1
    outer loop
      vertex -15 5 15
      vertex -20 20 15
      vertex -15 -5 15
    endloop
  endfacet
  facet normal 0 0 1
    outer loop
      vertex -20 -20 15
      vertex -15 -5 15
      vertex -20 20 15
    endloop
  endfacet
  facet normal 0 0 1
    outer loop
      vertex -5 15 15
      vertex -20 20 15
      vertex -15 15 15
    endloop
  endfacet
  facet normal 0 0 1
    outer loop
      vertex 20 20 15
      vertex 15 5 15
      vertex 20 -20 15
    endloop
  endfacet
  facet normal -0 0 1
    outer loop
      vertex 15 -5 15
      vertex 20 -20 15
      vertex 15 5 15
    endloop
  endfacet
  facet normal -0 0 1
    outer loop
      vertex 15 -15 15
      vertex 20 -20 15
      vertex 15 -5 15
    endloop
  endfacet
  facet normal -0 0 1
    outer loop
      vertex 5 -15 15
      vertex 20 -20 15
      vertex 15 -15 15
    endloop
  endfacet
  facet normal 0 0 1
    outer loop
      vertex -5 -5 15
      vertex 5 -5 15
      vertex -5 5 15
    endloop
  endfacet
  facet normal 0 0 1
    outer loop
      vertex 5 -5 15
      vertex -5 -5 15
      vertex 5 -15 15
    endloop
  endfacet
  facet normal 0 0 1
    outer loop
      vertex -5 -15 15
      vertex 5 -15 15
      vertex -5 -5 15
    endloop
  endfacet
  facet normal -0 0 1
    outer loop
      vertex -5 -15 15
      vertex 20 -20 15
      vertex 5 -15 15
    endloop
  endfacet
  facet normal 0 0 1
    outer loop
      vertex -20 -20 15
      vertex -5 -15 15
      vertex -15 -15 15
    endloop
  endfacet
  facet normal 0 0 1
    outer loop
      vertex -5 -15 15
      vertex -20 -20 15
      vertex 20 -20 15
    endloop
  endfacet
  facet normal 0 0 1
    outer loop
      vertex -15 -5 15
      vertex -20 -20 15
      vertex -15 -15 15
    endloop
  endfacet
  facet normal 1 -0 0
    outer loop
      vertex -15 -15 15
      vertex -15 -5 -15
      vertex -15 -5 15
    endloop
  endfacet
  facet normal 1 0 0
    outer loop
      vertex -15 -5 -15
      vertex -15 -15 15
      vertex -15 -15 -15
    endloop
  endfacet
  facet normal 0 -1 0
    outer loop
      vertex -15 -5 -15
      vertex -5 -5 15
      vertex -15 -5 15
    endloop
  endfacet
  facet normal 0 -1 -0
    outer loop
      vertex -5 -5 15
      vertex -15 -5 -15
      vertex -5 -5 -15
    endloop
  endfacet
  facet normal -1 0 0
    outer loop
      vertex -5 5 -15
      vertex -5 15 15
      vertex -5 15 -15
    endloop
  endfacet
  facet normal -1 -0 0
    outer loop
      vertex -5 15 15
      vertex -5 5 -15
      vertex -5 5 15
    endloop
  endfacet
  facet normal 0 1 -0
    outer loop
      vertex -5 5 -15
      vertex -15 5 15
      vertex -5 5 15
    endloop
  endfacet
  facet normal 0 1 0
    outer loop
      vertex -15 5 15
      vertex -5 5 -15
      vertex -15 5 -15
    endloop
  endfacet
  facet normal 1 -0 0
    outer loop
      vertex -15 5 15
      vertex -15 15 -15
      vertex -15 15 15
    endloop
  endfacet
  facet normal 1 0 0
    outer loop
      vertex -15 15 -15
      vertex -15 5 15
      vertex -15 5 -15
    endloop
  endfacet
  facet normal 0 -1 0
    outer loop
      vertex -15 15 -15
      vertex -5 15 15
      vertex -15 15 15
    endloop
  endfacet
  facet normal 0 -1 -0
    outer loop
      vertex -5 15 15
      vertex -15 15 -15
      vertex -5 15 -15
    endloop
  endfacet
  facet normal -1 0 0
    outer loop
      vertex 15 -15 -15
      vertex 15 -5 15
      vertex 15 -5 -15
    endloop
  endfacet
  facet normal -1 -0 0
    outer loop
      vertex 15 -5 15
      vertex 15 -15 -15
      vertex 15 -15 15
    endloop
  endfacet
  facet normal 0 1 -0
    outer loop
      vertex 15 -15 -15
      vertex 5 -15 15
      vertex 15 -15 15
    endloop
  endfacet
  facet normal 0 1 0
    outer loop
      vertex 5 -15 15
      vertex 15 -15 -15
      vertex 5 -15 -15
    endloop
  endfacet
  facet normal 1 -0 0
    outer loop
      vertex 5 -15 15
      vertex 5 -5 -15
      vertex 5 -5 15
    endloop
  endfacet
  facet normal 1 0 0
    outer loop
      vertex 5 -5 -15
      vertex 5 -15 15
      vertex 5 -15 -15
    endloop
  endfacet
  facet normal 0 -1 0
    outer loop
      vertex 5 -5 -15
      vertex 15 -5 15
      vertex 5 -5 15
    endloop
  endfacet
  facet normal 0 -1 -0
    outer loop
      vertex 15 -5 15
      vertex 5 -5 -15
      vertex 15 -5 -15
    endloop
  endfacet
  facet normal -1 0 0
    outer loop
      vertex 15 5 -15
      vertex 15 15 15
      vertex 15 15 -15
    endloop
  endfacet
  facet normal -1 -0 0
    outer loop
      vertex 15 15 15
      vertex 15 5 -15
      vertex 15 5 15
    endloop
  endfacet
  facet normal 0 1 -0
    outer loop
      vertex 15 5 -15
      vertex 5 5 15
      vertex 15 5 15
    endloop
  endfacet
  facet normal 0 1 0
    outer loop
      vertex 5 5 15
      vertex 15 5 -15
      vertex 5 5 -15
    endloop
  endfacet
  facet normal 1 -0 0
    outer loop
      vertex 5 5 15
      vertex 5 15 -15
      vertex 5 15 15
    endloop
  endfacet
  facet normal 1 0 0
    outer loop
      vertex 5 15 -15
      vertex 5 5 15
      vertex 5 5 -15
    endloop
  endfacet
  facet normal 0 -1 0
    outer loop
      vertex 5 15 -15
      vertex 15 15 15
      vertex 5 15 15
    endloop
  endfacet
  facet normal 0 -1 -0
    outer loop
      vertex 15 15 15
      vertex 5 15 -15
      vertex 15 15 -15
    endloop
  endfacet
  facet normal 1 -0 0
    outer loop
      vertex 20 -20 15
      vertex 20 20 -15
      vertex 20 20 15
    endloop
  endfacet
  facet normal 1 0 0
    outer loop
      vertex 20 20 -15
      vertex 20 -20 15
      vertex 20 -20 -15
    endloop
  endfacet
  facet normal -1 0 0
    outer loop
      vertex -20 -20 -15
      vertex -20 20 15
      vertex -20 20 -15
    endloop
  endfacet
  facet normal -1 -0 0
    outer loop
      vertex -20 20 15
      vertex -20 -20 -15
      vertex -20 -20 15
    endloop
  endfacet
  facet normal 0 1 -0
    outer loop
      vertex 20 20 -15
      vertex -20 20 15
      vertex 20 20 15
    endloop
  endfacet
  facet normal 0 1 0
    outer loop
      vertex -20 20 15
      vertex 20 20 -15
      vertex -20 20 -15
    endloop
  endfacet
  facet normal 0 -1 0
    outer loop
      vertex -20 -20 -15
      vertex 20 -20 15
      vertex -20 -20 15
    endloop
  endfacet
  facet normal 0 -1 -0
    outer loop
      vertex 20 -20 15
      vertex -20 -20 -15
      vertex 20 -20 -15
    endloop
  endfacet
endsolid OpenSCAD_Model
