solid OpenSCAD_Model
  facet normal 0 0 -1
    outer loop
      vertex -15 -5 -20
      vertex -5 5 -20
      vertex -5 -5 -20
    endloop
  endfacet
  facet normal -0 0 -1
    outer loop
      vertex -5 5 -20
      vertex -15 -5 -20
      vertex -15 5 -20
    endloop
  endfacet
  facet normal 0 0 -1
    outer loop
      vertex 5 -5 -20
      vertex 15 5 -20
      vertex 15 -5 -20
    endloop
  endfacet
  facet normal -0 0 -1
    outer loop
      vertex 15 5 -20
      vertex 5 -5 -20
      vertex 5 5 -20
    endloop
  endfacet
  facet normal 0 0 -1
    outer loop
      vertex 15 -5 -20
      vertex 20 -20 -20
      vertex 15 -15 -20
    endloop
  endfacet
  facet normal 0 0 -1
    outer loop
      vertex 20 -20 -20
      vertex 5 -15 -20
      vertex 15 -15 -20
    endloop
  endfacet
  facet normal 0 0 -1
    outer loop
      vertex -5 -5 -20
      vertex 5 -5 -20
      vertex 5 -15 -20
    endloop
  endfacet
  facet normal 0 0 -1
    outer loop
      vertex 5 -5 -20
      vertex -5 -5 -20
      vertex 5 5 -20
    endloop
  endfacet
  facet normal 0 0 -1
    outer loop
      vertex -5 -5 -20
      vertex 5 -15 -20
      vertex -5 -15 -20
    endloop
  endfacet
  facet normal 0 0 -1
    outer loop
      vertex 20 -20 -20
      vertex -5 -15 -20
      vertex 5 -15 -20
    endloop
  endfacet
  facet normal 0 0 -1
    outer loop
      vertex -20 -20 -20
      vertex -5 -15 -20
      vertex 20 -20 -20
    endloop
  endfacet
  facet normal 0 0 -1
    outer loop
      vertex -20 -20 -20
      vertex -15 -5 -20
      vertex -15 -15 -20
    endloop
  endfacet
  facet normal -0 0 -1
    outer loop
      vertex -15 -5 -20
      vertex -20 -20 -20
      vertex -15 5 -20
    endloop
  endfacet
  facet normal 0 0 -1
    outer loop
      vertex -20 20 -20
      vertex -15 5 -20
      vertex -20 -20 -20
    endloop
  endfacet
  facet normal -0 0 -1
    outer loop
      vertex -5 -15 -20
      vertex -20 -20 -20
      vertex -15 -15 -20
    endloop
  endfacet
  facet normal 0 0 -1
    outer loop
      vertex 20 -20 -20
      vertex 15 -5 -20
      vertex 20 20 -20
    endloop
  endfacet
  facet normal 0 0 -1
    outer loop
      vertex 15 5 -20
      vertex 20 20 -20
      vertex 15 -5 -20
    endloop
  endfacet
  facet normal 0 0 -1
    outer loop
      vertex 15 15 -20
      vertex 20 20 -20
      vertex 15 5 -20
    endloop
  endfacet
  facet normal 0 0 -1
    outer loop
      vertex 5 15 -20
      vertex 20 20 -20
      vertex 15 15 -20
    endloop
  endfacet
  facet normal 0 0 -1
    outer loop
      vertex -5 5 -20
      vertex 5 5 -20
      vertex -5 -5 -20
    endloop
  endfacet
  facet normal 0 0 -1
    outer loop
      vertex 5 5 -20
      vertex -5 5 -20
      vertex 5 15 -20
    endloop
  endfacet
  facet normal 0 0 -1
    outer loop
      vertex -5 15 -20
      vertex 5 15 -20
      vertex -5 5 -20
    endloop
  endfacet
  facet normal 0 0 -1
    outer loop
      vertex -5 15 -20
      vertex 20 20 -20
      vertex 5 15 -20
    endloop
  endfacet
  facet normal 0 0 -1
    outer loop
      vertex -20 20 -20
      vertex -5 15 -20
      vertex -15 15 -20
    endloop
  endfacet
  facet normal 0 0 -1
    outer loop
      vertex -5 15 -20
      vertex -20 20 -20
      vertex 20 20 -20
    endloop
  endfacet
  facet normal 0 0 -1
    outer loop
      vertex -15 5 -20
      vertex -20 20 -20
      vertex -15 15 -20
    endloop
  endfacet
  facet normal -1 0 0
    outer loop
      vertex -5 -15 -20
      vertex -5 -5 20
      vertex -5 -5 -20
    endloop
  endfacet
  facet normal -1 -0 0
    outer loop
      vertex -5 -5 20
      vertex -5 -15 -20
      vertex -5 -15 20
    endloop
  endfacet
  facet normal 0 1 -0
    outer loop
      vertex -5 -15 -20
      vertex -15 -15 20
      vertex -5 -15 20
    endloop
  endfacet
  facet normal 0 1 0
    outer loop
      vertex -15 -15 20
      vertex -5 -15 -20
      vertex -15 -15 -20
    endloop
  endfacet
  facet normal 1 -0 0
    outer loop
      vertex -15 -15 20
      vertex -15 -5 -20
      vertex -15 -5 20
    endloop
  endfacet
  facet normal 1 0 0
    outer loop
      vertex -15 -5 -20
      vertex -15 -15 20
      vertex -15 -15 -20
    endloop
  endfacet
  facet normal 0 -1 0
    outer loop
      vertex -15 -5 -20
      vertex -5 -5 20
      vertex -15 -5 20
    endloop
  endfacet
  facet normal 0 -1 -0
    outer loop
      vertex -5 -5 20
      vertex -15 -5 -20
      vertex -5 -5 -20
    endloop
  endfacet
  facet normal -1 0 0
    outer loop
      vertex -5 5 -20
      vertex -5 15 20
      vertex -5 15 -20
    endloop
  endfacet
  facet normal -1 -0 0
    outer loop
      vertex -5 15 20
      vertex -5 5 -20
      vertex -5 5 20
    endloop
  endfacet
  facet normal 0 1 -0
    outer loop
      vertex -5 5 -20
      vertex -15 5 20
      vertex -5 5 20
    endloop
  endfacet
  facet normal 0 1 0
    outer loop
      vertex -15 5 20
      vertex -5 5 -20
      vertex -15 5 -20
    endloop
  endfacet
  facet normal 1 -0 0
    outer loop
      vertex -15 5 20
      vertex -15 15 -20
      vertex -15 15 20
    endloop
  endfacet
  facet normal 1 0 0
    outer loop
      vertex -15 15 -20
      vertex -15 5 20
      vertex -15 5 -20
    endloop
  endfacet
  facet normal 0 -1 0
    outer loop
      vertex -15 15 -20
      vertex -5 15 20
      vertex -15 15 20
    endloop
  endfacet
  facet normal 0 -1 -0
    outer loop
      vertex -5 15 20
      vertex -15 15 -20
      vertex -5 15 -20
    endloop
  endfacet
  facet normal -1 0 0
    outer loop
      vertex 15 -15 -20
      vertex 15 -5 20
      vertex 15 -5 -20
    endloop
  endfacet
  facet normal -1 -0 0
    outer loop
      vertex 15 -5 20
      vertex 15 -15 -20
      vertex 15 -15 20
    endloop
  endfacet
  facet normal 0 1 -0
    outer loop
      vertex 15 -15 -20
      vertex 5 -15 20
      vertex 15 -15 20
    endloop
  endfacet
  facet normal 0 1 0
    outer loop
      vertex 5 -15 20
      vertex 15 -15 -20
      vertex 5 -15 -20
    endloop
  endfacet
  facet normal 1 -0 0
    outer loop
      vertex 5 -15 20
      vertex 5 -5 -20
      vertex 5 -5 20
    endloop
  endfacet
  facet normal 1 0 0
    outer loop
      vertex 5 -5 -20
      vertex 5 -15 20
      vertex 5 -15 -20
    endloop
  endfacet
  facet normal 0 -1 0
    outer loop
      vertex 5 -5 -20
      vertex 15 -5 20
      vertex 5 -5 20
    endloop
  endfacet
  facet normal 0 -1 -0
    outer loop
      vertex 15 -5 20
      vertex 5 -5 -20
      vertex 15 -5 -20
    endloop
  endfacet
  facet normal -1 0 0
    outer loop
      vertex 15 5 -20
      vertex 15 15 20
      vertex 15 15 -20
    endloop
  endfacet
  facet normal -1 -0 0
    outer loop
      vertex 15 15 20
      vertex 15 5 -20
      vertex 15 5 20
    endloop
  endfacet
  facet normal 0 1 -0
    outer loop
      vertex 15 5 -20
      vertex 5 5 20
      vertex 15 5 20
    endloop
  endfacet
  facet normal 0 1 0
    outer loop
      vertex 5 5 20
      vertex 15 5 -20
      vertex 5 5 -20
    endloop
  endfacet
  facet normal 1 -0 0
    outer loop
      vertex 5 5 20
      vertex 5 15 -20
      vertex 5 15 20
    endloop
  endfacet
  facet normal 1 0 0
    outer loop
      vertex 5 15 -20
      vertex 5 5 20
      vertex 5 5 -20
    endloop
  endfacet
  facet normal 0 -1 0
    outer loop
      vertex 5 15 -20
      vertex 15 15 20
      vertex 5 15 20
    endloop
  endfacet
  facet normal 0 -1 -0
    outer loop
      vertex 15 15 20
      vertex 5 15 -20
      vertex 15 15 -20
    endloop
  endfacet
  facet normal 1 -0 0
    outer loop
      vertex 20 -20 20
      vertex 20 20 -20
      vertex 20 20 20
    endloop
  endfacet
  facet normal 1 0 0
    outer loop
      vertex 20 20 -20
      vertex 20 -20 20
      vertex 20 -20 -20
    endloop
  endfacet
  facet normal -0 0 1
    outer loop
      vertex -15 5 20
      vertex -5 -5 20
      vertex -5 5 20
    endloop
  endfacet
  facet normal 0 0 1
    outer loop
      vertex -5 -5 20
      vertex -15 5 20
      vertex -15 -5 20
    endloop
  endfacet
  facet normal -0 0 1
    outer loop
      vertex 5 5 20
      vertex 15 -5 20
      vertex 15 5 20
    endloop
  endfacet
  facet normal 0 0 1
    outer loop
      vertex 15 -5 20
      vertex 5 5 20
      vertex 5 -5 20
    endloop
  endfacet
  facet normal 0 0 1
    outer loop
      vertex 15 5 20
      vertex 20 20 20
      vertex 15 15 20
    endloop
  endfacet
  facet normal 0 0 1
    outer loop
      vertex 20 20 20
      vertex 5 15 20
      vertex 15 15 20
    endloop
  endfacet
  facet normal 0 0 1
    outer loop
      vertex -5 5 20
      vertex 5 5 20
      vertex 5 15 20
    endloop
  endfacet
  facet normal 0 0 1
    outer loop
      vertex 5 5 20
      vertex -5 5 20
      vertex 5 -5 20
    endloop
  endfacet
  facet normal 0 0 1
    outer loop
      vertex -5 5 20
      vertex 5 15 20
      vertex -5 15 20
    endloop
  endfacet
  facet normal 0 0 1
    outer loop
      vertex 20 20 20
      vertex -5 15 20
      vertex 5 15 20
    endloop
  endfacet
  facet normal -0 0 1
    outer loop
      vertex -20 20 20
      vertex -5 15 20
      vertex 20 20 20
    endloop
  endfacet
  facet normal 0 0 1
    outer loop
      vertex -20 20 20
      vertex -15 5 20
      vertex -15 15 20
    endloop
  endfacet
  facet normal 0 0 1
    outer loop
      vertex -15 5 20
      vertex -20 20 20
      vertex -15 -5 20
    endloop
  endfacet
  facet normal 0 0 1
    outer loop
      vertex -20 -20 20
      vertex -15 -5 20
      vertex -20 20 20
    endloop
  endfacet
  facet normal 0 0 1
    outer loop
      vertex -5 15 20
      vertex -20 20 20
      vertex -15 15 20
    endloop
  endfacet
  facet normal 0 0 1
    outer loop
      vertex 20 20 20
      vertex 15 5 20
      vertex 20 -20 20
    endloop
  endfacet
  facet normal -0 0 1
    outer loop
      vertex 15 -5 20
      vertex 20 -20 20
      vertex 15 5 20
    endloop
  endfacet
  facet normal -0 0 1
    outer loop
      vertex 15 -15 20
      vertex 20 -20 20
      vertex 15 -5 20
    endloop
  endfacet
  facet normal -0 0 1
    outer loop
      vertex 5 -15 20
      vertex 20 -20 20
      vertex 15 -15 20
    endloop
  endfacet
  facet normal 0 0 1
    outer loop
      vertex -5 -5 20
      vertex 5 -5 20
      vertex -5 5 20
    endloop
  endfacet
  facet normal 0 0 1
    outer loop
      vertex 5 -5 20
      vertex -5 -5 20
      vertex 5 -15 20
    endloop
  endfacet
  facet normal 0 0 1
    outer loop
      vertex -5 -15 20
      vertex 5 -15 20
      vertex -5 -5 20
    endloop
  endfacet
  facet normal -0 0 1
    outer loop
      vertex -5 -15 20
      vertex 20 -20 20
      vertex 5 -15 20
    endloop
  endfacet
  facet normal 0 0 1
    outer loop
      vertex -20 -20 20
      vertex -5 -15 20
      vertex -15 -15 20
    endloop
  endfacet
  facet normal 0 0 1
    outer loop
      vertex -5 -15 20
      vertex -20 -20 20
      vertex 20 -20 20
    endloop
  endfacet
  facet normal 0 0 1
    outer loop
      vertex -15 -5 20
      vertex -20 -20 20
      vertex -15 -15 20
    endloop
  endfacet
  facet normal -1 0 0
    outer loop
      vertex -20 -20 -20
      vertex -20 20 20
      vertex -20 20 -20
    endloop
  endfacet
  facet normal -1 -0 0
    outer loop
      vertex -20 20 20
      vertex -20 -20 -20
      vertex -20 -20 20
    endloop
  endfacet
  facet normal 0 1 -0
    outer loop
      vertex 20 20 -20
      vertex -20 20 20
      vertex 20 20 20
    endloop
  endfacet
  facet normal 0 1 0
    outer loop
      vertex -20 20 20
      vertex 20 20 -20
      vertex -20 20 -20
    endloop
  endfacet
  facet normal 0 -1 0
    outer loop
      vertex -20 -20 -20
      vertex 20 -20 20
      vertex -20 -20 20
    endloop
  endfacet
  facet normal 0 -1 -0
    outer loop
      vertex 20 -20 20
      vertex -20 -20 -20
      vertex 20 -20 -20
    endloop
  endfacet
endsolid OpenSCAD_Model
