solid OpenSCAD_Model
  facet normal 1 0 0
    outer loop
      vertex 5 0 5
      vertex 5 5 30
      vertex 5 0 30
    endloop
  endfacet
  facet normal 1 0 0
    outer loop
      vertex 5 5 30
      vertex 5 0 5
      vertex 5 5 0
    endloop
  endfacet
  facet normal 1 0 0
    outer loop
      vertex 5 -45 0
      vertex 5 0 5
      vertex 5 -45 5
    endloop
  endfacet
  facet normal 1 0 0
    outer loop
      vertex 5 0 5
      vertex 5 -45 0
      vertex 5 5 0
    endloop
  endfacet
  facet normal -0 0 1
    outer loop
      vertex 0 5 30
      vertex 5 0 30
      vertex 5 5 30
    endloop
  endfacet
  facet normal 0 0 1
    outer loop
      vertex 5 0 30
      vertex 0 5 30
      vertex 0 0 30
    endloop
  endfacet
  facet normal 0 0 -1
    outer loop
      vertex 0 -45 0
      vertex 5 5 0
      vertex 5 -45 0
    endloop
  endfacet
  facet normal -0 0 -1
    outer loop
      vertex 5 5 0
      vertex 0 -45 0
      vertex 0 5 0
    endloop
  endfacet
  facet normal -1 0 0
    outer loop
      vertex 0 5 0
      vertex 0 0 5
      vertex 0 5 30
    endloop
  endfacet
  facet normal -1 0 0
    outer loop
      vertex 0 -45 0
      vertex 0 0 5
      vertex 0 5 0
    endloop
  endfacet
  facet normal -1 -0 0
    outer loop
      vertex 0 0 5
      vertex 0 -45 0
      vertex 0 -45 5
    endloop
  endfacet
  facet normal -1 -0 0
    outer loop
      vertex 0 5 30
      vertex 0 0 5
      vertex 0 0 30
    endloop
  endfacet
  facet normal 0 1 -0
    outer loop
      vertex 5 5 0
      vertex 0 5 30
      vertex 5 5 30
    endloop
  endfacet
  facet normal 0 1 0
    outer loop
      vertex 0 5 30
      vertex 5 5 0
      vertex 0 5 0
    endloop
  endfacet
  facet normal 0 -1 0
    outer loop
      vertex 0 0 5
      vertex 5 0 30
      vertex 0 0 30
    endloop
  endfacet
  facet normal 0 -1 -0
    outer loop
      vertex 5 0 30
      vertex 0 0 5
      vertex 5 0 5
    endloop
  endfacet
  facet normal -0 0 1
    outer loop
      vertex 0 0 5
      vertex 5 -45 5
      vertex 5 0 5
    endloop
  endfacet
  facet normal 0 0 1
    outer loop
      vertex 5 -45 5
      vertex 0 0 5
      vertex 0 -45 5
    endloop
  endfacet
  facet normal 0 -1 0
    outer loop
      vertex 0 -45 0
      vertex 5 -45 5
      vertex 0 -45 5
    endloop
  endfacet
  facet normal 0 -1 -0
    outer loop
      vertex 5 -45 5
      vertex 0 -45 0
      vertex 5 -45 0
    endloop
  endfacet
endsolid OpenSCAD_Model
