solid OpenSCAD_Model
  facet normal 0.146716 0.989179 -0
    outer loop
      vertex 0.975451 4.90393 0
      vertex 0.490086 4.97592 6
      vertex 0.975451 4.90393 6
    endloop
  endfacet
  facet normal 0.146716 0.989179 0
    outer loop
      vertex 0.490086 4.97592 6
      vertex 0.975451 4.90393 0
      vertex 0.490086 4.97592 0
    endloop
  endfacet
  facet normal 0.989179 0.146716 0
    outer loop
      vertex 4.97592 0.490086 6
      vertex 4.90393 0.975451 0
      vertex 4.90393 0.975451 6
    endloop
  endfacet
  facet normal 0.989179 0.146716 0
    outer loop
      vertex 4.90393 0.975451 0
      vertex 4.97592 0.490086 6
      vertex 4.97592 0.490086 0
    endloop
  endfacet
  facet normal 0.998795 0.049075 0
    outer loop
      vertex 5 0 6
      vertex 4.97592 0.490086 0
      vertex 4.97592 0.490086 6
    endloop
  endfacet
  facet normal 0.998795 0.049075 0
    outer loop
      vertex 4.97592 0.490086 0
      vertex 5 0 6
      vertex 5 0 0
    endloop
  endfacet
  facet normal 0.970028 0.242992 0
    outer loop
      vertex 4.90393 0.975451 6
      vertex 4.7847 1.45142 0
      vertex 4.7847 1.45142 6
    endloop
  endfacet
  facet normal 0.970028 0.242992 0
    outer loop
      vertex 4.7847 1.45142 0
      vertex 4.90393 0.975451 6
      vertex 4.90393 0.975451 0
    endloop
  endfacet
  facet normal 0.336879 -0.941548 0
    outer loop
      vertex 1.45142 -4.7847 0
      vertex 1.91342 -4.6194 6
      vertex 1.45142 -4.7847 6
    endloop
  endfacet
  facet normal 0.336879 -0.941548 0
    outer loop
      vertex 1.91342 -4.6194 6
      vertex 1.45142 -4.7847 0
      vertex 1.91342 -4.6194 0
    endloop
  endfacet
  facet normal 0.857728 0.514103 0
    outer loop
      vertex 4.40961 2.35698 6
      vertex 4.15735 2.77785 0
      vertex 4.15735 2.77785 6
    endloop
  endfacet
  facet normal 0.857728 0.514103 0
    outer loop
      vertex 4.15735 2.77785 0
      vertex 4.40961 2.35698 6
      vertex 4.40961 2.35698 0
    endloop
  endfacet
  facet normal 0.903988 -0.427558 0
    outer loop
      vertex 4.40961 -2.35698 6
      vertex 4.6194 -1.91342 0
      vertex 4.6194 -1.91342 6
    endloop
  endfacet
  facet normal 0.903988 -0.427558 0
    outer loop
      vertex 4.6194 -1.91342 0
      vertex 4.40961 -2.35698 6
      vertex 4.40961 -2.35698 0
    endloop
  endfacet
  facet normal 0.336879 0.941548 -0
    outer loop
      vertex 1.91342 4.6194 0
      vertex 1.45142 4.7847 6
      vertex 1.91342 4.6194 6
    endloop
  endfacet
  facet normal 0.336879 0.941548 0
    outer loop
      vertex 1.45142 4.7847 6
      vertex 1.91342 4.6194 0
      vertex 1.45142 4.7847 0
    endloop
  endfacet
  facet normal -0.242992 -0.970028 0
    outer loop
      vertex -1.45142 -4.7847 0
      vertex -0.975451 -4.90393 6
      vertex -1.45142 -4.7847 6
    endloop
  endfacet
  facet normal -0.242992 -0.970028 -0
    outer loop
      vertex -0.975451 -4.90393 6
      vertex -1.45142 -4.7847 0
      vertex -0.975451 -4.90393 0
    endloop
  endfacet
  facet normal -0.427558 -0.903988 0
    outer loop
      vertex -2.35698 -4.40961 0
      vertex -1.91342 -4.6194 6
      vertex -2.35698 -4.40961 6
    endloop
  endfacet
  facet normal -0.427558 -0.903988 -0
    outer loop
      vertex -1.91342 -4.6194 6
      vertex -2.35698 -4.40961 0
      vertex -1.91342 -4.6194 0
    endloop
  endfacet
  facet normal 0.049075 -0.998795 0
    outer loop
      vertex 0 -5 0
      vertex 0.490086 -4.97592 6
      vertex 0 -5 6
    endloop
  endfacet
  facet normal 0.049075 -0.998795 0
    outer loop
      vertex 0.490086 -4.97592 6
      vertex 0 -5 0
      vertex 0.490086 -4.97592 0
    endloop
  endfacet
  facet normal 0.427558 0.903988 -0
    outer loop
      vertex 2.35698 4.40961 0
      vertex 1.91342 4.6194 6
      vertex 2.35698 4.40961 6
    endloop
  endfacet
  facet normal 0.427558 0.903988 0
    outer loop
      vertex 1.91342 4.6194 6
      vertex 2.35698 4.40961 0
      vertex 1.91342 4.6194 0
    endloop
  endfacet
  facet normal 0.049075 0.998795 -0
    outer loop
      vertex 0.490086 4.97592 0
      vertex 0 5 6
      vertex 0.490086 4.97592 6
    endloop
  endfacet
  facet normal 0.049075 0.998795 0
    outer loop
      vertex 0 5 6
      vertex 0.490086 4.97592 0
      vertex 0 5 0
    endloop
  endfacet
  facet normal 0.857728 -0.514103 0
    outer loop
      vertex 4.15735 -2.77785 6
      vertex 4.40961 -2.35698 0
      vertex 4.40961 -2.35698 6
    endloop
  endfacet
  facet normal 0.857728 -0.514103 0
    outer loop
      vertex 4.40961 -2.35698 0
      vertex 4.15735 -2.77785 6
      vertex 4.15735 -2.77785 0
    endloop
  endfacet
  facet normal 0.671568 0.740943 -0
    outer loop
      vertex 3.53553 3.53553 0
      vertex 3.17197 3.86505 6
      vertex 3.53553 3.53553 6
    endloop
  endfacet
  facet normal 0.671568 0.740943 0
    outer loop
      vertex 3.17197 3.86505 6
      vertex 3.53553 3.53553 0
      vertex 3.17197 3.86505 0
    endloop
  endfacet
  facet normal -0.5957 -0.803207 0
    outer loop
      vertex -3.17197 -3.86505 0
      vertex -2.77785 -4.15735 6
      vertex -3.17197 -3.86505 6
    endloop
  endfacet
  facet normal -0.5957 -0.803207 -0
    outer loop
      vertex -2.77785 -4.15735 6
      vertex -3.17197 -3.86505 0
      vertex -2.77785 -4.15735 0
    endloop
  endfacet
  facet normal -0.857728 0.514103 0
    outer loop
      vertex -4.40961 2.35698 0
      vertex -4.15735 2.77785 6
      vertex -4.15735 2.77785 0
    endloop
  endfacet
  facet normal -0.857728 0.514103 0
    outer loop
      vertex -4.15735 2.77785 6
      vertex -4.40961 2.35698 0
      vertex -4.40961 2.35698 6
    endloop
  endfacet
  facet normal 0.242992 -0.970028 0
    outer loop
      vertex 0.975451 -4.90393 0
      vertex 1.45142 -4.7847 6
      vertex 0.975451 -4.90393 6
    endloop
  endfacet
  facet normal 0.242992 -0.970028 0
    outer loop
      vertex 1.45142 -4.7847 6
      vertex 0.975451 -4.90393 0
      vertex 1.45142 -4.7847 0
    endloop
  endfacet
  facet normal 0.989179 -0.146716 0
    outer loop
      vertex 4.90393 -0.975451 6
      vertex 4.97592 -0.490086 0
      vertex 4.97592 -0.490086 6
    endloop
  endfacet
  facet normal 0.989179 -0.146716 0
    outer loop
      vertex 4.97592 -0.490086 0
      vertex 4.90393 -0.975451 6
      vertex 4.90393 -0.975451 0
    endloop
  endfacet
  facet normal -0.146716 -0.989179 0
    outer loop
      vertex -0.975451 -4.90393 0
      vertex -0.490086 -4.97592 6
      vertex -0.975451 -4.90393 6
    endloop
  endfacet
  facet normal -0.146716 -0.989179 -0
    outer loop
      vertex -0.490086 -4.97592 6
      vertex -0.975451 -4.90393 0
      vertex -0.490086 -4.97592 0
    endloop
  endfacet
  facet normal -0.5957 0.803207 0
    outer loop
      vertex -2.77785 4.15735 0
      vertex -3.17197 3.86505 6
      vertex -2.77785 4.15735 6
    endloop
  endfacet
  facet normal -0.5957 0.803207 0
    outer loop
      vertex -3.17197 3.86505 6
      vertex -2.77785 4.15735 0
      vertex -3.17197 3.86505 0
    endloop
  endfacet
  facet normal -0.998795 -0.049075 0
    outer loop
      vertex -4.97592 -0.490086 0
      vertex -5 0 6
      vertex -5 0 0
    endloop
  endfacet
  facet normal -0.998795 -0.049075 0
    outer loop
      vertex -5 0 6
      vertex -4.97592 -0.490086 0
      vertex -4.97592 -0.490086 6
    endloop
  endfacet
  facet normal -0.970028 -0.242992 0
    outer loop
      vertex -4.7847 -1.45142 0
      vertex -4.90393 -0.975451 6
      vertex -4.90393 -0.975451 0
    endloop
  endfacet
  facet normal -0.970028 -0.242992 0
    outer loop
      vertex -4.90393 -0.975451 6
      vertex -4.7847 -1.45142 0
      vertex -4.7847 -1.45142 6
    endloop
  endfacet
  facet normal 0.970028 -0.242992 0
    outer loop
      vertex 4.7847 -1.45142 6
      vertex 4.90393 -0.975451 0
      vertex 4.90393 -0.975451 6
    endloop
  endfacet
  facet normal 0.970028 -0.242992 0
    outer loop
      vertex 4.90393 -0.975451 0
      vertex 4.7847 -1.45142 6
      vertex 4.7847 -1.45142 0
    endloop
  endfacet
  facet normal -0.970028 0.242992 0
    outer loop
      vertex -4.90393 0.975451 0
      vertex -4.7847 1.45142 6
      vertex -4.7847 1.45142 0
    endloop
  endfacet
  facet normal -0.970028 0.242992 0
    outer loop
      vertex -4.7847 1.45142 6
      vertex -4.90393 0.975451 0
      vertex -4.90393 0.975451 6
    endloop
  endfacet
  facet normal 0.5957 0.803207 -0
    outer loop
      vertex 3.17197 3.86505 0
      vertex 2.77785 4.15735 6
      vertex 3.17197 3.86505 6
    endloop
  endfacet
  facet normal 0.5957 0.803207 0
    outer loop
      vertex 2.77785 4.15735 6
      vertex 3.17197 3.86505 0
      vertex 2.77785 4.15735 0
    endloop
  endfacet
  facet normal -0.049075 0.998795 0
    outer loop
      vertex 0 5 0
      vertex -0.490086 4.97592 6
      vertex 0 5 6
    endloop
  endfacet
  facet normal -0.049075 0.998795 0
    outer loop
      vertex -0.490086 4.97592 6
      vertex 0 5 0
      vertex -0.490086 4.97592 0
    endloop
  endfacet
  facet normal 0.803207 0.5957 0
    outer loop
      vertex 4.15735 2.77785 6
      vertex 3.86505 3.17197 0
      vertex 3.86505 3.17197 6
    endloop
  endfacet
  facet normal 0.803207 0.5957 0
    outer loop
      vertex 3.86505 3.17197 0
      vertex 4.15735 2.77785 6
      vertex 4.15735 2.77785 0
    endloop
  endfacet
  facet normal 0.514103 0.857728 -0
    outer loop
      vertex 2.77785 4.15735 0
      vertex 2.35698 4.40961 6
      vertex 2.77785 4.15735 6
    endloop
  endfacet
  facet normal 0.514103 0.857728 0
    outer loop
      vertex 2.35698 4.40961 6
      vertex 2.77785 4.15735 0
      vertex 2.35698 4.40961 0
    endloop
  endfacet
  facet normal 0.427558 -0.903988 0
    outer loop
      vertex 1.91342 -4.6194 0
      vertex 2.35698 -4.40961 6
      vertex 1.91342 -4.6194 6
    endloop
  endfacet
  facet normal 0.427558 -0.903988 0
    outer loop
      vertex 2.35698 -4.40961 6
      vertex 1.91342 -4.6194 0
      vertex 2.35698 -4.40961 0
    endloop
  endfacet
  facet normal -0.941548 -0.336879 0
    outer loop
      vertex -4.6194 -1.91342 0
      vertex -4.7847 -1.45142 6
      vertex -4.7847 -1.45142 0
    endloop
  endfacet
  facet normal -0.941548 -0.336879 0
    outer loop
      vertex -4.7847 -1.45142 6
      vertex -4.6194 -1.91342 0
      vertex -4.6194 -1.91342 6
    endloop
  endfacet
  facet normal 0 0 -1
    outer loop
      vertex 4.97592 -0.490086 0
      vertex 4.97592 0.490086 0
      vertex 5 0 0
    endloop
  endfacet
  facet normal 0 0 -1
    outer loop
      vertex 4.90393 -0.975451 0
      vertex 4.97592 0.490086 0
      vertex 4.97592 -0.490086 0
    endloop
  endfacet
  facet normal 0 0 -1
    outer loop
      vertex 4.90393 -0.975451 0
      vertex 4.90393 0.975451 0
      vertex 4.97592 0.490086 0
    endloop
  endfacet
  facet normal 0 0 -1
    outer loop
      vertex 4.7847 -1.45142 0
      vertex 4.90393 0.975451 0
      vertex 4.90393 -0.975451 0
    endloop
  endfacet
  facet normal 0 0 -1
    outer loop
      vertex 4.7847 -1.45142 0
      vertex 4.7847 1.45142 0
      vertex 4.90393 0.975451 0
    endloop
  endfacet
  facet normal 0 0 -1
    outer loop
      vertex 4.6194 -1.91342 0
      vertex 4.7847 1.45142 0
      vertex 4.7847 -1.45142 0
    endloop
  endfacet
  facet normal 0 0 -1
    outer loop
      vertex 4.6194 -1.91342 0
      vertex 4.6194 1.91342 0
      vertex 4.7847 1.45142 0
    endloop
  endfacet
  facet normal 0 0 -1
    outer loop
      vertex 4.40961 -2.35698 0
      vertex 4.6194 1.91342 0
      vertex 4.6194 -1.91342 0
    endloop
  endfacet
  facet normal 0 0 -1
    outer loop
      vertex 4.40961 -2.35698 0
      vertex 4.40961 2.35698 0
      vertex 4.6194 1.91342 0
    endloop
  endfacet
  facet normal 0 0 -1
    outer loop
      vertex 4.15735 -2.77785 0
      vertex 4.40961 2.35698 0
      vertex 4.40961 -2.35698 0
    endloop
  endfacet
  facet normal 0 0 -1
    outer loop
      vertex 4.15735 -2.77785 0
      vertex 4.15735 2.77785 0
      vertex 4.40961 2.35698 0
    endloop
  endfacet
  facet normal 0 0 -1
    outer loop
      vertex 3.86505 -3.17197 0
      vertex 4.15735 2.77785 0
      vertex 4.15735 -2.77785 0
    endloop
  endfacet
  facet normal 0 0 -1
    outer loop
      vertex 3.86505 -3.17197 0
      vertex 3.86505 3.17197 0
      vertex 4.15735 2.77785 0
    endloop
  endfacet
  facet normal 0 0 -1
    outer loop
      vertex 3.53553 -3.53553 0
      vertex 3.86505 3.17197 0
      vertex 3.86505 -3.17197 0
    endloop
  endfacet
  facet normal 0 0 -1
    outer loop
      vertex 3.53553 -3.53553 0
      vertex 3.53553 3.53553 0
      vertex 3.86505 3.17197 0
    endloop
  endfacet
  facet normal 0 0 -1
    outer loop
      vertex 3.17197 -3.86505 0
      vertex 3.53553 3.53553 0
      vertex 3.53553 -3.53553 0
    endloop
  endfacet
  facet normal 0 0 -1
    outer loop
      vertex 3.17197 -3.86505 0
      vertex 3.17197 3.86505 0
      vertex 3.53553 3.53553 0
    endloop
  endfacet
  facet normal 0 0 -1
    outer loop
      vertex 2.77785 -4.15735 0
      vertex 3.17197 3.86505 0
      vertex 3.17197 -3.86505 0
    endloop
  endfacet
  facet normal 0 0 -1
    outer loop
      vertex 2.77785 -4.15735 0
      vertex 2.77785 4.15735 0
      vertex 3.17197 3.86505 0
    endloop
  endfacet
  facet normal 0 0 -1
    outer loop
      vertex 2.35698 -4.40961 0
      vertex 2.77785 4.15735 0
      vertex 2.77785 -4.15735 0
    endloop
  endfacet
  facet normal 0 0 -1
    outer loop
      vertex 2.35698 -4.40961 0
      vertex 2.35698 4.40961 0
      vertex 2.77785 4.15735 0
    endloop
  endfacet
  facet normal 0 0 -1
    outer loop
      vertex 1.91342 -4.6194 0
      vertex 2.35698 4.40961 0
      vertex 2.35698 -4.40961 0
    endloop
  endfacet
  facet normal 0 0 -1
    outer loop
      vertex 1.91342 -4.6194 0
      vertex 1.91342 4.6194 0
      vertex 2.35698 4.40961 0
    endloop
  endfacet
  facet normal 0 0 -1
    outer loop
      vertex 1.45142 -4.7847 0
      vertex 1.91342 4.6194 0
      vertex 1.91342 -4.6194 0
    endloop
  endfacet
  facet normal 0 0 -1
    outer loop
      vertex 1.45142 -4.7847 0
      vertex 1.45142 4.7847 0
      vertex 1.91342 4.6194 0
    endloop
  endfacet
  facet normal 0 0 -1
    outer loop
      vertex 0.975451 -4.90393 0
      vertex 1.45142 4.7847 0
      vertex 1.45142 -4.7847 0
    endloop
  endfacet
  facet normal 0 0 -1
    outer loop
      vertex 0.975451 -4.90393 0
      vertex 0.975451 4.90393 0
      vertex 1.45142 4.7847 0
    endloop
  endfacet
  facet normal 0 0 -1
    outer loop
      vertex 0.490086 -4.97592 0
      vertex 0.975451 4.90393 0
      vertex 0.975451 -4.90393 0
    endloop
  endfacet
  facet normal 0 0 -1
    outer loop
      vertex 0.490086 -4.97592 0
      vertex 0.490086 4.97592 0
      vertex 0.975451 4.90393 0
    endloop
  endfacet
  facet normal 0 0 -1
    outer loop
      vertex 0 -5 0
      vertex 0.490086 4.97592 0
      vertex 0.490086 -4.97592 0
    endloop
  endfacet
  facet normal 0 0 -1
    outer loop
      vertex 0 -5 0
      vertex 0 5 0
      vertex 0.490086 4.97592 0
    endloop
  endfacet
  facet normal 0 0 -1
    outer loop
      vertex -0.490086 -4.97592 0
      vertex 0 5 0
      vertex 0 -5 0
    endloop
  endfacet
  facet normal 0 0 -1
    outer loop
      vertex -0.490086 -4.97592 0
      vertex -0.490086 4.97592 0
      vertex 0 5 0
    endloop
  endfacet
  facet normal 0 0 -1
    outer loop
      vertex -0.975451 -4.90393 0
      vertex -0.490086 4.97592 0
      vertex -0.490086 -4.97592 0
    endloop
  endfacet
  facet normal 0 0 -1
    outer loop
      vertex -0.975451 -4.90393 0
      vertex -0.975451 4.90393 0
      vertex -0.490086 4.97592 0
    endloop
  endfacet
  facet normal 0 0 -1
    outer loop
      vertex -1.45142 -4.7847 0
      vertex -0.975451 4.90393 0
      vertex -0.975451 -4.90393 0
    endloop
  endfacet
  facet normal 0 0 -1
    outer loop
      vertex -1.45142 -4.7847 0
      vertex -1.45142 4.7847 0
      vertex -0.975451 4.90393 0
    endloop
  endfacet
  facet normal 0 0 -1
    outer loop
      vertex -1.91342 -4.6194 0
      vertex -1.45142 4.7847 0
      vertex -1.45142 -4.7847 0
    endloop
  endfacet
  facet normal 0 0 -1
    outer loop
      vertex -1.91342 -4.6194 0
      vertex -1.91342 4.6194 0
      vertex -1.45142 4.7847 0
    endloop
  endfacet
  facet normal 0 0 -1
    outer loop
      vertex -2.35698 -4.40961 0
      vertex -1.91342 4.6194 0
      vertex -1.91342 -4.6194 0
    endloop
  endfacet
  facet normal 0 0 -1
    outer loop
      vertex -2.35698 -4.40961 0
      vertex -2.35698 4.40961 0
      vertex -1.91342 4.6194 0
    endloop
  endfacet
  facet normal 0 0 -1
    outer loop
      vertex -2.77785 -4.15735 0
      vertex -2.35698 4.40961 0
      vertex -2.35698 -4.40961 0
    endloop
  endfacet
  facet normal 0 0 -1
    outer loop
      vertex -2.77785 -4.15735 0
      vertex -2.77785 4.15735 0
      vertex -2.35698 4.40961 0
    endloop
  endfacet
  facet normal 0 0 -1
    outer loop
      vertex -3.17197 -3.86505 0
      vertex -2.77785 4.15735 0
      vertex -2.77785 -4.15735 0
    endloop
  endfacet
  facet normal 0 0 -1
    outer loop
      vertex -3.17197 -3.86505 0
      vertex -3.17197 3.86505 0
      vertex -2.77785 4.15735 0
    endloop
  endfacet
  facet normal 0 0 -1
    outer loop
      vertex -3.53553 -3.53553 0
      vertex -3.17197 3.86505 0
      vertex -3.17197 -3.86505 0
    endloop
  endfacet
  facet normal 0 0 -1
    outer loop
      vertex -3.53553 -3.53553 0
      vertex -3.53553 3.53553 0
      vertex -3.17197 3.86505 0
    endloop
  endfacet
  facet normal 0 0 -1
    outer loop
      vertex -3.86505 -3.17197 0
      vertex -3.53553 3.53553 0
      vertex -3.53553 -3.53553 0
    endloop
  endfacet
  facet normal 0 0 -1
    outer loop
      vertex -3.86505 -3.17197 0
      vertex -3.86505 3.17197 0
      vertex -3.53553 3.53553 0
    endloop
  endfacet
  facet normal 0 0 -1
    outer loop
      vertex -4.15735 -2.77785 0
      vertex -3.86505 3.17197 0
      vertex -3.86505 -3.17197 0
    endloop
  endfacet
  facet normal 0 0 -1
    outer loop
      vertex -4.15735 -2.77785 0
      vertex -4.15735 2.77785 0
      vertex -3.86505 3.17197 0
    endloop
  endfacet
  facet normal 0 0 -1
    outer loop
      vertex -4.40961 -2.35698 0
      vertex -4.15735 2.77785 0
      vertex -4.15735 -2.77785 0
    endloop
  endfacet
  facet normal 0 0 -1
    outer loop
      vertex -4.40961 -2.35698 0
      vertex -4.40961 2.35698 0
      vertex -4.15735 2.77785 0
    endloop
  endfacet
  facet normal 0 0 -1
    outer loop
      vertex -4.6194 -1.91342 0
      vertex -4.40961 2.35698 0
      vertex -4.40961 -2.35698 0
    endloop
  endfacet
  facet normal 0 0 -1
    outer loop
      vertex -4.6194 -1.91342 0
      vertex -4.6194 1.91342 0
      vertex -4.40961 2.35698 0
    endloop
  endfacet
  facet normal 0 0 -1
    outer loop
      vertex -4.7847 -1.45142 0
      vertex -4.6194 1.91342 0
      vertex -4.6194 -1.91342 0
    endloop
  endfacet
  facet normal 0 0 -1
    outer loop
      vertex -4.7847 -1.45142 0
      vertex -4.7847 1.45142 0
      vertex -4.6194 1.91342 0
    endloop
  endfacet
  facet normal 0 0 -1
    outer loop
      vertex -4.90393 -0.975451 0
      vertex -4.7847 1.45142 0
      vertex -4.7847 -1.45142 0
    endloop
  endfacet
  facet normal 0 0 -1
    outer loop
      vertex -4.90393 -0.975451 0
      vertex -4.90393 0.975451 0
      vertex -4.7847 1.45142 0
    endloop
  endfacet
  facet normal 0 0 -1
    outer loop
      vertex -4.97592 -0.490086 0
      vertex -4.90393 0.975451 0
      vertex -4.90393 -0.975451 0
    endloop
  endfacet
  facet normal 0 0 -1
    outer loop
      vertex -4.97592 -0.490086 0
      vertex -4.97592 0.490086 0
      vertex -4.90393 0.975451 0
    endloop
  endfacet
  facet normal 0 -0 -1
    outer loop
      vertex -4.97592 0.490086 0
      vertex -4.97592 -0.490086 0
      vertex -5 0 0
    endloop
  endfacet
  facet normal 0.242992 0.970028 -0
    outer loop
      vertex 1.45142 4.7847 0
      vertex 0.975451 4.90393 6
      vertex 1.45142 4.7847 6
    endloop
  endfacet
  facet normal 0.242992 0.970028 0
    outer loop
      vertex 0.975451 4.90393 6
      vertex 1.45142 4.7847 0
      vertex 0.975451 4.90393 0
    endloop
  endfacet
  facet normal -0.740943 0.671568 0
    outer loop
      vertex -3.86505 3.17197 0
      vertex -3.53553 3.53553 6
      vertex -3.53553 3.53553 0
    endloop
  endfacet
  facet normal -0.740943 0.671568 0
    outer loop
      vertex -3.53553 3.53553 6
      vertex -3.86505 3.17197 0
      vertex -3.86505 3.17197 6
    endloop
  endfacet
  facet normal 0.998795 -0.049075 0
    outer loop
      vertex 4.97592 -0.490086 6
      vertex 5 0 0
      vertex 5 0 6
    endloop
  endfacet
  facet normal 0.998795 -0.049075 0
    outer loop
      vertex 5 0 0
      vertex 4.97592 -0.490086 6
      vertex 4.97592 -0.490086 0
    endloop
  endfacet
  facet normal -0.146716 0.989179 0
    outer loop
      vertex -0.490086 4.97592 0
      vertex -0.975451 4.90393 6
      vertex -0.490086 4.97592 6
    endloop
  endfacet
  facet normal -0.146716 0.989179 0
    outer loop
      vertex -0.975451 4.90393 6
      vertex -0.490086 4.97592 0
      vertex -0.975451 4.90393 0
    endloop
  endfacet
  facet normal -0.427558 0.903988 0
    outer loop
      vertex -1.91342 4.6194 0
      vertex -2.35698 4.40961 6
      vertex -1.91342 4.6194 6
    endloop
  endfacet
  facet normal -0.427558 0.903988 0
    outer loop
      vertex -2.35698 4.40961 6
      vertex -1.91342 4.6194 0
      vertex -2.35698 4.40961 0
    endloop
  endfacet
  facet normal -0.989179 0.146716 0
    outer loop
      vertex -4.97592 0.490086 0
      vertex -4.90393 0.975451 6
      vertex -4.90393 0.975451 0
    endloop
  endfacet
  facet normal -0.989179 0.146716 0
    outer loop
      vertex -4.90393 0.975451 6
      vertex -4.97592 0.490086 0
      vertex -4.97592 0.490086 6
    endloop
  endfacet
  facet normal 0.146716 -0.989179 0
    outer loop
      vertex 0.490086 -4.97592 0
      vertex 0.975451 -4.90393 6
      vertex 0.490086 -4.97592 6
    endloop
  endfacet
  facet normal 0.146716 -0.989179 0
    outer loop
      vertex 0.975451 -4.90393 6
      vertex 0.490086 -4.97592 0
      vertex 0.975451 -4.90393 0
    endloop
  endfacet
  facet normal 0.941548 0.336879 0
    outer loop
      vertex 4.7847 1.45142 6
      vertex 4.6194 1.91342 0
      vertex 4.6194 1.91342 6
    endloop
  endfacet
  facet normal 0.941548 0.336879 0
    outer loop
      vertex 4.6194 1.91342 0
      vertex 4.7847 1.45142 6
      vertex 4.7847 1.45142 0
    endloop
  endfacet
  facet normal 0.740943 -0.671568 0
    outer loop
      vertex 3.53553 -3.53553 6
      vertex 3.86505 -3.17197 0
      vertex 3.86505 -3.17197 6
    endloop
  endfacet
  facet normal 0.740943 -0.671568 0
    outer loop
      vertex 3.86505 -3.17197 0
      vertex 3.53553 -3.53553 6
      vertex 3.53553 -3.53553 0
    endloop
  endfacet
  facet normal 0.803207 -0.5957 0
    outer loop
      vertex 3.86505 -3.17197 6
      vertex 4.15735 -2.77785 0
      vertex 4.15735 -2.77785 6
    endloop
  endfacet
  facet normal 0.803207 -0.5957 0
    outer loop
      vertex 4.15735 -2.77785 0
      vertex 3.86505 -3.17197 6
      vertex 3.86505 -3.17197 0
    endloop
  endfacet
  facet normal 0.941548 -0.336879 0
    outer loop
      vertex 4.6194 -1.91342 6
      vertex 4.7847 -1.45142 0
      vertex 4.7847 -1.45142 6
    endloop
  endfacet
  facet normal 0.941548 -0.336879 0
    outer loop
      vertex 4.7847 -1.45142 0
      vertex 4.6194 -1.91342 6
      vertex 4.6194 -1.91342 0
    endloop
  endfacet
  facet normal -0.242992 0.970028 0
    outer loop
      vertex -0.975451 4.90393 0
      vertex -1.45142 4.7847 6
      vertex -0.975451 4.90393 6
    endloop
  endfacet
  facet normal -0.242992 0.970028 0
    outer loop
      vertex -1.45142 4.7847 6
      vertex -0.975451 4.90393 0
      vertex -1.45142 4.7847 0
    endloop
  endfacet
  facet normal -0.903988 -0.427558 0
    outer loop
      vertex -4.40961 -2.35698 0
      vertex -4.6194 -1.91342 6
      vertex -4.6194 -1.91342 0
    endloop
  endfacet
  facet normal -0.903988 -0.427558 0
    outer loop
      vertex -4.6194 -1.91342 6
      vertex -4.40961 -2.35698 0
      vertex -4.40961 -2.35698 6
    endloop
  endfacet
  facet normal 0.903988 0.427558 0
    outer loop
      vertex 4.6194 1.91342 6
      vertex 4.40961 2.35698 0
      vertex 4.40961 2.35698 6
    endloop
  endfacet
  facet normal 0.903988 0.427558 0
    outer loop
      vertex 4.40961 2.35698 0
      vertex 4.6194 1.91342 6
      vertex 4.6194 1.91342 0
    endloop
  endfacet
  facet normal -0.671568 0.740943 0
    outer loop
      vertex -3.17197 3.86505 0
      vertex -3.53553 3.53553 6
      vertex -3.17197 3.86505 6
    endloop
  endfacet
  facet normal -0.671568 0.740943 0
    outer loop
      vertex -3.53553 3.53553 6
      vertex -3.17197 3.86505 0
      vertex -3.53553 3.53553 0
    endloop
  endfacet
  facet normal -0.740943 -0.671568 0
    outer loop
      vertex -3.53553 -3.53553 0
      vertex -3.86505 -3.17197 6
      vertex -3.86505 -3.17197 0
    endloop
  endfacet
  facet normal -0.740943 -0.671568 0
    outer loop
      vertex -3.86505 -3.17197 6
      vertex -3.53553 -3.53553 0
      vertex -3.53553 -3.53553 6
    endloop
  endfacet
  facet normal -0.857728 -0.514103 0
    outer loop
      vertex -4.15735 -2.77785 0
      vertex -4.40961 -2.35698 6
      vertex -4.40961 -2.35698 0
    endloop
  endfacet
  facet normal -0.857728 -0.514103 0
    outer loop
      vertex -4.40961 -2.35698 6
      vertex -4.15735 -2.77785 0
      vertex -4.15735 -2.77785 6
    endloop
  endfacet
  facet normal -0.336879 0.941548 0
    outer loop
      vertex -1.45142 4.7847 0
      vertex -1.91342 4.6194 6
      vertex -1.45142 4.7847 6
    endloop
  endfacet
  facet normal -0.336879 0.941548 0
    outer loop
      vertex -1.91342 4.6194 6
      vertex -1.45142 4.7847 0
      vertex -1.91342 4.6194 0
    endloop
  endfacet
  facet normal -0.514103 -0.857728 0
    outer loop
      vertex -2.77785 -4.15735 0
      vertex -2.35698 -4.40961 6
      vertex -2.77785 -4.15735 6
    endloop
  endfacet
  facet normal -0.514103 -0.857728 -0
    outer loop
      vertex -2.35698 -4.40961 6
      vertex -2.77785 -4.15735 0
      vertex -2.35698 -4.40961 0
    endloop
  endfacet
  facet normal -0.941548 0.336879 0
    outer loop
      vertex -4.7847 1.45142 0
      vertex -4.6194 1.91342 6
      vertex -4.6194 1.91342 0
    endloop
  endfacet
  facet normal -0.941548 0.336879 0
    outer loop
      vertex -4.6194 1.91342 6
      vertex -4.7847 1.45142 0
      vertex -4.7847 1.45142 6
    endloop
  endfacet
  facet normal 0.5957 -0.803207 0
    outer loop
      vertex 2.77785 -4.15735 0
      vertex 3.17197 -3.86505 6
      vertex 2.77785 -4.15735 6
    endloop
  endfacet
  facet normal 0.5957 -0.803207 0
    outer loop
      vertex 3.17197 -3.86505 6
      vertex 2.77785 -4.15735 0
      vertex 3.17197 -3.86505 0
    endloop
  endfacet
  facet normal 0.740943 0.671568 0
    outer loop
      vertex 3.86505 3.17197 6
      vertex 3.53553 3.53553 0
      vertex 3.53553 3.53553 6
    endloop
  endfacet
  facet normal 0.740943 0.671568 0
    outer loop
      vertex 3.53553 3.53553 0
      vertex 3.86505 3.17197 6
      vertex 3.86505 3.17197 0
    endloop
  endfacet
  facet normal -0.803207 -0.5957 0
    outer loop
      vertex -3.86505 -3.17197 0
      vertex -4.15735 -2.77785 6
      vertex -4.15735 -2.77785 0
    endloop
  endfacet
  facet normal -0.803207 -0.5957 0
    outer loop
      vertex -4.15735 -2.77785 6
      vertex -3.86505 -3.17197 0
      vertex -3.86505 -3.17197 6
    endloop
  endfacet
  facet normal -0.514103 0.857728 0
    outer loop
      vertex -2.35698 4.40961 0
      vertex -2.77785 4.15735 6
      vertex -2.35698 4.40961 6
    endloop
  endfacet
  facet normal -0.514103 0.857728 0
    outer loop
      vertex -2.77785 4.15735 6
      vertex -2.35698 4.40961 0
      vertex -2.77785 4.15735 0
    endloop
  endfacet
  facet normal -0.989179 -0.146716 0
    outer loop
      vertex -4.90393 -0.975451 0
      vertex -4.97592 -0.490086 6
      vertex -4.97592 -0.490086 0
    endloop
  endfacet
  facet normal -0.989179 -0.146716 0
    outer loop
      vertex -4.97592 -0.490086 6
      vertex -4.90393 -0.975451 0
      vertex -4.90393 -0.975451 6
    endloop
  endfacet
  facet normal -0.903988 0.427558 0
    outer loop
      vertex -4.6194 1.91342 0
      vertex -4.40961 2.35698 6
      vertex -4.40961 2.35698 0
    endloop
  endfacet
  facet normal -0.903988 0.427558 0
    outer loop
      vertex -4.40961 2.35698 6
      vertex -4.6194 1.91342 0
      vertex -4.6194 1.91342 6
    endloop
  endfacet
  facet normal 0.514103 -0.857728 0
    outer loop
      vertex 2.35698 -4.40961 0
      vertex 2.77785 -4.15735 6
      vertex 2.35698 -4.40961 6
    endloop
  endfacet
  facet normal 0.514103 -0.857728 0
    outer loop
      vertex 2.77785 -4.15735 6
      vertex 2.35698 -4.40961 0
      vertex 2.77785 -4.15735 0
    endloop
  endfacet
  facet normal -0.671568 -0.740943 0
    outer loop
      vertex -3.53553 -3.53553 0
      vertex -3.17197 -3.86505 6
      vertex -3.53553 -3.53553 6
    endloop
  endfacet
  facet normal -0.671568 -0.740943 -0
    outer loop
      vertex -3.17197 -3.86505 6
      vertex -3.53553 -3.53553 0
      vertex -3.17197 -3.86505 0
    endloop
  endfacet
  facet normal -0.803207 0.5957 0
    outer loop
      vertex -4.15735 2.77785 0
      vertex -3.86505 3.17197 6
      vertex -3.86505 3.17197 0
    endloop
  endfacet
  facet normal -0.803207 0.5957 0
    outer loop
      vertex -3.86505 3.17197 6
      vertex -4.15735 2.77785 0
      vertex -4.15735 2.77785 6
    endloop
  endfacet
  facet normal -0.049075 -0.998795 0
    outer loop
      vertex -0.490086 -4.97592 0
      vertex 0 -5 6
      vertex -0.490086 -4.97592 6
    endloop
  endfacet
  facet normal -0.049075 -0.998795 -0
    outer loop
      vertex 0 -5 6
      vertex -0.490086 -4.97592 0
      vertex 0 -5 0
    endloop
  endfacet
  facet normal 0 0 1
    outer loop
      vertex 3 0 6
      vertex 5 0 6
      vertex 4.97592 0.490086 6
    endloop
  endfacet
  facet normal 0 0 1
    outer loop
      vertex 2.98555 0.294051 6
      vertex 4.97592 0.490086 6
      vertex 4.90393 0.975451 6
    endloop
  endfacet
  facet normal 0 0 1
    outer loop
      vertex 5 0 6
      vertex 3 0 6
      vertex 4.97592 -0.490086 6
    endloop
  endfacet
  facet normal 0 0 1
    outer loop
      vertex 2.94236 0.585271 6
      vertex 4.90393 0.975451 6
      vertex 4.7847 1.45142 6
    endloop
  endfacet
  facet normal -0 0 1
    outer loop
      vertex 2.98555 -0.294051 6
      vertex 4.97592 -0.490086 6
      vertex 3 0 6
    endloop
  endfacet
  facet normal 0 0 1
    outer loop
      vertex 2.87082 0.870853 6
      vertex 4.7847 1.45142 6
      vertex 4.6194 1.91342 6
    endloop
  endfacet
  facet normal 0 0 1
    outer loop
      vertex 4.97592 -0.490086 6
      vertex 2.98555 -0.294051 6
      vertex 4.90393 -0.975451 6
    endloop
  endfacet
  facet normal 0 0 1
    outer loop
      vertex 2.77164 1.14805 6
      vertex 4.6194 1.91342 6
      vertex 4.40961 2.35698 6
    endloop
  endfacet
  facet normal -0 0 1
    outer loop
      vertex 2.94236 -0.585271 6
      vertex 4.90393 -0.975451 6
      vertex 2.98555 -0.294051 6
    endloop
  endfacet
  facet normal 0 0 1
    outer loop
      vertex 2.64576 1.41419 6
      vertex 4.40961 2.35698 6
      vertex 4.15735 2.77785 6
    endloop
  endfacet
  facet normal 0 0 1
    outer loop
      vertex 4.90393 -0.975451 6
      vertex 2.94236 -0.585271 6
      vertex 4.7847 -1.45142 6
    endloop
  endfacet
  facet normal 0 0 1
    outer loop
      vertex 2.49441 1.66671 6
      vertex 4.15735 2.77785 6
      vertex 3.86505 3.17197 6
    endloop
  endfacet
  facet normal -0 0 1
    outer loop
      vertex 2.87082 -0.870853 6
      vertex 4.7847 -1.45142 6
      vertex 2.94236 -0.585271 6
    endloop
  endfacet
  facet normal 0 0 1
    outer loop
      vertex 2.31903 1.90318 6
      vertex 3.86505 3.17197 6
      vertex 3.53553 3.53553 6
    endloop
  endfacet
  facet normal 0 0 1
    outer loop
      vertex 4.7847 -1.45142 6
      vertex 2.87082 -0.870853 6
      vertex 4.6194 -1.91342 6
    endloop
  endfacet
  facet normal 0 0 1
    outer loop
      vertex 2.12132 2.12132 6
      vertex 3.53553 3.53553 6
      vertex 3.17197 3.86505 6
    endloop
  endfacet
  facet normal -0 0 1
    outer loop
      vertex 2.77164 -1.14805 6
      vertex 4.6194 -1.91342 6
      vertex 2.87082 -0.870853 6
    endloop
  endfacet
  facet normal 0 0 1
    outer loop
      vertex 4.6194 -1.91342 6
      vertex 2.77164 -1.14805 6
      vertex 4.40961 -2.35698 6
    endloop
  endfacet
  facet normal 0 0 1
    outer loop
      vertex 4.97592 0.490086 6
      vertex 2.98555 0.294051 6
      vertex 3 0 6
    endloop
  endfacet
  facet normal 0 0 1
    outer loop
      vertex 4.90393 0.975451 6
      vertex 2.94236 0.585271 6
      vertex 2.98555 0.294051 6
    endloop
  endfacet
  facet normal 0 0 1
    outer loop
      vertex 4.7847 1.45142 6
      vertex 2.87082 0.870853 6
      vertex 2.94236 0.585271 6
    endloop
  endfacet
  facet normal 0 0 1
    outer loop
      vertex 1.90318 2.31903 6
      vertex 3.17197 3.86505 6
      vertex 2.77785 4.15735 6
    endloop
  endfacet
  facet normal 0 0 1
    outer loop
      vertex 4.6194 1.91342 6
      vertex 2.77164 1.14805 6
      vertex 2.87082 0.870853 6
    endloop
  endfacet
  facet normal 0 0 1
    outer loop
      vertex 4.40961 2.35698 6
      vertex 2.64576 1.41419 6
      vertex 2.77164 1.14805 6
    endloop
  endfacet
  facet normal 0 0 1
    outer loop
      vertex 4.15735 2.77785 6
      vertex 2.49441 1.66671 6
      vertex 2.64576 1.41419 6
    endloop
  endfacet
  facet normal 0 0 1
    outer loop
      vertex 1.66671 2.49441 6
      vertex 2.77785 4.15735 6
      vertex 2.35698 4.40961 6
    endloop
  endfacet
  facet normal 0 0 1
    outer loop
      vertex 3.86505 3.17197 6
      vertex 2.31903 1.90318 6
      vertex 2.49441 1.66671 6
    endloop
  endfacet
  facet normal 0 0 1
    outer loop
      vertex 3.53553 3.53553 6
      vertex 2.12132 2.12132 6
      vertex 2.31903 1.90318 6
    endloop
  endfacet
  facet normal 0 0 1
    outer loop
      vertex 1.41419 2.64576 6
      vertex 2.35698 4.40961 6
      vertex 1.91342 4.6194 6
    endloop
  endfacet
  facet normal 0 0 1
    outer loop
      vertex 3.17197 3.86505 6
      vertex 1.90318 2.31903 6
      vertex 2.12132 2.12132 6
    endloop
  endfacet
  facet normal 0 0 1
    outer loop
      vertex 2.77785 4.15735 6
      vertex 1.66671 2.49441 6
      vertex 1.90318 2.31903 6
    endloop
  endfacet
  facet normal 0 0 1
    outer loop
      vertex 1.14805 2.77164 6
      vertex 1.91342 4.6194 6
      vertex 1.45142 4.7847 6
    endloop
  endfacet
  facet normal 0 0 1
    outer loop
      vertex 2.35698 4.40961 6
      vertex 1.41419 2.64576 6
      vertex 1.66671 2.49441 6
    endloop
  endfacet
  facet normal 0 0 1
    outer loop
      vertex 1.91342 4.6194 6
      vertex 1.14805 2.77164 6
      vertex 1.41419 2.64576 6
    endloop
  endfacet
  facet normal 0 0 1
    outer loop
      vertex 0.870853 2.87082 6
      vertex 1.45142 4.7847 6
      vertex 0.975451 4.90393 6
    endloop
  endfacet
  facet normal 0 0 1
    outer loop
      vertex 1.45142 4.7847 6
      vertex 0.870853 2.87082 6
      vertex 1.14805 2.77164 6
    endloop
  endfacet
  facet normal 0 0 1
    outer loop
      vertex 0.975451 4.90393 6
      vertex 0.585271 2.94236 6
      vertex 0.870853 2.87082 6
    endloop
  endfacet
  facet normal 0 0 1
    outer loop
      vertex 0.490086 4.97592 6
      vertex 0.585271 2.94236 6
      vertex 0.975451 4.90393 6
    endloop
  endfacet
  facet normal 0 0 1
    outer loop
      vertex 0.490086 4.97592 6
      vertex 0.294051 2.98555 6
      vertex 0.585271 2.94236 6
    endloop
  endfacet
  facet normal 0 0 1
    outer loop
      vertex 0 5 6
      vertex 0.294051 2.98555 6
      vertex 0.490086 4.97592 6
    endloop
  endfacet
  facet normal 0 0 1
    outer loop
      vertex 0 5 6
      vertex 0 3 6
      vertex 0.294051 2.98555 6
    endloop
  endfacet
  facet normal 0 0 1
    outer loop
      vertex 0 5 6
      vertex -0.294051 2.98555 6
      vertex 0 3 6
    endloop
  endfacet
  facet normal -0 0 1
    outer loop
      vertex -0.490086 4.97592 6
      vertex -0.294051 2.98555 6
      vertex 0 5 6
    endloop
  endfacet
  facet normal 0 0 1
    outer loop
      vertex -0.490086 4.97592 6
      vertex -0.585271 2.94236 6
      vertex -0.294051 2.98555 6
    endloop
  endfacet
  facet normal -0 0 1
    outer loop
      vertex -0.975451 4.90393 6
      vertex -0.585271 2.94236 6
      vertex -0.490086 4.97592 6
    endloop
  endfacet
  facet normal 0 0 1
    outer loop
      vertex -0.585271 2.94236 6
      vertex -0.975451 4.90393 6
      vertex -0.870853 2.87082 6
    endloop
  endfacet
  facet normal -0 0 1
    outer loop
      vertex -1.45142 4.7847 6
      vertex -0.870853 2.87082 6
      vertex -0.975451 4.90393 6
    endloop
  endfacet
  facet normal 0 0 1
    outer loop
      vertex -0.870853 2.87082 6
      vertex -1.45142 4.7847 6
      vertex -1.14805 2.77164 6
    endloop
  endfacet
  facet normal -0 0 1
    outer loop
      vertex -1.91342 4.6194 6
      vertex -1.14805 2.77164 6
      vertex -1.45142 4.7847 6
    endloop
  endfacet
  facet normal 0 0 1
    outer loop
      vertex -1.14805 2.77164 6
      vertex -1.91342 4.6194 6
      vertex -1.41419 2.64576 6
    endloop
  endfacet
  facet normal -0 0 1
    outer loop
      vertex -2.35698 4.40961 6
      vertex -1.41419 2.64576 6
      vertex -1.91342 4.6194 6
    endloop
  endfacet
  facet normal 0 0 1
    outer loop
      vertex -1.41419 2.64576 6
      vertex -2.35698 4.40961 6
      vertex -1.66671 2.49441 6
    endloop
  endfacet
  facet normal -0 0 1
    outer loop
      vertex -2.77785 4.15735 6
      vertex -1.66671 2.49441 6
      vertex -2.35698 4.40961 6
    endloop
  endfacet
  facet normal 0 0 1
    outer loop
      vertex -1.66671 2.49441 6
      vertex -2.77785 4.15735 6
      vertex -1.90318 2.31903 6
    endloop
  endfacet
  facet normal -0 0 1
    outer loop
      vertex -3.17197 3.86505 6
      vertex -1.90318 2.31903 6
      vertex -2.77785 4.15735 6
    endloop
  endfacet
  facet normal 0 0 1
    outer loop
      vertex -1.90318 2.31903 6
      vertex -3.17197 3.86505 6
      vertex -2.12132 2.12132 6
    endloop
  endfacet
  facet normal -0 0 1
    outer loop
      vertex -3.53553 3.53553 6
      vertex -2.12132 2.12132 6
      vertex -3.17197 3.86505 6
    endloop
  endfacet
  facet normal 0 0 1
    outer loop
      vertex -2.12132 2.12132 6
      vertex -3.53553 3.53553 6
      vertex -2.31903 1.90318 6
    endloop
  endfacet
  facet normal -0 0 1
    outer loop
      vertex -3.86505 3.17197 6
      vertex -2.31903 1.90318 6
      vertex -3.53553 3.53553 6
    endloop
  endfacet
  facet normal 0 0 1
    outer loop
      vertex -2.31903 1.90318 6
      vertex -3.86505 3.17197 6
      vertex -2.49441 1.66671 6
    endloop
  endfacet
  facet normal -0 0 1
    outer loop
      vertex -4.15735 2.77785 6
      vertex -2.49441 1.66671 6
      vertex -3.86505 3.17197 6
    endloop
  endfacet
  facet normal 0 0 1
    outer loop
      vertex -2.49441 1.66671 6
      vertex -4.15735 2.77785 6
      vertex -2.64576 1.41419 6
    endloop
  endfacet
  facet normal 0 0 1
    outer loop
      vertex -2.64576 1.41419 6
      vertex -4.40961 2.35698 6
      vertex -2.77164 1.14805 6
    endloop
  endfacet
  facet normal -0 0 1
    outer loop
      vertex -4.40961 2.35698 6
      vertex -2.64576 1.41419 6
      vertex -4.15735 2.77785 6
    endloop
  endfacet
  facet normal -0 0 1
    outer loop
      vertex 2.64576 -1.41419 6
      vertex 4.40961 -2.35698 6
      vertex 2.77164 -1.14805 6
    endloop
  endfacet
  facet normal 0 0 1
    outer loop
      vertex 4.40961 -2.35698 6
      vertex 2.64576 -1.41419 6
      vertex 4.15735 -2.77785 6
    endloop
  endfacet
  facet normal -0 0 1
    outer loop
      vertex 2.49441 -1.66671 6
      vertex 4.15735 -2.77785 6
      vertex 2.64576 -1.41419 6
    endloop
  endfacet
  facet normal 0 0 1
    outer loop
      vertex 4.15735 -2.77785 6
      vertex 2.49441 -1.66671 6
      vertex 3.86505 -3.17197 6
    endloop
  endfacet
  facet normal -0 0 1
    outer loop
      vertex 2.31903 -1.90318 6
      vertex 3.86505 -3.17197 6
      vertex 2.49441 -1.66671 6
    endloop
  endfacet
  facet normal 0 0 1
    outer loop
      vertex 3.86505 -3.17197 6
      vertex 2.31903 -1.90318 6
      vertex 3.53553 -3.53553 6
    endloop
  endfacet
  facet normal -0 0 1
    outer loop
      vertex 2.12132 -2.12132 6
      vertex 3.53553 -3.53553 6
      vertex 2.31903 -1.90318 6
    endloop
  endfacet
  facet normal 0 0 1
    outer loop
      vertex 3.53553 -3.53553 6
      vertex 2.12132 -2.12132 6
      vertex 3.17197 -3.86505 6
    endloop
  endfacet
  facet normal -0 0 1
    outer loop
      vertex 1.90318 -2.31903 6
      vertex 3.17197 -3.86505 6
      vertex 2.12132 -2.12132 6
    endloop
  endfacet
  facet normal 0 0 1
    outer loop
      vertex 3.17197 -3.86505 6
      vertex 1.90318 -2.31903 6
      vertex 2.77785 -4.15735 6
    endloop
  endfacet
  facet normal -0 0 1
    outer loop
      vertex 1.66671 -2.49441 6
      vertex 2.77785 -4.15735 6
      vertex 1.90318 -2.31903 6
    endloop
  endfacet
  facet normal 0 0 1
    outer loop
      vertex 2.77785 -4.15735 6
      vertex 1.66671 -2.49441 6
      vertex 2.35698 -4.40961 6
    endloop
  endfacet
  facet normal -0 0 1
    outer loop
      vertex 1.41419 -2.64576 6
      vertex 2.35698 -4.40961 6
      vertex 1.66671 -2.49441 6
    endloop
  endfacet
  facet normal 0 0 1
    outer loop
      vertex 2.35698 -4.40961 6
      vertex 1.41419 -2.64576 6
      vertex 1.91342 -4.6194 6
    endloop
  endfacet
  facet normal -0 0 1
    outer loop
      vertex 1.14805 -2.77164 6
      vertex 1.91342 -4.6194 6
      vertex 1.41419 -2.64576 6
    endloop
  endfacet
  facet normal 0 0 1
    outer loop
      vertex 1.91342 -4.6194 6
      vertex 1.14805 -2.77164 6
      vertex 1.45142 -4.7847 6
    endloop
  endfacet
  facet normal -0 0 1
    outer loop
      vertex 0.870853 -2.87082 6
      vertex 1.45142 -4.7847 6
      vertex 1.14805 -2.77164 6
    endloop
  endfacet
  facet normal 0 0 1
    outer loop
      vertex 1.45142 -4.7847 6
      vertex 0.870853 -2.87082 6
      vertex 0.975451 -4.90393 6
    endloop
  endfacet
  facet normal -0 0 1
    outer loop
      vertex 0.585271 -2.94236 6
      vertex 0.975451 -4.90393 6
      vertex 0.870853 -2.87082 6
    endloop
  endfacet
  facet normal 0 0 1
    outer loop
      vertex 0.585271 -2.94236 6
      vertex 0.490086 -4.97592 6
      vertex 0.975451 -4.90393 6
    endloop
  endfacet
  facet normal -0 0 1
    outer loop
      vertex 0.294051 -2.98555 6
      vertex 0.490086 -4.97592 6
      vertex 0.585271 -2.94236 6
    endloop
  endfacet
  facet normal -0 0 1
    outer loop
      vertex 0 -3 6
      vertex 0.490086 -4.97592 6
      vertex 0.294051 -2.98555 6
    endloop
  endfacet
  facet normal 0 0 1
    outer loop
      vertex 0 -3 6
      vertex 0 -5 6
      vertex 0.490086 -4.97592 6
    endloop
  endfacet
  facet normal 0 0 1
    outer loop
      vertex -0.294051 -2.98555 6
      vertex 0 -5 6
      vertex 0 -3 6
    endloop
  endfacet
  facet normal 0 0 1
    outer loop
      vertex -0.294051 -2.98555 6
      vertex -0.490086 -4.97592 6
      vertex 0 -5 6
    endloop
  endfacet
  facet normal 0 0 1
    outer loop
      vertex -0.585271 -2.94236 6
      vertex -0.490086 -4.97592 6
      vertex -0.294051 -2.98555 6
    endloop
  endfacet
  facet normal 0 0 1
    outer loop
      vertex -0.975451 -4.90393 6
      vertex -0.585271 -2.94236 6
      vertex -0.870853 -2.87082 6
    endloop
  endfacet
  facet normal 0 0 1
    outer loop
      vertex -0.585271 -2.94236 6
      vertex -0.975451 -4.90393 6
      vertex -0.490086 -4.97592 6
    endloop
  endfacet
  facet normal 0 0 1
    outer loop
      vertex -1.45142 -4.7847 6
      vertex -0.870853 -2.87082 6
      vertex -1.14805 -2.77164 6
    endloop
  endfacet
  facet normal 0 0 1
    outer loop
      vertex -1.91342 -4.6194 6
      vertex -1.14805 -2.77164 6
      vertex -1.41419 -2.64576 6
    endloop
  endfacet
  facet normal 0 0 1
    outer loop
      vertex -0.870853 -2.87082 6
      vertex -1.45142 -4.7847 6
      vertex -0.975451 -4.90393 6
    endloop
  endfacet
  facet normal 0 0 1
    outer loop
      vertex -2.35698 -4.40961 6
      vertex -1.41419 -2.64576 6
      vertex -1.66671 -2.49441 6
    endloop
  endfacet
  facet normal 0 0 1
    outer loop
      vertex -2.77785 -4.15735 6
      vertex -1.66671 -2.49441 6
      vertex -1.90318 -2.31903 6
    endloop
  endfacet
  facet normal 0 0 1
    outer loop
      vertex -1.14805 -2.77164 6
      vertex -1.91342 -4.6194 6
      vertex -1.45142 -4.7847 6
    endloop
  endfacet
  facet normal 0 0 1
    outer loop
      vertex -3.17197 -3.86505 6
      vertex -1.90318 -2.31903 6
      vertex -2.12132 -2.12132 6
    endloop
  endfacet
  facet normal 0 0 1
    outer loop
      vertex -3.53553 -3.53553 6
      vertex -2.12132 -2.12132 6
      vertex -2.31903 -1.90318 6
    endloop
  endfacet
  facet normal 0 0 1
    outer loop
      vertex -1.41419 -2.64576 6
      vertex -2.35698 -4.40961 6
      vertex -1.91342 -4.6194 6
    endloop
  endfacet
  facet normal 0 0 1
    outer loop
      vertex -3.86505 -3.17197 6
      vertex -2.31903 -1.90318 6
      vertex -2.49441 -1.66671 6
    endloop
  endfacet
  facet normal 0 0 1
    outer loop
      vertex -4.15735 -2.77785 6
      vertex -2.49441 -1.66671 6
      vertex -2.64576 -1.41419 6
    endloop
  endfacet
  facet normal 0 0 1
    outer loop
      vertex -4.40961 -2.35698 6
      vertex -2.64576 -1.41419 6
      vertex -2.77164 -1.14805 6
    endloop
  endfacet
  facet normal 0 0 1
    outer loop
      vertex -1.66671 -2.49441 6
      vertex -2.77785 -4.15735 6
      vertex -2.35698 -4.40961 6
    endloop
  endfacet
  facet normal 0 0 1
    outer loop
      vertex -4.6194 -1.91342 6
      vertex -2.77164 -1.14805 6
      vertex -2.87082 -0.870853 6
    endloop
  endfacet
  facet normal 0 0 1
    outer loop
      vertex -4.7847 -1.45142 6
      vertex -2.87082 -0.870853 6
      vertex -2.94236 -0.585271 6
    endloop
  endfacet
  facet normal 0 0 1
    outer loop
      vertex -4.90393 -0.975451 6
      vertex -2.94236 -0.585271 6
      vertex -2.98555 -0.294051 6
    endloop
  endfacet
  facet normal 0 0 1
    outer loop
      vertex -1.90318 -2.31903 6
      vertex -3.17197 -3.86505 6
      vertex -2.77785 -4.15735 6
    endloop
  endfacet
  facet normal 0 0 1
    outer loop
      vertex -4.97592 -0.490086 6
      vertex -2.98555 -0.294051 6
      vertex -3 0 6
    endloop
  endfacet
  facet normal -0 0 1
    outer loop
      vertex -4.6194 1.91342 6
      vertex -2.77164 1.14805 6
      vertex -4.40961 2.35698 6
    endloop
  endfacet
  facet normal 0 0 1
    outer loop
      vertex -2.77164 1.14805 6
      vertex -4.6194 1.91342 6
      vertex -2.87082 0.870853 6
    endloop
  endfacet
  facet normal 0 0 1
    outer loop
      vertex -2.12132 -2.12132 6
      vertex -3.53553 -3.53553 6
      vertex -3.17197 -3.86505 6
    endloop
  endfacet
  facet normal -0 0 1
    outer loop
      vertex -4.7847 1.45142 6
      vertex -2.87082 0.870853 6
      vertex -4.6194 1.91342 6
    endloop
  endfacet
  facet normal 0 0 1
    outer loop
      vertex -2.31903 -1.90318 6
      vertex -3.86505 -3.17197 6
      vertex -3.53553 -3.53553 6
    endloop
  endfacet
  facet normal 0 0 1
    outer loop
      vertex -2.87082 0.870853 6
      vertex -4.7847 1.45142 6
      vertex -2.94236 0.585271 6
    endloop
  endfacet
  facet normal 0 0 1
    outer loop
      vertex -2.49441 -1.66671 6
      vertex -4.15735 -2.77785 6
      vertex -3.86505 -3.17197 6
    endloop
  endfacet
  facet normal -0 0 1
    outer loop
      vertex -4.90393 0.975451 6
      vertex -2.94236 0.585271 6
      vertex -4.7847 1.45142 6
    endloop
  endfacet
  facet normal 0 0 1
    outer loop
      vertex -2.64576 -1.41419 6
      vertex -4.40961 -2.35698 6
      vertex -4.15735 -2.77785 6
    endloop
  endfacet
  facet normal 0 0 1
    outer loop
      vertex -2.94236 0.585271 6
      vertex -4.90393 0.975451 6
      vertex -2.98555 0.294051 6
    endloop
  endfacet
  facet normal 0 0 1
    outer loop
      vertex -2.77164 -1.14805 6
      vertex -4.6194 -1.91342 6
      vertex -4.40961 -2.35698 6
    endloop
  endfacet
  facet normal -0 0 1
    outer loop
      vertex -4.97592 0.490086 6
      vertex -2.98555 0.294051 6
      vertex -4.90393 0.975451 6
    endloop
  endfacet
  facet normal 0 0 1
    outer loop
      vertex -2.87082 -0.870853 6
      vertex -4.7847 -1.45142 6
      vertex -4.6194 -1.91342 6
    endloop
  endfacet
  facet normal 0 0 1
    outer loop
      vertex -2.98555 0.294051 6
      vertex -4.97592 0.490086 6
      vertex -3 0 6
    endloop
  endfacet
  facet normal 0 0 1
    outer loop
      vertex -2.94236 -0.585271 6
      vertex -4.90393 -0.975451 6
      vertex -4.7847 -1.45142 6
    endloop
  endfacet
  facet normal 0 0 1
    outer loop
      vertex -5 0 6
      vertex -3 0 6
      vertex -4.97592 0.490086 6
    endloop
  endfacet
  facet normal 0 0 1
    outer loop
      vertex -2.98555 -0.294051 6
      vertex -4.97592 -0.490086 6
      vertex -4.90393 -0.975451 6
    endloop
  endfacet
  facet normal 0 0 1
    outer loop
      vertex -3 0 6
      vertex -5 0 6
      vertex -4.97592 -0.490086 6
    endloop
  endfacet
  facet normal 0 0 -1
    outer loop
      vertex 1.25 -2.16506 6
      vertex 1.25 2.16506 6
      vertex 2.5 0 6
    endloop
  endfacet
  facet normal 0 0 -1
    outer loop
      vertex -1.25 -2.16506 6
      vertex 1.25 2.16506 6
      vertex 1.25 -2.16506 6
    endloop
  endfacet
  facet normal 0 0 -1
    outer loop
      vertex -1.25 -2.16506 6
      vertex -1.25 2.16506 6
      vertex 1.25 2.16506 6
    endloop
  endfacet
  facet normal 0 -0 -1
    outer loop
      vertex -1.25 2.16506 6
      vertex -1.25 -2.16506 6
      vertex -2.5 0 6
    endloop
  endfacet
  facet normal -0.998795 0.049075 0
    outer loop
      vertex -5 0 0
      vertex -4.97592 0.490086 6
      vertex -4.97592 0.490086 0
    endloop
  endfacet
  facet normal -0.998795 0.049075 0
    outer loop
      vertex -4.97592 0.490086 6
      vertex -5 0 0
      vertex -5 0 6
    endloop
  endfacet
  facet normal -0.336879 -0.941548 0
    outer loop
      vertex -1.91342 -4.6194 0
      vertex -1.45142 -4.7847 6
      vertex -1.91342 -4.6194 6
    endloop
  endfacet
  facet normal -0.336879 -0.941548 -0
    outer loop
      vertex -1.45142 -4.7847 6
      vertex -1.91342 -4.6194 0
      vertex -1.45142 -4.7847 0
    endloop
  endfacet
  facet normal 0.671568 -0.740943 0
    outer loop
      vertex 3.17197 -3.86505 0
      vertex 3.53553 -3.53553 6
      vertex 3.17197 -3.86505 6
    endloop
  endfacet
  facet normal 0.671568 -0.740943 0
    outer loop
      vertex 3.53553 -3.53553 6
      vertex 3.17197 -3.86505 0
      vertex 3.53553 -3.53553 0
    endloop
  endfacet
  facet normal 0 1 -0
    outer loop
      vertex 1.25 -2.16506 3
      vertex -1.25 -2.16506 6
      vertex 1.25 -2.16506 6
    endloop
  endfacet
  facet normal 0 1 0
    outer loop
      vertex -1.25 -2.16506 6
      vertex 1.25 -2.16506 3
      vertex -1.25 -2.16506 3
    endloop
  endfacet
  facet normal -0.866025 0.500001 0
    outer loop
      vertex 1.25 -2.16506 3
      vertex 2.5 0 6
      vertex 2.5 0 3
    endloop
  endfacet
  facet normal -0.866025 0.500001 0
    outer loop
      vertex 2.5 0 6
      vertex 1.25 -2.16506 3
      vertex 1.25 -2.16506 6
    endloop
  endfacet
  facet normal 0 -1 0
    outer loop
      vertex -1.25 2.16506 3
      vertex 1.25 2.16506 6
      vertex -1.25 2.16506 6
    endloop
  endfacet
  facet normal 0 -1 -0
    outer loop
      vertex 1.25 2.16506 6
      vertex -1.25 2.16506 3
      vertex 1.25 2.16506 3
    endloop
  endfacet
  facet normal -0.866025 -0.500001 0
    outer loop
      vertex 2.5 0 3
      vertex 1.25 2.16506 6
      vertex 1.25 2.16506 3
    endloop
  endfacet
  facet normal -0.866025 -0.500001 0
    outer loop
      vertex 1.25 2.16506 6
      vertex 2.5 0 3
      vertex 2.5 0 6
    endloop
  endfacet
  facet normal 0.866025 -0.500001 0
    outer loop
      vertex -2.5 0 6
      vertex -1.25 2.16506 3
      vertex -1.25 2.16506 6
    endloop
  endfacet
  facet normal 0.866025 -0.500001 0
    outer loop
      vertex -1.25 2.16506 3
      vertex -2.5 0 6
      vertex -2.5 0 3
    endloop
  endfacet
  facet normal 0.866025 0.500001 0
    outer loop
      vertex -1.25 -2.16506 6
      vertex -2.5 0 3
      vertex -2.5 0 6
    endloop
  endfacet
  facet normal 0.866025 0.500001 0
    outer loop
      vertex -2.5 0 3
      vertex -1.25 -2.16506 6
      vertex -1.25 -2.16506 3
    endloop
  endfacet
  facet normal 0 0 1
    outer loop
      vertex 1.25 2.16506 3
      vertex 1.25 -2.16506 3
      vertex 2.5 0 3
    endloop
  endfacet
  facet normal -0 0 1
    outer loop
      vertex -1.25 2.16506 3
      vertex 1.25 -2.16506 3
      vertex 1.25 2.16506 3
    endloop
  endfacet
  facet normal 0 0 1
    outer loop
      vertex -1.25 2.16506 3
      vertex -1.25 -2.16506 3
      vertex 1.25 -2.16506 3
    endloop
  endfacet
  facet normal 0 -0 1
    outer loop
      vertex -1.25 -2.16506 3
      vertex -1.25 2.16506 3
      vertex -2.5 0 3
    endloop
  endfacet
  facet normal 0.941547 -0.336882 0
    outer loop
      vertex 2.77164 -1.14805 35
      vertex 2.87082 -0.870853 6
      vertex 2.87082 -0.870853 35
    endloop
  endfacet
  facet normal 0.941547 -0.336882 0
    outer loop
      vertex 2.87082 -0.870853 6
      vertex 2.77164 -1.14805 35
      vertex 2.77164 -1.14805 6
    endloop
  endfacet
  facet normal 0.803204 0.595703 0
    outer loop
      vertex 2.49441 1.66671 35
      vertex 2.31903 1.90318 6
      vertex 2.31903 1.90318 35
    endloop
  endfacet
  facet normal 0.803204 0.595703 0
    outer loop
      vertex 2.31903 1.90318 6
      vertex 2.49441 1.66671 35
      vertex 2.49441 1.66671 6
    endloop
  endfacet
  facet normal -0.740952 -0.671558 0
    outer loop
      vertex -2.12132 -2.12132 6
      vertex -2.31903 -1.90318 35
      vertex -2.31903 -1.90318 6
    endloop
  endfacet
  facet normal -0.740952 -0.671558 0
    outer loop
      vertex -2.31903 -1.90318 35
      vertex -2.12132 -2.12132 6
      vertex -2.12132 -2.12132 35
    endloop
  endfacet
  facet normal 0.989181 0.146703 0
    outer loop
      vertex 2.98555 0.294051 35
      vertex 2.94236 0.585271 6
      vertex 2.94236 0.585271 35
    endloop
  endfacet
  facet normal 0.989181 0.146703 0
    outer loop
      vertex 2.94236 0.585271 6
      vertex 2.98555 0.294051 35
      vertex 2.98555 0.294051 6
    endloop
  endfacet
  facet normal 0.671558 0.740952 -0
    outer loop
      vertex 2.12132 2.12132 6
      vertex 1.90318 2.31903 35
      vertex 2.12132 2.12132 35
    endloop
  endfacet
  facet normal 0.671558 0.740952 0
    outer loop
      vertex 1.90318 2.31903 35
      vertex 2.12132 2.12132 6
      vertex 1.90318 2.31903 6
    endloop
  endfacet
  facet normal -0.671558 0.740952 0
    outer loop
      vertex -1.90318 2.31903 6
      vertex -2.12132 2.12132 35
      vertex -1.90318 2.31903 35
    endloop
  endfacet
  facet normal -0.671558 0.740952 0
    outer loop
      vertex -2.12132 2.12132 35
      vertex -1.90318 2.31903 6
      vertex -2.12132 2.12132 6
    endloop
  endfacet
  facet normal 0.242998 -0.970027 0
    outer loop
      vertex 0.585271 -2.94236 6
      vertex 0.870853 -2.87082 35
      vertex 0.585271 -2.94236 35
    endloop
  endfacet
  facet normal 0.242998 -0.970027 0
    outer loop
      vertex 0.870853 -2.87082 35
      vertex 0.585271 -2.94236 6
      vertex 0.870853 -2.87082 6
    endloop
  endfacet
  facet normal 0.514091 0.857736 -0
    outer loop
      vertex 1.66671 2.49441 6
      vertex 1.41419 2.64576 35
      vertex 1.66671 2.49441 35
    endloop
  endfacet
  facet normal 0.514091 0.857736 0
    outer loop
      vertex 1.41419 2.64576 35
      vertex 1.66671 2.49441 6
      vertex 1.41419 2.64576 6
    endloop
  endfacet
  facet normal -0.336882 0.941547 0
    outer loop
      vertex -0.870853 2.87082 6
      vertex -1.14805 2.77164 35
      vertex -0.870853 2.87082 35
    endloop
  endfacet
  facet normal -0.336882 0.941547 0
    outer loop
      vertex -1.14805 2.77164 35
      vertex -0.870853 2.87082 6
      vertex -1.14805 2.77164 6
    endloop
  endfacet
  facet normal 0.514091 -0.857736 0
    outer loop
      vertex 1.41419 -2.64576 6
      vertex 1.66671 -2.49441 35
      vertex 1.41419 -2.64576 35
    endloop
  endfacet
  facet normal 0.514091 -0.857736 0
    outer loop
      vertex 1.66671 -2.49441 35
      vertex 1.41419 -2.64576 6
      vertex 1.66671 -2.49441 6
    endloop
  endfacet
  facet normal 0.740952 -0.671558 0
    outer loop
      vertex 2.12132 -2.12132 35
      vertex 2.31903 -1.90318 6
      vertex 2.31903 -1.90318 35
    endloop
  endfacet
  facet normal 0.740952 -0.671558 0
    outer loop
      vertex 2.31903 -1.90318 6
      vertex 2.12132 -2.12132 35
      vertex 2.12132 -2.12132 6
    endloop
  endfacet
  facet normal 0.989181 -0.146703 0
    outer loop
      vertex 2.94236 -0.585271 35
      vertex 2.98555 -0.294051 6
      vertex 2.98555 -0.294051 35
    endloop
  endfacet
  facet normal 0.989181 -0.146703 0
    outer loop
      vertex 2.98555 -0.294051 6
      vertex 2.94236 -0.585271 35
      vertex 2.94236 -0.585271 6
    endloop
  endfacet
  facet normal 0.146703 -0.989181 0
    outer loop
      vertex 0.294051 -2.98555 6
      vertex 0.585271 -2.94236 35
      vertex 0.294051 -2.98555 35
    endloop
  endfacet
  facet normal 0.146703 -0.989181 0
    outer loop
      vertex 0.585271 -2.94236 35
      vertex 0.294051 -2.98555 6
      vertex 0.585271 -2.94236 6
    endloop
  endfacet
  facet normal -0.595703 0.803204 0
    outer loop
      vertex -1.66671 2.49441 6
      vertex -1.90318 2.31903 35
      vertex -1.66671 2.49441 35
    endloop
  endfacet
  facet normal -0.595703 0.803204 0
    outer loop
      vertex -1.90318 2.31903 35
      vertex -1.66671 2.49441 6
      vertex -1.90318 2.31903 6
    endloop
  endfacet
  facet normal 0.336882 0.941547 -0
    outer loop
      vertex 1.14805 2.77164 6
      vertex 0.870853 2.87082 35
      vertex 1.14805 2.77164 35
    endloop
  endfacet
  facet normal 0.336882 0.941547 0
    outer loop
      vertex 0.870853 2.87082 35
      vertex 1.14805 2.77164 6
      vertex 0.870853 2.87082 6
    endloop
  endfacet
  facet normal -0.427569 -0.903983 0
    outer loop
      vertex -1.41419 -2.64576 6
      vertex -1.14805 -2.77164 35
      vertex -1.41419 -2.64576 35
    endloop
  endfacet
  facet normal -0.427569 -0.903983 -0
    outer loop
      vertex -1.14805 -2.77164 35
      vertex -1.41419 -2.64576 6
      vertex -1.14805 -2.77164 6
    endloop
  endfacet
  facet normal -0.595703 -0.803204 0
    outer loop
      vertex -1.90318 -2.31903 6
      vertex -1.66671 -2.49441 35
      vertex -1.90318 -2.31903 35
    endloop
  endfacet
  facet normal -0.595703 -0.803204 -0
    outer loop
      vertex -1.66671 -2.49441 35
      vertex -1.90318 -2.31903 6
      vertex -1.66671 -2.49441 6
    endloop
  endfacet
  facet normal 0.998795 0.0490819 0
    outer loop
      vertex 3 0 35
      vertex 2.98555 0.294051 6
      vertex 2.98555 0.294051 35
    endloop
  endfacet
  facet normal 0.998795 0.0490819 0
    outer loop
      vertex 2.98555 0.294051 6
      vertex 3 0 35
      vertex 3 0 6
    endloop
  endfacet
  facet normal -0.970027 -0.242998 0
    outer loop
      vertex -2.87082 -0.870853 6
      vertex -2.94236 -0.585271 35
      vertex -2.94236 -0.585271 6
    endloop
  endfacet
  facet normal -0.970027 -0.242998 0
    outer loop
      vertex -2.94236 -0.585271 35
      vertex -2.87082 -0.870853 6
      vertex -2.87082 -0.870853 35
    endloop
  endfacet
  facet normal -0.903983 -0.427569 0
    outer loop
      vertex -2.64576 -1.41419 6
      vertex -2.77164 -1.14805 35
      vertex -2.77164 -1.14805 6
    endloop
  endfacet
  facet normal -0.903983 -0.427569 0
    outer loop
      vertex -2.77164 -1.14805 35
      vertex -2.64576 -1.41419 6
      vertex -2.64576 -1.41419 35
    endloop
  endfacet
  facet normal -0.146703 0.989181 0
    outer loop
      vertex -0.294051 2.98555 6
      vertex -0.585271 2.94236 35
      vertex -0.294051 2.98555 35
    endloop
  endfacet
  facet normal -0.146703 0.989181 0
    outer loop
      vertex -0.585271 2.94236 35
      vertex -0.294051 2.98555 6
      vertex -0.585271 2.94236 6
    endloop
  endfacet
  facet normal -0.0490819 0.998795 0
    outer loop
      vertex 0 3 6
      vertex -0.294051 2.98555 35
      vertex 0 3 35
    endloop
  endfacet
  facet normal -0.0490819 0.998795 0
    outer loop
      vertex -0.294051 2.98555 35
      vertex 0 3 6
      vertex -0.294051 2.98555 6
    endloop
  endfacet
  facet normal -0.242998 -0.970027 0
    outer loop
      vertex -0.870853 -2.87082 6
      vertex -0.585271 -2.94236 35
      vertex -0.870853 -2.87082 35
    endloop
  endfacet
  facet normal -0.242998 -0.970027 -0
    outer loop
      vertex -0.585271 -2.94236 35
      vertex -0.870853 -2.87082 6
      vertex -0.585271 -2.94236 6
    endloop
  endfacet
  facet normal 0.903983 0.427569 0
    outer loop
      vertex 2.77164 1.14805 35
      vertex 2.64576 1.41419 6
      vertex 2.64576 1.41419 35
    endloop
  endfacet
  facet normal 0.903983 0.427569 0
    outer loop
      vertex 2.64576 1.41419 6
      vertex 2.77164 1.14805 35
      vertex 2.77164 1.14805 6
    endloop
  endfacet
  facet normal 0.998795 -0.0490819 0
    outer loop
      vertex 2.98555 -0.294051 35
      vertex 3 0 6
      vertex 3 0 35
    endloop
  endfacet
  facet normal 0.998795 -0.0490819 0
    outer loop
      vertex 3 0 6
      vertex 2.98555 -0.294051 35
      vertex 2.98555 -0.294051 6
    endloop
  endfacet
  facet normal 0.857736 0.514091 0
    outer loop
      vertex 2.64576 1.41419 35
      vertex 2.49441 1.66671 6
      vertex 2.49441 1.66671 35
    endloop
  endfacet
  facet normal 0.857736 0.514091 0
    outer loop
      vertex 2.49441 1.66671 6
      vertex 2.64576 1.41419 35
      vertex 2.64576 1.41419 6
    endloop
  endfacet
  facet normal 0.970027 0.242998 0
    outer loop
      vertex 2.94236 0.585271 35
      vertex 2.87082 0.870853 6
      vertex 2.87082 0.870853 35
    endloop
  endfacet
  facet normal 0.970027 0.242998 0
    outer loop
      vertex 2.87082 0.870853 6
      vertex 2.94236 0.585271 35
      vertex 2.94236 0.585271 6
    endloop
  endfacet
  facet normal -0.989181 0.146703 0
    outer loop
      vertex -2.98555 0.294051 6
      vertex -2.94236 0.585271 35
      vertex -2.94236 0.585271 6
    endloop
  endfacet
  facet normal -0.989181 0.146703 0
    outer loop
      vertex -2.94236 0.585271 35
      vertex -2.98555 0.294051 6
      vertex -2.98555 0.294051 35
    endloop
  endfacet
  facet normal 0.740952 0.671558 0
    outer loop
      vertex 2.31903 1.90318 35
      vertex 2.12132 2.12132 6
      vertex 2.12132 2.12132 35
    endloop
  endfacet
  facet normal 0.740952 0.671558 0
    outer loop
      vertex 2.12132 2.12132 6
      vertex 2.31903 1.90318 35
      vertex 2.31903 1.90318 6
    endloop
  endfacet
  facet normal 0.0490819 -0.998795 0
    outer loop
      vertex 0 -3 6
      vertex 0.294051 -2.98555 35
      vertex 0 -3 35
    endloop
  endfacet
  facet normal 0.0490819 -0.998795 0
    outer loop
      vertex 0.294051 -2.98555 35
      vertex 0 -3 6
      vertex 0.294051 -2.98555 6
    endloop
  endfacet
  facet normal -0.857736 -0.514091 0
    outer loop
      vertex -2.49441 -1.66671 6
      vertex -2.64576 -1.41419 35
      vertex -2.64576 -1.41419 6
    endloop
  endfacet
  facet normal -0.857736 -0.514091 0
    outer loop
      vertex -2.64576 -1.41419 35
      vertex -2.49441 -1.66671 6
      vertex -2.49441 -1.66671 35
    endloop
  endfacet
  facet normal -0.970027 0.242998 0
    outer loop
      vertex -2.94236 0.585271 6
      vertex -2.87082 0.870853 35
      vertex -2.87082 0.870853 6
    endloop
  endfacet
  facet normal -0.970027 0.242998 0
    outer loop
      vertex -2.87082 0.870853 35
      vertex -2.94236 0.585271 6
      vertex -2.94236 0.585271 35
    endloop
  endfacet
  facet normal -0.803204 -0.595703 0
    outer loop
      vertex -2.31903 -1.90318 6
      vertex -2.49441 -1.66671 35
      vertex -2.49441 -1.66671 6
    endloop
  endfacet
  facet normal -0.803204 -0.595703 0
    outer loop
      vertex -2.49441 -1.66671 35
      vertex -2.31903 -1.90318 6
      vertex -2.31903 -1.90318 35
    endloop
  endfacet
  facet normal 0.857736 -0.514091 0
    outer loop
      vertex 2.49441 -1.66671 35
      vertex 2.64576 -1.41419 6
      vertex 2.64576 -1.41419 35
    endloop
  endfacet
  facet normal 0.857736 -0.514091 0
    outer loop
      vertex 2.64576 -1.41419 6
      vertex 2.49441 -1.66671 35
      vertex 2.49441 -1.66671 6
    endloop
  endfacet
  facet normal 0.941547 0.336882 0
    outer loop
      vertex 2.87082 0.870853 35
      vertex 2.77164 1.14805 6
      vertex 2.77164 1.14805 35
    endloop
  endfacet
  facet normal 0.941547 0.336882 0
    outer loop
      vertex 2.77164 1.14805 6
      vertex 2.87082 0.870853 35
      vertex 2.87082 0.870853 6
    endloop
  endfacet
  facet normal 0.595703 -0.803204 0
    outer loop
      vertex 1.66671 -2.49441 6
      vertex 1.90318 -2.31903 35
      vertex 1.66671 -2.49441 35
    endloop
  endfacet
  facet normal 0.595703 -0.803204 0
    outer loop
      vertex 1.90318 -2.31903 35
      vertex 1.66671 -2.49441 6
      vertex 1.90318 -2.31903 6
    endloop
  endfacet
  facet normal -0.998795 -0.0490819 0
    outer loop
      vertex -2.98555 -0.294051 6
      vertex -3 0 35
      vertex -3 0 6
    endloop
  endfacet
  facet normal -0.998795 -0.0490819 0
    outer loop
      vertex -3 0 35
      vertex -2.98555 -0.294051 6
      vertex -2.98555 -0.294051 35
    endloop
  endfacet
  facet normal -0.903983 0.427569 0
    outer loop
      vertex -2.77164 1.14805 6
      vertex -2.64576 1.41419 35
      vertex -2.64576 1.41419 6
    endloop
  endfacet
  facet normal -0.903983 0.427569 0
    outer loop
      vertex -2.64576 1.41419 35
      vertex -2.77164 1.14805 6
      vertex -2.77164 1.14805 35
    endloop
  endfacet
  facet normal -0.941547 0.336882 0
    outer loop
      vertex -2.87082 0.870853 6
      vertex -2.77164 1.14805 35
      vertex -2.77164 1.14805 6
    endloop
  endfacet
  facet normal -0.941547 0.336882 0
    outer loop
      vertex -2.77164 1.14805 35
      vertex -2.87082 0.870853 6
      vertex -2.87082 0.870853 35
    endloop
  endfacet
  facet normal -0.146703 -0.989181 0
    outer loop
      vertex -0.585271 -2.94236 6
      vertex -0.294051 -2.98555 35
      vertex -0.585271 -2.94236 35
    endloop
  endfacet
  facet normal -0.146703 -0.989181 -0
    outer loop
      vertex -0.294051 -2.98555 35
      vertex -0.585271 -2.94236 6
      vertex -0.294051 -2.98555 6
    endloop
  endfacet
  facet normal 0.146703 0.989181 -0
    outer loop
      vertex 0.585271 2.94236 6
      vertex 0.294051 2.98555 35
      vertex 0.585271 2.94236 35
    endloop
  endfacet
  facet normal 0.146703 0.989181 0
    outer loop
      vertex 0.294051 2.98555 35
      vertex 0.585271 2.94236 6
      vertex 0.294051 2.98555 6
    endloop
  endfacet
  facet normal 0.0490819 0.998795 -0
    outer loop
      vertex 0.294051 2.98555 6
      vertex 0 3 35
      vertex 0.294051 2.98555 35
    endloop
  endfacet
  facet normal 0.0490819 0.998795 0
    outer loop
      vertex 0 3 35
      vertex 0.294051 2.98555 6
      vertex 0 3 6
    endloop
  endfacet
  facet normal -0.514091 -0.857736 0
    outer loop
      vertex -1.66671 -2.49441 6
      vertex -1.41419 -2.64576 35
      vertex -1.66671 -2.49441 35
    endloop
  endfacet
  facet normal -0.514091 -0.857736 -0
    outer loop
      vertex -1.41419 -2.64576 35
      vertex -1.66671 -2.49441 6
      vertex -1.41419 -2.64576 6
    endloop
  endfacet
  facet normal 0.595703 0.803204 -0
    outer loop
      vertex 1.90318 2.31903 6
      vertex 1.66671 2.49441 35
      vertex 1.90318 2.31903 35
    endloop
  endfacet
  facet normal 0.595703 0.803204 0
    outer loop
      vertex 1.66671 2.49441 35
      vertex 1.90318 2.31903 6
      vertex 1.66671 2.49441 6
    endloop
  endfacet
  facet normal 0.427569 0.903983 -0
    outer loop
      vertex 1.41419 2.64576 6
      vertex 1.14805 2.77164 35
      vertex 1.41419 2.64576 35
    endloop
  endfacet
  facet normal 0.427569 0.903983 0
    outer loop
      vertex 1.14805 2.77164 35
      vertex 1.41419 2.64576 6
      vertex 1.14805 2.77164 6
    endloop
  endfacet
  facet normal 0.903983 -0.427569 0
    outer loop
      vertex 2.64576 -1.41419 35
      vertex 2.77164 -1.14805 6
      vertex 2.77164 -1.14805 35
    endloop
  endfacet
  facet normal 0.903983 -0.427569 0
    outer loop
      vertex 2.77164 -1.14805 6
      vertex 2.64576 -1.41419 35
      vertex 2.64576 -1.41419 6
    endloop
  endfacet
  facet normal -0.0490819 -0.998795 0
    outer loop
      vertex -0.294051 -2.98555 6
      vertex 0 -3 35
      vertex -0.294051 -2.98555 35
    endloop
  endfacet
  facet normal -0.0490819 -0.998795 -0
    outer loop
      vertex 0 -3 35
      vertex -0.294051 -2.98555 6
      vertex 0 -3 6
    endloop
  endfacet
  facet normal -0.998795 0.0490819 0
    outer loop
      vertex -3 0 6
      vertex -2.98555 0.294051 35
      vertex -2.98555 0.294051 6
    endloop
  endfacet
  facet normal -0.998795 0.0490819 0
    outer loop
      vertex -2.98555 0.294051 35
      vertex -3 0 6
      vertex -3 0 35
    endloop
  endfacet
  facet normal -0.941547 -0.336882 0
    outer loop
      vertex -2.77164 -1.14805 6
      vertex -2.87082 -0.870853 35
      vertex -2.87082 -0.870853 6
    endloop
  endfacet
  facet normal -0.941547 -0.336882 0
    outer loop
      vertex -2.87082 -0.870853 35
      vertex -2.77164 -1.14805 6
      vertex -2.77164 -1.14805 35
    endloop
  endfacet
  facet normal 0.242998 0.970027 -0
    outer loop
      vertex 0.870853 2.87082 6
      vertex 0.585271 2.94236 35
      vertex 0.870853 2.87082 35
    endloop
  endfacet
  facet normal 0.242998 0.970027 0
    outer loop
      vertex 0.585271 2.94236 35
      vertex 0.870853 2.87082 6
      vertex 0.585271 2.94236 6
    endloop
  endfacet
  facet normal -0.336882 -0.941547 0
    outer loop
      vertex -1.14805 -2.77164 6
      vertex -0.870853 -2.87082 35
      vertex -1.14805 -2.77164 35
    endloop
  endfacet
  facet normal -0.336882 -0.941547 -0
    outer loop
      vertex -0.870853 -2.87082 35
      vertex -1.14805 -2.77164 6
      vertex -0.870853 -2.87082 6
    endloop
  endfacet
  facet normal -0.242998 0.970027 0
    outer loop
      vertex -0.585271 2.94236 6
      vertex -0.870853 2.87082 35
      vertex -0.585271 2.94236 35
    endloop
  endfacet
  facet normal -0.242998 0.970027 0
    outer loop
      vertex -0.870853 2.87082 35
      vertex -0.585271 2.94236 6
      vertex -0.870853 2.87082 6
    endloop
  endfacet
  facet normal 0.671558 -0.740952 0
    outer loop
      vertex 1.90318 -2.31903 6
      vertex 2.12132 -2.12132 35
      vertex 1.90318 -2.31903 35
    endloop
  endfacet
  facet normal 0.671558 -0.740952 0
    outer loop
      vertex 2.12132 -2.12132 35
      vertex 1.90318 -2.31903 6
      vertex 2.12132 -2.12132 6
    endloop
  endfacet
  facet normal 0.970027 -0.242998 0
    outer loop
      vertex 2.87082 -0.870853 35
      vertex 2.94236 -0.585271 6
      vertex 2.94236 -0.585271 35
    endloop
  endfacet
  facet normal 0.970027 -0.242998 0
    outer loop
      vertex 2.94236 -0.585271 6
      vertex 2.87082 -0.870853 35
      vertex 2.87082 -0.870853 6
    endloop
  endfacet
  facet normal -0.671558 -0.740952 0
    outer loop
      vertex -2.12132 -2.12132 6
      vertex -1.90318 -2.31903 35
      vertex -2.12132 -2.12132 35
    endloop
  endfacet
  facet normal -0.671558 -0.740952 -0
    outer loop
      vertex -1.90318 -2.31903 35
      vertex -2.12132 -2.12132 6
      vertex -1.90318 -2.31903 6
    endloop
  endfacet
  facet normal -0.989181 -0.146703 0
    outer loop
      vertex -2.94236 -0.585271 6
      vertex -2.98555 -0.294051 35
      vertex -2.98555 -0.294051 6
    endloop
  endfacet
  facet normal -0.989181 -0.146703 0
    outer loop
      vertex -2.98555 -0.294051 35
      vertex -2.94236 -0.585271 6
      vertex -2.94236 -0.585271 35
    endloop
  endfacet
  facet normal 0.803204 -0.595703 0
    outer loop
      vertex 2.31903 -1.90318 35
      vertex 2.49441 -1.66671 6
      vertex 2.49441 -1.66671 35
    endloop
  endfacet
  facet normal 0.803204 -0.595703 0
    outer loop
      vertex 2.49441 -1.66671 6
      vertex 2.31903 -1.90318 35
      vertex 2.31903 -1.90318 6
    endloop
  endfacet
  facet normal 0.336882 -0.941547 0
    outer loop
      vertex 0.870853 -2.87082 6
      vertex 1.14805 -2.77164 35
      vertex 0.870853 -2.87082 35
    endloop
  endfacet
  facet normal 0.336882 -0.941547 0
    outer loop
      vertex 1.14805 -2.77164 35
      vertex 0.870853 -2.87082 6
      vertex 1.14805 -2.77164 6
    endloop
  endfacet
  facet normal -0.803204 0.595703 0
    outer loop
      vertex -2.49441 1.66671 6
      vertex -2.31903 1.90318 35
      vertex -2.31903 1.90318 6
    endloop
  endfacet
  facet normal -0.803204 0.595703 0
    outer loop
      vertex -2.31903 1.90318 35
      vertex -2.49441 1.66671 6
      vertex -2.49441 1.66671 35
    endloop
  endfacet
  facet normal 0.427569 -0.903983 0
    outer loop
      vertex 1.14805 -2.77164 6
      vertex 1.41419 -2.64576 35
      vertex 1.14805 -2.77164 35
    endloop
  endfacet
  facet normal 0.427569 -0.903983 0
    outer loop
      vertex 1.41419 -2.64576 35
      vertex 1.14805 -2.77164 6
      vertex 1.41419 -2.64576 6
    endloop
  endfacet
  facet normal -0.740952 0.671558 0
    outer loop
      vertex -2.31903 1.90318 6
      vertex -2.12132 2.12132 35
      vertex -2.12132 2.12132 6
    endloop
  endfacet
  facet normal -0.740952 0.671558 0
    outer loop
      vertex -2.12132 2.12132 35
      vertex -2.31903 1.90318 6
      vertex -2.31903 1.90318 35
    endloop
  endfacet
  facet normal -0.514091 0.857736 0
    outer loop
      vertex -1.41419 2.64576 6
      vertex -1.66671 2.49441 35
      vertex -1.41419 2.64576 35
    endloop
  endfacet
  facet normal -0.514091 0.857736 0
    outer loop
      vertex -1.66671 2.49441 35
      vertex -1.41419 2.64576 6
      vertex -1.66671 2.49441 6
    endloop
  endfacet
  facet normal -0.427569 0.903983 0
    outer loop
      vertex -1.14805 2.77164 6
      vertex -1.41419 2.64576 35
      vertex -1.14805 2.77164 35
    endloop
  endfacet
  facet normal -0.427569 0.903983 0
    outer loop
      vertex -1.41419 2.64576 35
      vertex -1.14805 2.77164 6
      vertex -1.41419 2.64576 6
    endloop
  endfacet
  facet normal 0 0 1
    outer loop
      vertex 2.98555 0.294051 35
      vertex 2.98555 -0.294051 35
      vertex 3 0 35
    endloop
  endfacet
  facet normal 0 0 1
    outer loop
      vertex 2.94236 0.585271 35
      vertex 2.98555 -0.294051 35
      vertex 2.98555 0.294051 35
    endloop
  endfacet
  facet normal 0 0 1
    outer loop
      vertex 2.94236 0.585271 35
      vertex 2.94236 -0.585271 35
      vertex 2.98555 -0.294051 35
    endloop
  endfacet
  facet normal 0 0 1
    outer loop
      vertex 2.87082 0.870853 35
      vertex 2.94236 -0.585271 35
      vertex 2.94236 0.585271 35
    endloop
  endfacet
  facet normal 0 0 1
    outer loop
      vertex 2.87082 0.870853 35
      vertex 2.87082 -0.870853 35
      vertex 2.94236 -0.585271 35
    endloop
  endfacet
  facet normal 0 0 1
    outer loop
      vertex 2.77164 1.14805 35
      vertex 2.87082 -0.870853 35
      vertex 2.87082 0.870853 35
    endloop
  endfacet
  facet normal 0 0 1
    outer loop
      vertex 2.77164 1.14805 35
      vertex 2.77164 -1.14805 35
      vertex 2.87082 -0.870853 35
    endloop
  endfacet
  facet normal 0 0 1
    outer loop
      vertex 2.64576 1.41419 35
      vertex 2.77164 -1.14805 35
      vertex 2.77164 1.14805 35
    endloop
  endfacet
  facet normal 0 0 1
    outer loop
      vertex 2.64576 1.41419 35
      vertex 2.64576 -1.41419 35
      vertex 2.77164 -1.14805 35
    endloop
  endfacet
  facet normal 0 0 1
    outer loop
      vertex 2.49441 1.66671 35
      vertex 2.64576 -1.41419 35
      vertex 2.64576 1.41419 35
    endloop
  endfacet
  facet normal 0 0 1
    outer loop
      vertex 2.49441 1.66671 35
      vertex 2.49441 -1.66671 35
      vertex 2.64576 -1.41419 35
    endloop
  endfacet
  facet normal 0 0 1
    outer loop
      vertex 2.31903 1.90318 35
      vertex 2.49441 -1.66671 35
      vertex 2.49441 1.66671 35
    endloop
  endfacet
  facet normal 0 0 1
    outer loop
      vertex 2.31903 1.90318 35
      vertex 2.31903 -1.90318 35
      vertex 2.49441 -1.66671 35
    endloop
  endfacet
  facet normal 0 0 1
    outer loop
      vertex 2.12132 2.12132 35
      vertex 2.31903 -1.90318 35
      vertex 2.31903 1.90318 35
    endloop
  endfacet
  facet normal 0 0 1
    outer loop
      vertex 2.12132 2.12132 35
      vertex 2.12132 -2.12132 35
      vertex 2.31903 -1.90318 35
    endloop
  endfacet
  facet normal 0 0 1
    outer loop
      vertex 1.90318 2.31903 35
      vertex 2.12132 -2.12132 35
      vertex 2.12132 2.12132 35
    endloop
  endfacet
  facet normal 0 0 1
    outer loop
      vertex 1.90318 2.31903 35
      vertex 1.90318 -2.31903 35
      vertex 2.12132 -2.12132 35
    endloop
  endfacet
  facet normal 0 0 1
    outer loop
      vertex 1.66671 2.49441 35
      vertex 1.90318 -2.31903 35
      vertex 1.90318 2.31903 35
    endloop
  endfacet
  facet normal 0 0 1
    outer loop
      vertex 1.66671 2.49441 35
      vertex 1.66671 -2.49441 35
      vertex 1.90318 -2.31903 35
    endloop
  endfacet
  facet normal 0 0 1
    outer loop
      vertex 1.41419 2.64576 35
      vertex 1.66671 -2.49441 35
      vertex 1.66671 2.49441 35
    endloop
  endfacet
  facet normal 0 0 1
    outer loop
      vertex 1.41419 2.64576 35
      vertex 1.41419 -2.64576 35
      vertex 1.66671 -2.49441 35
    endloop
  endfacet
  facet normal 0 0 1
    outer loop
      vertex 1.14805 2.77164 35
      vertex 1.41419 -2.64576 35
      vertex 1.41419 2.64576 35
    endloop
  endfacet
  facet normal 0 0 1
    outer loop
      vertex 1.14805 2.77164 35
      vertex 1.14805 -2.77164 35
      vertex 1.41419 -2.64576 35
    endloop
  endfacet
  facet normal 0 0 1
    outer loop
      vertex 0.870853 2.87082 35
      vertex 1.14805 -2.77164 35
      vertex 1.14805 2.77164 35
    endloop
  endfacet
  facet normal 0 0 1
    outer loop
      vertex 0.870853 2.87082 35
      vertex 0.870853 -2.87082 35
      vertex 1.14805 -2.77164 35
    endloop
  endfacet
  facet normal 0 0 1
    outer loop
      vertex 0.585271 2.94236 35
      vertex 0.870853 -2.87082 35
      vertex 0.870853 2.87082 35
    endloop
  endfacet
  facet normal 0 0 1
    outer loop
      vertex 0.585271 2.94236 35
      vertex 0.585271 -2.94236 35
      vertex 0.870853 -2.87082 35
    endloop
  endfacet
  facet normal 0 0 1
    outer loop
      vertex 0.294051 2.98555 35
      vertex 0.585271 -2.94236 35
      vertex 0.585271 2.94236 35
    endloop
  endfacet
  facet normal 0 0 1
    outer loop
      vertex 0.294051 2.98555 35
      vertex 0.294051 -2.98555 35
      vertex 0.585271 -2.94236 35
    endloop
  endfacet
  facet normal 0 0 1
    outer loop
      vertex 0 3 35
      vertex 0.294051 -2.98555 35
      vertex 0.294051 2.98555 35
    endloop
  endfacet
  facet normal 0 0 1
    outer loop
      vertex 0 3 35
      vertex 0 -3 35
      vertex 0.294051 -2.98555 35
    endloop
  endfacet
  facet normal -0 0 1
    outer loop
      vertex -0.294051 2.98555 35
      vertex 0 -3 35
      vertex 0 3 35
    endloop
  endfacet
  facet normal 0 0 1
    outer loop
      vertex -0.294051 2.98555 35
      vertex -0.294051 -2.98555 35
      vertex 0 -3 35
    endloop
  endfacet
  facet normal -0 0 1
    outer loop
      vertex -0.585271 2.94236 35
      vertex -0.294051 -2.98555 35
      vertex -0.294051 2.98555 35
    endloop
  endfacet
  facet normal 0 0 1
    outer loop
      vertex -0.585271 2.94236 35
      vertex -0.585271 -2.94236 35
      vertex -0.294051 -2.98555 35
    endloop
  endfacet
  facet normal -0 0 1
    outer loop
      vertex -0.870853 2.87082 35
      vertex -0.585271 -2.94236 35
      vertex -0.585271 2.94236 35
    endloop
  endfacet
  facet normal 0 0 1
    outer loop
      vertex -0.870853 2.87082 35
      vertex -0.870853 -2.87082 35
      vertex -0.585271 -2.94236 35
    endloop
  endfacet
  facet normal -0 0 1
    outer loop
      vertex -1.14805 2.77164 35
      vertex -0.870853 -2.87082 35
      vertex -0.870853 2.87082 35
    endloop
  endfacet
  facet normal 0 0 1
    outer loop
      vertex -1.14805 2.77164 35
      vertex -1.14805 -2.77164 35
      vertex -0.870853 -2.87082 35
    endloop
  endfacet
  facet normal -0 0 1
    outer loop
      vertex -1.41419 2.64576 35
      vertex -1.14805 -2.77164 35
      vertex -1.14805 2.77164 35
    endloop
  endfacet
  facet normal 0 0 1
    outer loop
      vertex -1.41419 2.64576 35
      vertex -1.41419 -2.64576 35
      vertex -1.14805 -2.77164 35
    endloop
  endfacet
  facet normal -0 0 1
    outer loop
      vertex -1.66671 2.49441 35
      vertex -1.41419 -2.64576 35
      vertex -1.41419 2.64576 35
    endloop
  endfacet
  facet normal 0 0 1
    outer loop
      vertex -1.66671 2.49441 35
      vertex -1.66671 -2.49441 35
      vertex -1.41419 -2.64576 35
    endloop
  endfacet
  facet normal -0 0 1
    outer loop
      vertex -1.90318 2.31903 35
      vertex -1.66671 -2.49441 35
      vertex -1.66671 2.49441 35
    endloop
  endfacet
  facet normal 0 0 1
    outer loop
      vertex -1.90318 2.31903 35
      vertex -1.90318 -2.31903 35
      vertex -1.66671 -2.49441 35
    endloop
  endfacet
  facet normal -0 0 1
    outer loop
      vertex -2.12132 2.12132 35
      vertex -1.90318 -2.31903 35
      vertex -1.90318 2.31903 35
    endloop
  endfacet
  facet normal 0 0 1
    outer loop
      vertex -2.12132 2.12132 35
      vertex -2.12132 -2.12132 35
      vertex -1.90318 -2.31903 35
    endloop
  endfacet
  facet normal -0 0 1
    outer loop
      vertex -2.31903 1.90318 35
      vertex -2.12132 -2.12132 35
      vertex -2.12132 2.12132 35
    endloop
  endfacet
  facet normal 0 0 1
    outer loop
      vertex -2.31903 1.90318 35
      vertex -2.31903 -1.90318 35
      vertex -2.12132 -2.12132 35
    endloop
  endfacet
  facet normal -0 0 1
    outer loop
      vertex -2.49441 1.66671 35
      vertex -2.31903 -1.90318 35
      vertex -2.31903 1.90318 35
    endloop
  endfacet
  facet normal 0 0 1
    outer loop
      vertex -2.49441 1.66671 35
      vertex -2.49441 -1.66671 35
      vertex -2.31903 -1.90318 35
    endloop
  endfacet
  facet normal -0 0 1
    outer loop
      vertex -2.64576 1.41419 35
      vertex -2.49441 -1.66671 35
      vertex -2.49441 1.66671 35
    endloop
  endfacet
  facet normal 0 0 1
    outer loop
      vertex -2.64576 1.41419 35
      vertex -2.64576 -1.41419 35
      vertex -2.49441 -1.66671 35
    endloop
  endfacet
  facet normal -0 0 1
    outer loop
      vertex -2.77164 1.14805 35
      vertex -2.64576 -1.41419 35
      vertex -2.64576 1.41419 35
    endloop
  endfacet
  facet normal 0 0 1
    outer loop
      vertex -2.77164 1.14805 35
      vertex -2.77164 -1.14805 35
      vertex -2.64576 -1.41419 35
    endloop
  endfacet
  facet normal -0 0 1
    outer loop
      vertex -2.87082 0.870853 35
      vertex -2.77164 -1.14805 35
      vertex -2.77164 1.14805 35
    endloop
  endfacet
  facet normal 0 0 1
    outer loop
      vertex -2.87082 0.870853 35
      vertex -2.87082 -0.870853 35
      vertex -2.77164 -1.14805 35
    endloop
  endfacet
  facet normal -0 0 1
    outer loop
      vertex -2.94236 0.585271 35
      vertex -2.87082 -0.870853 35
      vertex -2.87082 0.870853 35
    endloop
  endfacet
  facet normal 0 0 1
    outer loop
      vertex -2.94236 0.585271 35
      vertex -2.94236 -0.585271 35
      vertex -2.87082 -0.870853 35
    endloop
  endfacet
  facet normal -0 0 1
    outer loop
      vertex -2.98555 0.294051 35
      vertex -2.94236 -0.585271 35
      vertex -2.94236 0.585271 35
    endloop
  endfacet
  facet normal 0 0 1
    outer loop
      vertex -2.98555 0.294051 35
      vertex -2.98555 -0.294051 35
      vertex -2.94236 -0.585271 35
    endloop
  endfacet
  facet normal 0 -0 1
    outer loop
      vertex -2.98555 -0.294051 35
      vertex -2.98555 0.294051 35
      vertex -3 0 35
    endloop
  endfacet
  facet normal -0.857736 0.514091 0
    outer loop
      vertex -2.64576 1.41419 6
      vertex -2.49441 1.66671 35
      vertex -2.49441 1.66671 6
    endloop
  endfacet
  facet normal -0.857736 0.514091 0
    outer loop
      vertex -2.49441 1.66671 35
      vertex -2.64576 1.41419 6
      vertex -2.64576 1.41419 35
    endloop
  endfacet
endsolid OpenSCAD_Model
