solid OpenSCAD_Model
  facet normal 1 -0 0
    outer loop
      vertex 40 0 28
      vertex 40 25 2
      vertex 40 25 28
    endloop
  endfacet
  facet normal 1 0 0
    outer loop
      vertex 40 25 2
      vertex 40 0 28
      vertex 40 0 2
    endloop
  endfacet
  facet normal 0 0 1
    outer loop
      vertex 45 30 30
      vertex 37 3 30
      vertex 45 -5 30
    endloop
  endfacet
  facet normal 0 0 1
    outer loop
      vertex 45 30 30
      vertex 23.4 14.4 30
      vertex 37 3 30
    endloop
  endfacet
  facet normal -0 0 1
    outer loop
      vertex -5 30 30
      vertex 23.4 14.4 30
      vertex 45 30 30
    endloop
  endfacet
  facet normal 0 0 1
    outer loop
      vertex -5 -5 30
      vertex 3 14.4 30
      vertex -5 30 30
    endloop
  endfacet
  facet normal 0 0 1
    outer loop
      vertex 23.4 14.4 30
      vertex -5 30 30
      vertex 3 14.4 30
    endloop
  endfacet
  facet normal -0 0 1
    outer loop
      vertex 3 3 30
      vertex 45 -5 30
      vertex 37 3 30
    endloop
  endfacet
  facet normal 0 0 1
    outer loop
      vertex 3 3 30
      vertex -5 -5 30
      vertex 45 -5 30
    endloop
  endfacet
  facet normal 0 0 1
    outer loop
      vertex 3 14.4 30
      vertex -5 -5 30
      vertex 3 3 30
    endloop
  endfacet
  facet normal 0 0 -1
    outer loop
      vertex 45 -5 0
      vertex 37 3 0
      vertex 45 30 0
    endloop
  endfacet
  facet normal 0 0 -1
    outer loop
      vertex 45 -5 0
      vertex 3 3 0
      vertex 37 3 0
    endloop
  endfacet
  facet normal -0 0 -1
    outer loop
      vertex 3 3 0
      vertex -5 -5 0
      vertex 3 14.4 0
    endloop
  endfacet
  facet normal 0 0 -1
    outer loop
      vertex -5 -5 0
      vertex 3 3 0
      vertex 45 -5 0
    endloop
  endfacet
  facet normal 0 0 -1
    outer loop
      vertex 23.4 14.4 0
      vertex 45 30 0
      vertex 37 3 0
    endloop
  endfacet
  facet normal 0 0 -1
    outer loop
      vertex -5 30 0
      vertex 23.4 14.4 0
      vertex 3 14.4 0
    endloop
  endfacet
  facet normal 0 0 -1
    outer loop
      vertex 23.4 14.4 0
      vertex -5 30 0
      vertex 45 30 0
    endloop
  endfacet
  facet normal 0 0 -1
    outer loop
      vertex -5 30 0
      vertex 3 14.4 0
      vertex -5 -5 0
    endloop
  endfacet
  facet normal -1 0 0
    outer loop
      vertex 0 0 2
      vertex 0 25 28
      vertex 0 25 2
    endloop
  endfacet
  facet normal -1 -0 0
    outer loop
      vertex 0 25 28
      vertex 0 0 2
      vertex 0 0 28
    endloop
  endfacet
  facet normal 0 1 -0
    outer loop
      vertex 40 25 2
      vertex 0 25 28
      vertex 40 25 28
    endloop
  endfacet
  facet normal 0 1 0
    outer loop
      vertex 0 25 28
      vertex 40 25 2
      vertex 0 25 2
    endloop
  endfacet
  facet normal 0 -1 0
    outer loop
      vertex 0 0 2
      vertex 40 0 28
      vertex 0 0 28
    endloop
  endfacet
  facet normal 0 -1 -0
    outer loop
      vertex 40 0 28
      vertex 0 0 2
      vertex 40 0 2
    endloop
  endfacet
  facet normal 1 -0 0
    outer loop
      vertex 45 -5 2
      vertex 45 30 0
      vertex 45 30 2
    endloop
  endfacet
  facet normal 1 0 0
    outer loop
      vertex 45 30 0
      vertex 45 -5 2
      vertex 45 -5 0
    endloop
  endfacet
  facet normal 0 0 1
    outer loop
      vertex 45 30 2
      vertex 40 25 2
      vertex 45 -5 2
    endloop
  endfacet
  facet normal 0 0 1
    outer loop
      vertex 45 30 2
      vertex 0 25 2
      vertex 40 25 2
    endloop
  endfacet
  facet normal 0 0 1
    outer loop
      vertex 0 25 2
      vertex -5 30 2
      vertex 0 0 2
    endloop
  endfacet
  facet normal -0 0 1
    outer loop
      vertex -5 30 2
      vertex 0 25 2
      vertex 45 30 2
    endloop
  endfacet
  facet normal -0 0 1
    outer loop
      vertex 40 0 2
      vertex 45 -5 2
      vertex 40 25 2
    endloop
  endfacet
  facet normal -0 0 1
    outer loop
      vertex 0 0 2
      vertex 45 -5 2
      vertex 40 0 2
    endloop
  endfacet
  facet normal 0 0 1
    outer loop
      vertex 0 0 2
      vertex -5 -5 2
      vertex 45 -5 2
    endloop
  endfacet
  facet normal 0 0 1
    outer loop
      vertex -5 -5 2
      vertex 0 0 2
      vertex -5 30 2
    endloop
  endfacet
  facet normal -1 0 0
    outer loop
      vertex -5 -5 0
      vertex -5 30 2
      vertex -5 30 0
    endloop
  endfacet
  facet normal -1 -0 0
    outer loop
      vertex -5 30 2
      vertex -5 -5 0
      vertex -5 -5 2
    endloop
  endfacet
  facet normal 0 1 -0
    outer loop
      vertex 45 30 0
      vertex -5 30 2
      vertex 45 30 2
    endloop
  endfacet
  facet normal 0 1 0
    outer loop
      vertex -5 30 2
      vertex 45 30 0
      vertex -5 30 0
    endloop
  endfacet
  facet normal 0 -1 0
    outer loop
      vertex -5 -5 0
      vertex 45 -5 2
      vertex -5 -5 2
    endloop
  endfacet
  facet normal 0 -1 -0
    outer loop
      vertex 45 -5 2
      vertex -5 -5 0
      vertex 45 -5 0
    endloop
  endfacet
  facet normal 1 -0 0
    outer loop
      vertex 45 -5 30
      vertex 45 30 28
      vertex 45 30 30
    endloop
  endfacet
  facet normal 1 0 0
    outer loop
      vertex 45 30 28
      vertex 45 -5 30
      vertex 45 -5 28
    endloop
  endfacet
  facet normal 0 0 -1
    outer loop
      vertex 45 -5 28
      vertex 40 0 28
      vertex 45 30 28
    endloop
  endfacet
  facet normal 0 0 -1
    outer loop
      vertex 45 -5 28
      vertex 0 0 28
      vertex 40 0 28
    endloop
  endfacet
  facet normal -0 0 -1
    outer loop
      vertex 0 0 28
      vertex -5 -5 28
      vertex 0 25 28
    endloop
  endfacet
  facet normal 0 0 -1
    outer loop
      vertex -5 -5 28
      vertex 0 0 28
      vertex 45 -5 28
    endloop
  endfacet
  facet normal 0 0 -1
    outer loop
      vertex 40 25 28
      vertex 45 30 28
      vertex 40 0 28
    endloop
  endfacet
  facet normal 0 0 -1
    outer loop
      vertex 0 25 28
      vertex 45 30 28
      vertex 40 25 28
    endloop
  endfacet
  facet normal 0 0 -1
    outer loop
      vertex 0 25 28
      vertex -5 30 28
      vertex 45 30 28
    endloop
  endfacet
  facet normal 0 0 -1
    outer loop
      vertex -5 30 28
      vertex 0 25 28
      vertex -5 -5 28
    endloop
  endfacet
  facet normal -1 0 0
    outer loop
      vertex -5 -5 28
      vertex -5 30 30
      vertex -5 30 28
    endloop
  endfacet
  facet normal -1 -0 0
    outer loop
      vertex -5 30 30
      vertex -5 -5 28
      vertex -5 -5 30
    endloop
  endfacet
  facet normal 0 1 -0
    outer loop
      vertex 45 30 28
      vertex -5 30 30
      vertex 45 30 30
    endloop
  endfacet
  facet normal 0 1 0
    outer loop
      vertex -5 30 30
      vertex 45 30 28
      vertex -5 30 28
    endloop
  endfacet
  facet normal 0 -1 0
    outer loop
      vertex -5 -5 28
      vertex 45 -5 30
      vertex -5 -5 30
    endloop
  endfacet
  facet normal 0 -1 -0
    outer loop
      vertex 45 -5 30
      vertex -5 -5 28
      vertex 45 -5 28
    endloop
  endfacet
  facet normal -0.642399 -0.766371 0
    outer loop
      vertex 23.4 14.4 0
      vertex 37 3 30
      vertex 23.4 14.4 30
    endloop
  endfacet
  facet normal -0.642399 -0.766371 -0
    outer loop
      vertex 37 3 30
      vertex 23.4 14.4 0
      vertex 37 3 0
    endloop
  endfacet
  facet normal 1 -0 0
    outer loop
      vertex 3 3 30
      vertex 3 14.4 0
      vertex 3 14.4 30
    endloop
  endfacet
  facet normal 1 0 0
    outer loop
      vertex 3 14.4 0
      vertex 3 3 30
      vertex 3 3 0
    endloop
  endfacet
  facet normal 0 1 -0
    outer loop
      vertex 37 3 0
      vertex 3 3 30
      vertex 37 3 30
    endloop
  endfacet
  facet normal 0 1 0
    outer loop
      vertex 3 3 30
      vertex 37 3 0
      vertex 3 3 0
    endloop
  endfacet
  facet normal 0 -1 0
    outer loop
      vertex 3 14.4 0
      vertex 23.4 14.4 30
      vertex 3 14.4 30
    endloop
  endfacet
  facet normal 0 -1 -0
    outer loop
      vertex 23.4 14.4 30
      vertex 3 14.4 0
      vertex 23.4 14.4 0
    endloop
  endfacet
endsolid OpenSCAD_Model
