solid OpenSCAD_Model
  facet normal 0 -0 -1
    outer loop
      vertex 6 5 0
      vertex 7 2 0
      vertex 5 0 0
    endloop
  endfacet
  facet normal 0 0 -1
    outer loop
      vertex 3 6 0
      vertex 0.5 4 0
      vertex 1.5 5.5 0
    endloop
  endfacet
  facet normal -0 0 -1
    outer loop
      vertex 6 5 0
      vertex 5 0 0
      vertex 3 6 0
    endloop
  endfacet
  facet normal 0 -0 -1
    outer loop
      vertex 3 6 0
      vertex 5 0 0
      vertex 0.5 4 0
    endloop
  endfacet
  facet normal 0 -0 -1
    outer loop
      vertex 0.5 4 0
      vertex 5 0 0
      vertex 0 2 0
    endloop
  endfacet
  facet normal 0 0 -1
    outer loop
      vertex 0 2 0
      vertex 5 0 0
      vertex 0 0 0
    endloop
  endfacet
  facet normal 0 0 1
    outer loop
      vertex 5 0 2
      vertex 7 2 2
      vertex 6 5 2
    endloop
  endfacet
  facet normal -0 0 1
    outer loop
      vertex 1.5 5.5 2
      vertex 0.5 4 2
      vertex 3 6 2
    endloop
  endfacet
  facet normal 0 0 1
    outer loop
      vertex 3 6 2
      vertex 5 0 2
      vertex 6 5 2
    endloop
  endfacet
  facet normal -0 0 1
    outer loop
      vertex 0.5 4 2
      vertex 5 0 2
      vertex 3 6 2
    endloop
  endfacet
  facet normal -0 0 1
    outer loop
      vertex 0 2 2
      vertex 5 0 2
      vertex 0.5 4 2
    endloop
  endfacet
  facet normal 0 0 1
    outer loop
      vertex 0 0 2
      vertex 5 0 2
      vertex 0 2 2
    endloop
  endfacet
  facet normal 0.948683 0.316228 0
    outer loop
      vertex 6 5 0
      vertex 7 2 2
      vertex 7 2 0
    endloop
  endfacet
  facet normal 0.948683 0.316228 -0
    outer loop
      vertex 6 5 0
      vertex 6 5 2
      vertex 7 2 2
    endloop
  endfacet
  facet normal 0.316228 0.948683 0
    outer loop
      vertex 3 6 0
      vertex 6 5 2
      vertex 6 5 0
    endloop
  endfacet
  facet normal 0.316228 0.948683 -0
    outer loop
      vertex 3 6 0
      vertex 3 6 2
      vertex 6 5 2
    endloop
  endfacet
  facet normal -0.316228 0.948683 0
    outer loop
      vertex 1.5 5.5 0
      vertex 3 6 2
      vertex 3 6 0
    endloop
  endfacet
  facet normal -0.316228 0.948683 0
    outer loop
      vertex 1.5 5.5 0
      vertex 1.5 5.5 2
      vertex 3 6 2
    endloop
  endfacet
  facet normal -0.83205 0.5547 0
    outer loop
      vertex 0.5 4 0
      vertex 1.5 5.5 2
      vertex 1.5 5.5 0
    endloop
  endfacet
  facet normal -0.83205 0.5547 0
    outer loop
      vertex 0.5 4 0
      vertex 0.5 4 2
      vertex 1.5 5.5 2
    endloop
  endfacet
  facet normal -0.970143 0.242536 0
    outer loop
      vertex 0 2 0
      vertex 0.5 4 2
      vertex 0.5 4 0
    endloop
  endfacet
  facet normal -0.970143 0.242536 0
    outer loop
      vertex 0 2 0
      vertex 0 2 2
      vertex 0.5 4 2
    endloop
  endfacet
  facet normal -1 0 0
    outer loop
      vertex 0 0 0
      vertex 0 2 2
      vertex 0 2 0
    endloop
  endfacet
  facet normal -1 0 0
    outer loop
      vertex 0 0 0
      vertex 0 0 2
      vertex 0 2 2
    endloop
  endfacet
  facet normal 0 -1 0
    outer loop
      vertex 5 0 0
      vertex 0 0 2
      vertex 0 0 0
    endloop
  endfacet
  facet normal 0 -1 0
    outer loop
      vertex 5 0 0
      vertex 5 0 2
      vertex 0 0 2
    endloop
  endfacet
  facet normal 0.707107 -0.707107 0
    outer loop
      vertex 7 2 0
      vertex 5 0 2
      vertex 5 0 0
    endloop
  endfacet
  facet normal 0.707107 -0.707107 0
    outer loop
      vertex 7 2 0
      vertex 7 2 2
      vertex 5 0 2
    endloop
  endfacet
endsolid OpenSCAD_Model
